<?xml version="1.0" standalone="no"?><!DOCTYPE svg PUBLIC "-//W3C//DTD SVG 1.1//EN" "http://www.w3.org/Graphics/SVG/1.1/DTD/svg11.dtd"><svg t="1534129003435" class="icon" style="" viewBox="0 0 1031 1024" version="1.1" xmlns="http://www.w3.org/2000/svg" p-id="6748" xmlns:xlink="http://www.w3.org/1999/xlink" width="128.875" height="128"><defs><style type="text/css"></style></defs><path d="M877.7216 36.573867L848.469333 7.3216 548.573867 0h-80.452267L175.547733 14.626133 146.2784 43.8784 7.3216 285.252267v36.573866L512 958.173867l512-621.704534v-43.8784L877.7216 36.573867z" fill="#FFFFFF" p-id="6749"></path><path d="M1024 277.947733L877.7216 36.573867 768 285.252267l256-7.304534c0 7.304533 0 0 0 0z" fill="#93C2FF" p-id="6750"></path><path d="M512 14.626133L321.826133 285.252267h380.347734L512 14.626133z" fill="#C1DCFF" p-id="6751"></path><path d="M204.8 0c-7.3216 0-21.947733 7.3216-29.252267 7.3216l117.026134 256L475.426133 0H204.8z" fill="#93C2FF" p-id="6752"></path><path d="M826.5216 0H548.573867l182.869333 263.3216 117.026133-256C841.130667 0 833.826133 0 826.5216 0z" fill="#78B5FF" p-id="6753"></path><path d="M307.2 321.826133l204.8 629.0432 197.4784-629.0432H307.2z" fill="#94C2FF" p-id="6754"></path><path d="M270.626133 321.826133H0s7.3216 7.3216 7.3216 14.626134l438.852267 555.8784-175.547734-570.504534z" fill="#4BB7FF" p-id="6755"></path><path d="M7.3216 277.947733s0 7.304533 0 0L256 285.252267 146.2784 43.8784 7.3216 277.947733z m746.052267 43.8784L570.5216 906.973867 1024 336.452267c0-7.3216 7.3216-7.3216 7.3216-14.626134H753.373867z" fill="#6BC3FF" p-id="6756"></path></svg>