<?xml version="1.0" standalone="no"?><!DOCTYPE svg PUBLIC "-//W3C//DTD SVG 1.1//EN" "http://www.w3.org/Graphics/SVG/1.1/DTD/svg11.dtd"><svg t="1526357425143" class="icon" style="" viewBox="0 0 1079 1024" version="1.1" xmlns="http://www.w3.org/2000/svg" p-id="5559" xmlns:xlink="http://www.w3.org/1999/xlink" width="210.7421875" height="200"><defs><style type="text/css"></style></defs><path d="M0 390.049602c119.314927-17.250351 239.109031-34.500702 358.423959-51.751053 10.541881-1.437529 16.291998-6.229293 21.083762-15.812822 49.355171-101.106224 99.189518-201.733271 149.023865-302.839495 2.875058-5.750117 5.750117-11.500234 10.062705-19.646233 3.833411 6.229293 6.229293 10.541881 8.625175 14.854469 50.313524 102.543753 101.106224 204.608329 151.419747 307.631259 4.791764 9.583528 10.541881 14.375292 21.083762 15.812822 119.314927 16.771175 239.109031 34.500702 358.423959 51.751053 0 1.437529 0 2.395882 0 3.833411-1.437529 0.479176-3.833411 0.479176-4.791764 1.437529-86.251755 83.855873-172.50351 167.711745-258.276088 252.046795-3.354235 3.354235-4.791764 10.541881-4.312588 15.812822 13.896116 83.855873 28.271409 167.232569 42.646701 251.088442 6.229293 35.459055 11.97941 71.397286 18.68788 109.731399-10.541881-5.270941-17.729527-9.104352-25.39635-12.937763-97.272812-51.271876-195.024801-102.543753-292.297613-154.294806-11.500234-6.229293-20.125409-6.229293-31.146467 0-53.667759 28.750585-107.814693 57.021993-161.961628 85.293402-50.7927 26.833879-101.5854 53.188582-154.773982 81.459991 0.958353-8.625175 1.437529-15.333645 2.395882-21.562939 19.167057-111.168928 37.854937-222.817033 57.980346-333.985962 1.916706-11.97941-0.479176-18.68788-8.625175-26.354703-69.959757-67.563875-139.919513-136.086102-209.87927-204.129153C32.583996 422.633599 16.291998 408.737482 0 393.883014 0 392.445484 0 391.487131 0 390.049602zM542.427702 172.024333c-1.437529 0.479176-2.395882 0.479176-3.833411 0.958353 0 194.066448 0 387.65372 0.479176 581.720168 0 5.750117 6.229293 13.896116 11.500234 16.771175 52.230229 28.271409 104.460459 55.584464 157.169864 83.376696 21.083762 11.021058 42.167525 22.042115 65.167993 34.021526-0.479176-7.187646-0.479176-11.97941-0.958353-16.771175-12.937763-76.668226-25.875526-153.336453-39.771642-229.525503-1.916706-11.021058 0.479176-17.729527 8.145999-24.917174 54.626111-52.709406 108.773046-105.897988 163.399158-158.607394 4.312588-4.312588 11.500234-6.229293 17.729527-9.104352-1.916706-2.395882-3.833411-4.791764-5.750117-7.187646-2.875058-0.479176-5.270941-0.958353-8.145999-1.437529-79.064109-11.500234-158.607394-23.000468-237.671502-35.459055-6.70847-0.958353-14.854469-7.187646-18.208704-12.937763-16.771175-31.625643-32.10482-64.20964-47.917642-96.31446C582.678521 253.9635 562.553112 213.233505 542.427702 172.024333z" p-id="5560" fill="#FFBE00"></path></svg>