<?xml version="1.0" standalone="no"?><!DOCTYPE svg PUBLIC "-//W3C//DTD SVG 1.1//EN" "http://www.w3.org/Graphics/SVG/1.1/DTD/svg11.dtd"><svg t="1526357435638" class="icon" style="" viewBox="0 0 1078 1024" version="1.1" xmlns="http://www.w3.org/2000/svg" p-id="5772" xmlns:xlink="http://www.w3.org/1999/xlink" width="210.546875" height="200"><defs><style type="text/css"></style></defs><path d="M1077.13885 390.163628c0 1.436185 0 2.393642 0 3.829827-1.436185 0.478728-3.829827 0.478728-4.787284 1.436185-86.171108 83.777466-172.342216 167.554932-258.034596 251.811127-3.351099 3.351099-4.787284 10.532024-4.308555 15.798036 13.883123 83.777466 28.244974 167.076204 42.606826 250.85367 6.223469 35.4259 11.968209 71.330528 18.670407 109.628799-10.532024-5.266012-17.71295-9.095839-24.893876-12.925666-97.660589-51.702665-195.799906-102.926601-293.460496-154.629266-10.053296-5.266012-18.191678-5.266012-28.244974 0-43.085554 23.457691-86.649836 45.957924-130.214119 68.936886-61.755961 32.55353-123.511921 65.107059-188.140252 99.096774 0.957457-8.617111 1.436185-15.319308 2.393642-21.542777 19.149135-111.064984 37.819542-222.608696 57.926134-333.673679 1.914914-11.968209-0.478728-18.670407-8.617111-26.330061-81.862553-79.468911-163.725105-159.41655-245.587658-238.88546-3.829827-3.351099-8.138382-5.744741-12.446938-9.095839 0-1.436185 0-2.393642 0-3.829827 119.203366-17.234222 238.88546-34.468443 358.088827-51.702665 10.532024-1.436185 16.276765-6.223469 21.064049-15.798036 49.309023-101.011688 99.096774-201.544647 148.884525-302.556335 2.87237-6.223469 6.223469-11.968209 11.010753-20.106592 4.308555 8.138382 7.180926 13.404395 9.574568 18.670407C598.410472 119.682094 648.198223 221.172511 697.985975 322.662927c4.787284 9.574568 10.532024 14.361851 21.064049 15.798036C838.253389 355.695185 957.935484 372.929406 1077.13885 390.163628z" p-id="5773" fill="#FFBE00"></path></svg>