<?xml version="1.0" standalone="no"?><!DOCTYPE svg PUBLIC "-//W3C//DTD SVG 1.1//EN" "http://www.w3.org/Graphics/SVG/1.1/DTD/svg11.dtd"><svg t="1530603447545" class="icon" style="" viewBox="0 0 1024 1024" version="1.1" xmlns="http://www.w3.org/2000/svg" p-id="4638" xmlns:xlink="http://www.w3.org/1999/xlink" width="16" height="16"><defs><style type="text/css"></style></defs><path d="M619.8 902.7c-13.2 0-24-10.8-24-24V655.4H457.6v223.3c0 13.2-10.8 24-24 24h-220c-13.2 0-24-10.8-24-24v-370c0-13.2 10.8-24 24-24s24 10.8 24 24v346h172.1V631.5c0-13.2 10.8-24 24-24h186.1c13.2 0 24 10.8 24 24v223.3h167.5v-346c0-13.2 10.8-24 24-24s24 10.8 24 24v370c0 13.2-10.8 24-24 24H619.8zM126 470c-7.8 0-15.2-3.8-19.7-10.3-7.6-10.9-4.9-25.9 6-33.4l400.5-279c4-2.8 8.8-4.3 13.7-4.3 5.2 0 10.2 1.6 14.4 4.8l371.6 279c5.1 3.8 8.4 9.5 9.3 15.8 0.9 6.4-0.7 12.7-4.6 17.8-4.6 6.1-11.6 9.6-19.2 9.6-5.2 0-10.2-1.7-14.4-4.8L525.9 196.6 139.7 465.7c-4 2.8-8.8 4.3-13.7 4.3z" fill="#ffffff" p-id="4639"></path></svg>