<?xml version="1.0" encoding="UTF-8"?>
<svg width="794px" height="297px" viewBox="0 0 794 297" version="1.1" xmlns="http://www.w3.org/2000/svg" xmlns:xlink="http://www.w3.org/1999/xlink">
    <!-- Generator: Sketch 50.2 (55047) - http://www.bohemiancoding.com/sketch -->
    <title>Group 20</title>
    <desc>Created with Sketch.</desc>
    <defs>
        <linearGradient x1="50%" y1="52.1061572%" x2="47.1984748%" y2="102.460321%" id="linearGradient-1">
            <stop stop-color="#FF3333" offset="0%"></stop>
            <stop stop-color="#D30000" offset="100%"></stop>
        </linearGradient>
        <filter x="-76.2%" y="-107.7%" width="252.4%" height="346.2%" filterUnits="objectBoundingBox" id="filter-2">
            <feOffset dx="0" dy="2" in="SourceAlpha" result="shadowOffsetOuter1"></feOffset>
            <feGaussianBlur stdDeviation="5" in="shadowOffsetOuter1" result="shadowBlurOuter1"></feGaussianBlur>
            <feColorMatrix values="0 0 0 0 0   0 0 0 0 0   0 0 0 0 0  0 0 0 0.5 0" type="matrix" in="shadowBlurOuter1" result="shadowMatrixOuter1"></feColorMatrix>
            <feMerge>
                <feMergeNode in="shadowMatrixOuter1"></feMergeNode>
                <feMergeNode in="SourceGraphic"></feMergeNode>
            </feMerge>
        </filter>
        <linearGradient x1="12.2626322%" y1="10.3244723%" x2="15.4561016%" y2="76.1593553%" id="linearGradient-3">
            <stop stop-color="#DDBD7F" offset="0%"></stop>
            <stop stop-color="#FFFFFF" offset="100%"></stop>
        </linearGradient>
        <linearGradient x1="46.7768085%" y1="41.6451791%" x2="-19.0580746%" y2="44.8386485%" id="linearGradient-4">
            <stop stop-color="#DDBD7F" offset="0%"></stop>
            <stop stop-color="#FFFFFF" offset="100%"></stop>
        </linearGradient>
        <filter x="-100.0%" y="-140.0%" width="300.0%" height="420.0%" filterUnits="objectBoundingBox" id="filter-5">
            <feOffset dx="0" dy="2" in="SourceAlpha" result="shadowOffsetOuter1"></feOffset>
            <feGaussianBlur stdDeviation="5" in="shadowOffsetOuter1" result="shadowBlurOuter1"></feGaussianBlur>
            <feColorMatrix values="0 0 0 0 0   0 0 0 0 0   0 0 0 0 0  0 0 0 0.5 0" type="matrix" in="shadowBlurOuter1" result="shadowMatrixOuter1"></feColorMatrix>
            <feMerge>
                <feMergeNode in="shadowMatrixOuter1"></feMergeNode>
                <feMergeNode in="SourceGraphic"></feMergeNode>
            </feMerge>
        </filter>
        <filter x="-160.0%" y="-233.3%" width="420.0%" height="633.3%" filterUnits="objectBoundingBox" id="filter-6">
            <feOffset dx="0" dy="2" in="SourceAlpha" result="shadowOffsetOuter1"></feOffset>
            <feGaussianBlur stdDeviation="5" in="shadowOffsetOuter1" result="shadowBlurOuter1"></feGaussianBlur>
            <feColorMatrix values="0 0 0 0 0   0 0 0 0 0   0 0 0 0 0  0 0 0 0.5 0" type="matrix" in="shadowBlurOuter1" result="shadowMatrixOuter1"></feColorMatrix>
            <feMerge>
                <feMergeNode in="shadowMatrixOuter1"></feMergeNode>
                <feMergeNode in="SourceGraphic"></feMergeNode>
            </feMerge>
        </filter>
        <filter x="-76.2%" y="-107.7%" width="252.4%" height="346.2%" filterUnits="objectBoundingBox" id="filter-7">
            <feOffset dx="0" dy="2" in="SourceAlpha" result="shadowOffsetOuter1"></feOffset>
            <feGaussianBlur stdDeviation="5" in="shadowOffsetOuter1" result="shadowBlurOuter1"></feGaussianBlur>
            <feColorMatrix values="0 0 0 0 0   0 0 0 0 0   0 0 0 0 0  0 0 0 0.5 0" type="matrix" in="shadowBlurOuter1" result="shadowMatrixOuter1"></feColorMatrix>
            <feMerge>
                <feMergeNode in="shadowMatrixOuter1"></feMergeNode>
                <feMergeNode in="SourceGraphic"></feMergeNode>
            </feMerge>
        </filter>
        <filter x="-123.1%" y="-175.0%" width="346.2%" height="500.0%" filterUnits="objectBoundingBox" id="filter-8">
            <feOffset dx="0" dy="2" in="SourceAlpha" result="shadowOffsetOuter1"></feOffset>
            <feGaussianBlur stdDeviation="5" in="shadowOffsetOuter1" result="shadowBlurOuter1"></feGaussianBlur>
            <feColorMatrix values="0 0 0 0 0   0 0 0 0 0   0 0 0 0 0  0 0 0 0.5 0" type="matrix" in="shadowBlurOuter1" result="shadowMatrixOuter1"></feColorMatrix>
            <feMerge>
                <feMergeNode in="shadowMatrixOuter1"></feMergeNode>
                <feMergeNode in="SourceGraphic"></feMergeNode>
            </feMerge>
        </filter>
        <filter x="-37.5%" y="-26.8%" width="192.2%" height="178.9%" filterUnits="objectBoundingBox" id="filter-9">
            <feOffset dx="0" dy="2" in="SourceAlpha" result="shadowOffsetOuter1"></feOffset>
            <feGaussianBlur stdDeviation="2" in="shadowOffsetOuter1" result="shadowBlurOuter1"></feGaussianBlur>
            <feColorMatrix values="0 0 0 0 0.991279357   0 0 0 0 1   0 0 0 0 0.850299874  0 0 0 1 0" type="matrix" in="shadowBlurOuter1" result="shadowMatrixOuter1"></feColorMatrix>
            <feMerge>
                <feMergeNode in="shadowMatrixOuter1"></feMergeNode>
                <feMergeNode in="SourceGraphic"></feMergeNode>
            </feMerge>
        </filter>
        <path d="M23.1619048,18.2608696 L51.8095238,21.1069672 L47.5584691,56.679914 C45.3616651,63.1251887 43.0017886,66.3478261 40.4788396,66.3478261 C37.9558907,66.3478261 34.0335944,62.8354502 28.7119507,55.8106985 L23.1619048,18.2608696 Z" id="path-10"></path>
        <filter x="-104.7%" y="-62.4%" width="309.4%" height="224.8%" filterUnits="objectBoundingBox" id="filter-11">
            <feOffset dx="0" dy="0" in="SourceAlpha" result="shadowOffsetOuter1"></feOffset>
            <feGaussianBlur stdDeviation="10" in="shadowOffsetOuter1" result="shadowBlurOuter1"></feGaussianBlur>
            <feColorMatrix values="0 0 0 0 1   0 0 0 0 0.899228397   0 0 0 0 0.644491793  0 0 0 1 0" type="matrix" in="shadowBlurOuter1"></feColorMatrix>
        </filter>
        <linearGradient x1="0%" y1="44.4913432%" x2="79.2241351%" y2="44.4913417%" id="linearGradient-12">
            <stop stop-color="#684504" offset="0%"></stop>
            <stop stop-color="#FFFFFF" offset="59.8469085%"></stop>
            <stop stop-color="#846D4D" offset="100%"></stop>
        </linearGradient>
        <linearGradient x1="12.2626322%" y1="10.3244723%" x2="100%" y2="31.4320205%" id="linearGradient-13">
            <stop stop-color="#D0A25C" offset="0%"></stop>
            <stop stop-color="#FFFFFF" offset="49.7900108%"></stop>
            <stop stop-color="#FFFFFF" offset="70.6399025%"></stop>
            <stop stop-color="#DDBD7F" offset="100%"></stop>
        </linearGradient>
        <ellipse id="path-14" cx="21.3333333" cy="11.9512195" rx="21.3333333" ry="11.9512195"></ellipse>
        <filter x="-16.4%" y="-20.9%" width="132.8%" height="158.6%" filterUnits="objectBoundingBox" id="filter-15">
            <feOffset dx="0" dy="2" in="SourceAlpha" result="shadowOffsetOuter1"></feOffset>
            <feGaussianBlur stdDeviation="2" in="shadowOffsetOuter1" result="shadowBlurOuter1"></feGaussianBlur>
            <feColorMatrix values="0 0 0 0 0   0 0 0 0 0   0 0 0 0 0  0 0 0 0.5 0" type="matrix" in="shadowBlurOuter1"></feColorMatrix>
        </filter>
        <linearGradient x1="50%" y1="100%" x2="80.6581286%" y2="30.4219832%" id="linearGradient-16">
            <stop stop-color="#E6CF9B" offset="0%"></stop>
            <stop stop-color="#D0A85F" offset="100%"></stop>
        </linearGradient>
        <ellipse id="path-17" cx="17.5483871" cy="9.56097561" rx="17.5483871" ry="9.56097561"></ellipse>
        <filter x="-7.1%" y="-13.1%" width="114.2%" height="126.1%" filterUnits="objectBoundingBox" id="filter-19">
            <feGaussianBlur stdDeviation="1.5" in="SourceAlpha" result="shadowBlurInner1"></feGaussianBlur>
            <feOffset dx="0" dy="1" in="shadowBlurInner1" result="shadowOffsetInner1"></feOffset>
            <feComposite in="shadowOffsetInner1" in2="SourceAlpha" operator="arithmetic" k2="-1" k3="1" result="shadowInnerInner1"></feComposite>
            <feColorMatrix values="0 0 0 0 0   0 0 0 0 0   0 0 0 0 0  0 0 0 0.5 0" type="matrix" in="shadowInnerInner1"></feColorMatrix>
        </filter>
        <ellipse id="path-20" cx="21.3333333" cy="23.5609756" rx="2.75268817" ry="1.02439024"></ellipse>
        <filter x="-535.8%" y="-1342.3%" width="1171.7%" height="2979.8%" filterUnits="objectBoundingBox" id="filter-21">
            <feMorphology radius="4" operator="dilate" in="SourceAlpha" result="shadowSpreadOuter1"></feMorphology>
            <feOffset dx="0" dy="2" in="shadowSpreadOuter1" result="shadowOffsetOuter1"></feOffset>
            <feGaussianBlur stdDeviation="5.5" in="shadowOffsetOuter1" result="shadowBlurOuter1"></feGaussianBlur>
            <feColorMatrix values="0 0 0 0 1   0 0 0 0 1   0 0 0 0 1  0 0 0 0.5 0" type="matrix" in="shadowBlurOuter1"></feColorMatrix>
        </filter>
        <linearGradient x1="50%" y1="0%" x2="50%" y2="100%" id="linearGradient-22">
            <stop stop-color="#A2855E" offset="0%"></stop>
            <stop stop-color="#9F774A" offset="45.7008671%"></stop>
            <stop stop-color="#9C6532" offset="100%"></stop>
        </linearGradient>
        <path d="M20.9206984,4.4870289 L20.9206984,2.91305631 L22.1972844,2.91305631 L22.1972844,4.4870289 C23.3578172,4.56380805 24.2862435,4.89011944 24.9632209,5.4275735 C25.7562517,6.0418067 26.239807,7.05913045 26.4332291,8.46034995 L24.2282168,8.46034995 C24.1121635,7.65416887 23.8220303,7.09752003 23.3578172,6.77120864 C23.067684,6.56006597 22.6808398,6.42570246 22.1972844,6.3681181 L22.1972844,10.5909714 C23.7253193,11.1476202 24.5570344,11.4547368 24.6730877,11.531516 C26.0077004,12.2801127 26.6846779,13.3550208 26.6846779,14.7562403 C26.6846779,16.1190702 26.1624381,17.136394 25.1179586,17.8274064 C24.3442701,18.3264708 23.3771594,18.6143927 22.1972844,18.6911718 L22.1972844,20.3803131 L20.9206984,20.3803131 L20.9206984,18.6911718 C19.6054279,18.5951979 18.5996328,18.2304969 17.9033131,17.5778741 C17.0909402,16.8100826 16.6267271,15.6392006 16.5106738,14.065228 L18.7543705,14.065228 C18.8317394,15.0633569 19.0831881,15.7927589 19.528059,16.2150442 C19.8568767,16.5221608 20.3210898,16.7141087 20.9206984,16.7908878 L20.9206984,12.2993075 L18.6963439,11.4931264 C17.342389,10.7637245 16.6847537,9.68881637 16.6847537,8.26840208 C16.6847537,7.00154609 17.168309,6.0418067 18.1547619,5.36998913 C18.889766,4.85172987 19.79885,4.56380805 20.9206984,4.4870289 Z M22.1972844,12.7599824 L22.1972844,16.7908878 C22.7388664,16.7141087 23.2224217,16.5605504 23.609266,16.3110181 C24.150848,15.9655119 24.4216389,15.4664475 24.4216389,14.8330195 C24.4216389,13.969254 23.7446615,13.2974365 22.4100488,12.8367616 C22.3326799,12.798372 22.2746533,12.7791772 22.1972844,12.7599824 Z M20.9206984,10.1111017 L20.9206984,6.34892331 C20.4178008,6.40650767 20.0116144,6.54087118 19.7214812,6.73281906 C19.1992414,7.03993566 18.9477926,7.55819493 18.9477926,8.26840208 C18.9477926,8.99780401 19.6054279,9.61203722 20.9206984,10.1111017 Z" id="path-23"></path>
        <filter x="-9.8%" y="-5.7%" width="119.7%" height="111.4%" filterUnits="objectBoundingBox" id="filter-24">
            <feGaussianBlur stdDeviation="0.5" in="SourceAlpha" result="shadowBlurInner1"></feGaussianBlur>
            <feOffset dx="0" dy="1" in="shadowBlurInner1" result="shadowOffsetInner1"></feOffset>
            <feComposite in="shadowOffsetInner1" in2="SourceAlpha" operator="arithmetic" k2="-1" k3="1" result="shadowInnerInner1"></feComposite>
            <feColorMatrix values="0 0 0 0 0   0 0 0 0 0   0 0 0 0 0  0 0 0 0.5 0" type="matrix" in="shadowInnerInner1"></feColorMatrix>
        </filter>
        <filter x="-45.5%" y="-37.3%" width="209.1%" height="200.0%" filterUnits="objectBoundingBox" id="filter-25">
            <feOffset dx="0" dy="2" in="SourceAlpha" result="shadowOffsetOuter1"></feOffset>
            <feGaussianBlur stdDeviation="2" in="shadowOffsetOuter1" result="shadowBlurOuter1"></feGaussianBlur>
            <feColorMatrix values="0 0 0 0 1   0 0 0 0 1   0 0 0 0 1  0 0 0 1 0" type="matrix" in="shadowBlurOuter1" result="shadowMatrixOuter1"></feColorMatrix>
            <feMerge>
                <feMergeNode in="shadowMatrixOuter1"></feMergeNode>
                <feMergeNode in="SourceGraphic"></feMergeNode>
            </feMerge>
        </filter>
        <path d="M20.4157303,14.75 L44.6853933,17.1507516 L41.0839887,47.1573845 C39.2229024,52.5941282 37.2236644,55.3125 35.0862749,55.3125 C32.9488854,55.3125 29.6259981,52.3497268 25.117613,46.4241804 L20.4157303,14.75 Z" id="path-26"></path>
        <filter x="-123.6%" y="-74.0%" width="347.2%" height="247.9%" filterUnits="objectBoundingBox" id="filter-27">
            <feOffset dx="0" dy="0" in="SourceAlpha" result="shadowOffsetOuter1"></feOffset>
            <feGaussianBlur stdDeviation="10" in="shadowOffsetOuter1" result="shadowBlurOuter1"></feGaussianBlur>
            <feColorMatrix values="0 0 0 0 1   0 0 0 0 0.899228397   0 0 0 0 0.644491793  0 0 0 1 0" type="matrix" in="shadowBlurOuter1"></feColorMatrix>
        </filter>
        <ellipse id="path-28" cx="17.8988764" cy="10.4928862" rx="17.8988764" ry="10.4928862"></ellipse>
        <filter x="-19.6%" y="-23.8%" width="139.1%" height="166.7%" filterUnits="objectBoundingBox" id="filter-29">
            <feOffset dx="0" dy="2" in="SourceAlpha" result="shadowOffsetOuter1"></feOffset>
            <feGaussianBlur stdDeviation="2" in="shadowOffsetOuter1" result="shadowBlurOuter1"></feGaussianBlur>
            <feColorMatrix values="0 0 0 0 0   0 0 0 0 0   0 0 0 0 0  0 0 0 0.5 0" type="matrix" in="shadowBlurOuter1"></feColorMatrix>
        </filter>
        <ellipse id="path-30" cx="14.7232693" cy="8.39430894" rx="14.7232693" ry="8.39430894"></ellipse>
        <filter x="-8.5%" y="-14.9%" width="117.0%" height="129.8%" filterUnits="objectBoundingBox" id="filter-32">
            <feGaussianBlur stdDeviation="1.5" in="SourceAlpha" result="shadowBlurInner1"></feGaussianBlur>
            <feOffset dx="0" dy="1" in="shadowBlurInner1" result="shadowOffsetInner1"></feOffset>
            <feComposite in="shadowOffsetInner1" in2="SourceAlpha" operator="arithmetic" k2="-1" k3="1" result="shadowInnerInner1"></feComposite>
            <feColorMatrix values="0 0 0 0 0   0 0 0 0 0   0 0 0 0 0  0 0 0 0.5 0" type="matrix" in="shadowInnerInner1"></feColorMatrix>
        </filter>
        <path d="M17.5526716,3.93950454 L17.5526716,2.55759408 L18.6237399,2.55759408 L18.6237399,3.93950454 C19.5974383,4.00691481 20.376397,4.29340844 20.9443878,4.7652803 C21.6097484,5.30456243 22.015456,6.19774846 22.1777391,7.42798582 L20.3277121,7.42798582 C20.2303423,6.72017803 19.9869177,6.2314536 19.5974383,5.94495996 C19.3540137,5.75958173 19.0294476,5.64161377 18.6237399,5.59105607 L18.6237399,9.29862071 C19.9057761,9.78734515 20.6035933,10.0569862 20.7009632,10.1243965 C21.8207163,10.7816466 22.3887071,11.7253903 22.3887071,12.9556277 C22.3887071,14.1521599 21.9505428,15.0453459 21.0742142,15.6520383 C20.425082,16.090205 19.6136666,16.3429935 18.6237399,16.4104038 L18.6237399,17.8934297 L17.5526716,17.8934297 L17.5526716,16.4104038 C16.4491467,16.326141 15.6052748,16.0059422 15.0210557,15.432955 C14.3394668,14.7588523 13.9499875,13.7308457 13.8526176,12.3489353 L15.7351012,12.3489353 C15.8000145,13.2252687 16.0109825,13.8656663 16.3842335,14.2364227 C16.6601147,14.5060638 17.0495941,14.6745895 17.5526716,14.7419997 L17.5526716,10.7984991 L15.6864163,10.0906913 C14.5504348,9.45029381 13.9986724,8.50655009 13.9986724,7.25946016 C13.9986724,6.14719076 14.4043801,5.30456243 15.2320237,4.7147226 C15.8486994,4.25970331 16.6114298,4.00691481 17.5526716,3.93950454 Z M18.6237399,11.2029607 L18.6237399,14.7419997 C19.0781325,14.6745895 19.4838401,14.5397689 19.8084063,14.3206856 C20.2627989,14.0173394 20.4899952,13.5791726 20.4899952,13.0230379 C20.4899952,12.2646724 19.9220044,11.6748326 18.8022513,11.270371 C18.737338,11.2366659 18.6886531,11.2198133 18.6237399,11.2029607 Z M17.5526716,8.87730655 L17.5526716,5.5742035 C17.1307356,5.6247612 16.7899412,5.74272916 16.5465166,5.91125483 C16.1083523,6.1808959 15.8973843,6.63591519 15.8973843,7.25946016 C15.8973843,7.89985769 16.4491467,8.43913982 17.5526716,8.87730655 Z" id="path-33"></path>
        <filter x="-11.7%" y="-6.5%" width="123.4%" height="113.0%" filterUnits="objectBoundingBox" id="filter-34">
            <feGaussianBlur stdDeviation="0.5" in="SourceAlpha" result="shadowBlurInner1"></feGaussianBlur>
            <feOffset dx="0" dy="1" in="shadowBlurInner1" result="shadowOffsetInner1"></feOffset>
            <feComposite in="shadowOffsetInner1" in2="SourceAlpha" operator="arithmetic" k2="-1" k3="1" result="shadowInnerInner1"></feComposite>
            <feColorMatrix values="0 0 0 0 0   0 0 0 0 0   0 0 0 0 0  0 0 0 0.5 0" type="matrix" in="shadowInnerInner1"></feColorMatrix>
        </filter>
        <linearGradient x1="12.2626322%" y1="10.3244723%" x2="15.5979081%" y2="79.0827626%" id="linearGradient-35">
            <stop stop-color="#EFDDBB" offset="0%"></stop>
            <stop stop-color="#614B23" offset="100%"></stop>
        </linearGradient>
        <filter x="-9.0%" y="-9.4%" width="118.0%" height="118.9%" filterUnits="objectBoundingBox" id="filter-36">
            <feGaussianBlur stdDeviation="1" in="SourceGraphic"></feGaussianBlur>
        </filter>
        <linearGradient x1="50%" y1="0%" x2="50%" y2="100%" id="linearGradient-37">
            <stop stop-color="#E1C183" offset="0%"></stop>
            <stop stop-color="#FFFFFF" offset="19.2670701%"></stop>
            <stop stop-color="#957A45" offset="100%"></stop>
        </linearGradient>
        <filter x="-7.4%" y="-7.8%" width="114.7%" height="121.9%" filterUnits="objectBoundingBox" id="filter-38">
            <feOffset dx="0" dy="2" in="SourceAlpha" result="shadowOffsetOuter1"></feOffset>
            <feGaussianBlur stdDeviation="2" in="shadowOffsetOuter1" result="shadowBlurOuter1"></feGaussianBlur>
            <feColorMatrix values="0 0 0 0 0   0 0 0 0 0   0 0 0 0 0  0 0 0 0.5 0" type="matrix" in="shadowBlurOuter1" result="shadowMatrixOuter1"></feColorMatrix>
            <feMerge>
                <feMergeNode in="shadowMatrixOuter1"></feMergeNode>
                <feMergeNode in="SourceGraphic"></feMergeNode>
            </feMerge>
        </filter>
        <linearGradient x1="50%" y1="0%" x2="50%" y2="100%" id="linearGradient-39">
            <stop stop-color="#EA0505" offset="0%"></stop>
            <stop stop-color="#D0021B" offset="100%"></stop>
        </linearGradient>
        <path d="M286.094576,244.113856 L276.578024,243.990333 L276.230161,248.708915 L285.57278,248.190118 L285.721865,260.838883 L273,260.690655 L273.198779,257.330827 L282.367467,257.726101 L282.392314,251.475832 L273,251.772288 L273.173932,240.951665 L286.24366,240.92696 L286.094576,244.113856 Z M300.713829,240.852846 L301.111388,260.245972 L287.793186,260.789474 L287.94227,241.124597 L300.713829,240.852846 Z M291.172431,257.355532 L297.732142,257.306122 L297.707295,243.891515 L290.923957,244.336198 L291.172431,257.355532 Z M315.929421,240.852846 L316.326979,260.245972 L303.008777,260.789474 L303.157861,241.124597 L315.929421,240.852846 Z M306.388022,257.355532 L312.947734,257.306122 L312.922886,243.891515 L306.139548,244.336198 L306.388022,257.355532 Z M331.145012,240.852846 L331.54257,260.245972 L318.224368,260.789474 L318.373452,241.124597 L331.145012,240.852846 Z M321.603613,257.355532 L328.163325,257.306122 L328.138477,243.891515 L321.355139,244.336198 L321.603613,257.355532 Z M334.185381,250.01826 L343.204984,249.721805 L343.130442,248.214823 L335.378056,248.486574 L335.154429,246.139635 L342.981358,245.769066 L342.906816,244.385607 L334.533244,244.83029 L334.309618,241.865736 L339.030622,241.791622 L338.111269,240.037594 L342.012309,239.741139 L342.235936,241.742213 L347.429041,241.643394 L347.652667,239.667025 L351.553708,239.96348 L350.708897,241.56928 L355.231122,241.495166 L355.305664,243.767991 L346.435145,244.212675 L346.38545,245.620838 L354.286921,245.225564 L354.510548,247.819549 L346.335756,248.0913 L346.310908,249.598281 L355.678375,249.277121 L355.827459,251.648765 L334.334465,252.933405 L334.185381,250.01826 Z M356.150475,255.972073 L345.143081,256.564984 L336.67012,262 L333.837517,260.07304 L340.297839,256.836735 L333.862365,257.207304 L333.688433,254.390977 L343.503153,254.094522 L343.428611,252.859291 L346.882398,252.9087 L346.733314,253.995704 L355.902002,253.748657 L356.150475,255.972073 Z M345.192776,257.824919 L348.025378,256.564984 L355.703222,259.900107 L352.796078,261.925886 L345.192776,257.824919 Z M371.515151,258.319012 L380.062654,258.244898 L380.186891,260.591837 L359.066608,261.234157 L358.917523,258.442535 L368.061364,258.343716 L368.061364,254.539205 L359.961114,254.835661 L359.812029,251.846402 L368.061364,251.747583 L368.086211,250.092374 L361.601042,250.413534 L361.526499,248.190118 L360.085351,249.277121 L357.42668,247.004296 L362.868259,243.570354 L369.750986,239 L377.006425,243.891515 L381.478955,246.732546 L378.720895,248.980666 L377.379136,247.967777 L377.478525,249.622986 L371.192135,249.944146 L371.266677,251.698174 L378.919674,251.599356 L379.068758,254.168636 L371.366067,254.440387 L371.515151,258.319012 Z M369.701291,242.088077 L362.520395,247.44898 L376.310698,247.152524 L369.701291,242.088077 Z M365.029982,255.379162 L365.452387,257.528464 L362.545243,257.800215 L361.32772,255.552095 L365.029982,255.379162 Z M376.733103,257.45435 L374.024738,257.355532 L374.447143,255.132116 L378.199099,255.305048 L376.733103,257.45435 Z M401.772402,246.164339 L399.78461,246.312567 L399.734916,249.622986 L401.424538,249.548872 L401.772402,260.740064 L395.038759,260.962406 L395.237538,249.771214 L396.92716,249.721805 L396.827771,246.510204 L394.666048,246.683136 L394.516963,243.446831 L396.753229,243.397422 L396.678686,240.235231 L399.884,240.111708 L399.834305,243.372718 L401.673012,243.323308 L401.772402,246.164339 Z M397.647735,257.77551 L399.31251,257.651987 L399.039189,252.63695 L397.647735,252.735768 L397.647735,257.77551 Z M411.115021,260.221267 L408.282418,261.580021 L406.443711,258.46724 L404.55531,261.901182 L401.946333,260.418904 L404.803784,255.725027 L402.84084,252.439313 L402.815992,245.843179 L405.5989,245.892589 L405.251037,251.549946 L406.344322,253.180451 L407.387912,251.500537 L406.866117,244.780881 L402.542671,245.003222 L402.691755,239.864662 L405.847374,240.062299 L405.623747,241.964554 L410.717463,241.421053 L410.965937,244.558539 L409.798109,244.632653 L409.872652,252.216971 L408.009097,255.626208 L411.115021,260.221267 Z M395.187843,240.729323 L393.423678,244.607948 L393.821236,261.35768 L390.665618,261.481203 L390.64077,250.709989 L390.019585,252.044039 L387.534846,251.105263 L389.920196,245.47261 L391.957682,239.765843 L395.187843,240.729323 Z M413.732985,250.01826 L422.752588,249.721805 L422.678046,248.214823 L414.925659,248.486574 L414.702033,246.139635 L422.528961,245.769066 L422.454419,244.385607 L414.080848,244.83029 L413.857222,241.865736 L418.578226,241.791622 L417.658873,240.037594 L421.559913,239.741139 L421.78354,241.742213 L426.976645,241.643394 L427.200271,239.667025 L431.101312,239.96348 L430.2565,241.56928 L434.778726,241.495166 L434.853268,243.767991 L425.982749,244.212675 L425.933054,245.620838 L433.834525,245.225564 L434.058151,247.819549 L425.883359,248.0913 L425.858512,249.598281 L435.225979,249.277121 L435.375063,251.648765 L413.882069,252.933405 L413.732985,250.01826 Z M435.698079,255.972073 L424.690684,256.564984 L416.217724,262 L413.385121,260.07304 L419.845443,256.836735 L413.409969,257.207304 L413.236037,254.390977 L423.050757,254.094522 L422.976214,252.859291 L426.430002,252.9087 L426.280918,253.995704 L435.449605,253.748657 L435.698079,255.972073 Z M424.740379,257.824919 L427.572982,256.564984 L435.250826,259.900107 L432.343681,261.925886 L424.740379,257.824919 Z M454.143831,254.19334 L455.261964,254.168636 L455.336506,256.49087 L443.0122,256.984962 L442.863115,254.267454 L447.58412,254.24275 L447.509578,251.747583 L443.409758,251.895811 L443.260674,249.474758 L447.435035,249.277121 L447.385341,247.44898 L443.136437,247.671321 L442.987352,244.929108 L454.988643,244.780881 L455.063185,247.004296 L450.491265,247.276047 L450.466417,249.153598 L454.715321,248.955961 L454.864406,251.500537 L450.416722,251.648765 L450.391875,254.218045 L451.683939,254.19334 L451.410618,252.439313 L454.193526,252.315789 L454.143831,254.19334 Z M438.614211,240.877551 L459.287241,240.581096 L459.01392,260.814178 L438.91238,261.061224 L438.614211,240.877551 Z M441.794677,258.393126 L456.305554,257.874329 L456.280707,243.372718 L441.595898,243.54565 L441.794677,258.393126 Z M472.9126,254.390977 L483.721215,254.119227 L483.77091,261.03652 L475.372491,261.184748 L475.57127,258.615467 L480.789223,258.813104 L480.664986,256.688507 L472.390804,257.182599 L471.57084,261.530612 L468.191595,261.332975 L469.85637,255.20623 L470.303623,253.131042 L467.6698,253.254565 L467.545563,250.33942 L474.651917,250.215897 L474.378596,248.955961 L477.782688,248.783029 L477.757841,250.166488 L484.168468,250.042965 L484.292705,252.439313 L473.185921,252.982814 L472.9126,254.390977 Z M483.423046,247.868958 L466.974073,248.387755 L466.228651,261.35768 L463.122727,261.184748 L464.14147,248.214823 L463.917844,241.223416 L472.14233,240.976369 L471.918704,239.815252 L475.894287,239.617615 L475.819744,240.877551 L483.596978,240.655209 L483.423046,247.868958 Z M480.466207,243.372718 L466.924378,243.743287 L466.99892,245.867884 L480.540749,245.250269 L480.466207,243.372718 Z M508.353968,252.118153 L500.750666,252.340494 L500.89975,261.332975 L493.967328,261.209452 L494.340039,258.047261 L497.744131,258.393126 L497.495658,252.439313 L488.749376,252.686359 L490.538388,245.349087 L487.159142,245.497315 L486.985211,242.2116 L491.28381,242.162191 L491.830452,239.518797 L495.781187,239.96348 L495.085461,242.088077 L508.801221,241.865736 L508.950305,244.558539 L494.091565,245.200859 L492.575874,249.870032 L497.371421,249.598281 L497.222336,246.016112 L500.626429,245.892589 L500.700971,249.425349 L508.155189,249.030075 L508.353968,252.118153 Z M492.3274,253.649839 L494.886681,254.712137 L490.960793,261.456498 L487.680938,260.270677 L492.3274,253.649839 Z M505.098959,253.353383 L509,260.048335 L505.595907,261.332975 L502.61422,254.24275 L505.098959,253.353383 Z" id="path-40"></path>
        <filter x="-3.0%" y="-21.7%" width="105.9%" height="160.9%" filterUnits="objectBoundingBox" id="filter-41">
            <feOffset dx="0" dy="2" in="SourceAlpha" result="shadowOffsetOuter1"></feOffset>
            <feGaussianBlur stdDeviation="2" in="shadowOffsetOuter1" result="shadowBlurOuter1"></feGaussianBlur>
            <feColorMatrix values="0 0 0 0 0   0 0 0 0 0   0 0 0 0 0  0 0 0 0.5 0" type="matrix" in="shadowBlurOuter1"></feColorMatrix>
        </filter>
        <path d="M241.565928,82.3838973 L234.515753,81.7631272 L235.624271,76.2648775 L209.463244,76.2648775 L213.764294,53.0303384 L220.85881,53.6511085 L219.750292,59.0163361 L245.911319,59.0163361 L241.565928,82.3838973 Z M217.089848,71.7421237 L236.555426,71.7421237 L238.240373,63.5390898 L218.774796,63.5390898 L217.089848,71.7421237 Z M248.084014,48.285881 L248.084014,52.7199533 L209.064177,52.7199533 L209.064177,48.285881 L248.084014,48.285881 Z M208,82.6499417 L249.148191,82.6499417 L249.148191,87.084014 L208,87.084014 L208,82.6499417 Z M292.735123,52.764294 L292.735123,57.1983664 L272.471412,57.1983664 L272.471412,52.764294 L274.644107,52.764294 L273.535589,47.8868145 L280.186698,47.8868145 L281.295216,52.764294 L283.467911,52.764294 L284.576429,47.8868145 L291.138856,47.8868145 L289.985998,52.764294 L292.735123,52.764294 Z M286.749125,71.1656943 L293.400233,87.3500583 L286.749125,87.3500583 L282.581097,76.5752625 L278.45741,87.3500583 L271.806301,87.3500583 L278.45741,71.1656943 L272.249708,71.1656943 L272.249708,66.7316219 L279.033839,66.7316219 L279.033839,57.6417736 L286.128355,58.5285881 L286.128355,66.7316219 L292.956826,66.7316219 L292.956826,71.1656943 L286.749125,71.1656943 Z M252.784131,52.6312719 L252.784131,48.1971995 L271.584597,48.1971995 L271.584597,52.6312719 L270.298716,52.6312719 L270.298716,79.0583431 L271.362894,79.0583431 L271.362894,83.4924154 L270.298716,83.4924154 L270.298716,87.571762 L263.824971,87.571762 L263.824971,83.4924154 L252.784131,83.4924154 L252.784131,79.0583431 L253.715286,79.0583431 L253.715286,53.0746791 L260.233372,53.9614936 L260.233372,58.4842474 L262.805134,58.4842474 L262.805134,62.9183197 L260.233372,62.9183197 L260.233372,68.7712952 L262.805134,68.7712952 L262.805134,73.2053676 L260.233372,73.2053676 L260.233372,79.0583431 L263.824971,79.0583431 L263.824971,52.6312719 L252.784131,52.6312719 Z M297.745624,87.3943991 L297.745624,53.0746791 L304.396733,53.9614936 L304.396733,87.3943991 L297.745624,87.3943991 Z M297.745624,48.1971995 L336.72112,48.1971995 L336.72112,87.3943991 L322.665111,87.3943991 L322.665111,82.9603267 L330.070012,82.9603267 L330.070012,52.6312719 L297.745624,52.6312719 L297.745624,48.1971995 Z M312.023337,55.9568261 L316.812135,55.9568261 L315.348891,68.4609102 L316.812135,81.0093349 L312.023337,81.0093349 L311.136523,71.3873979 L310.205368,81.0093349 L305.416569,81.0093349 L306.879813,68.4609102 L305.416569,55.9568261 L310.205368,55.9568261 L311.136523,65.5787631 L312.023337,55.9568261 Z M324.305718,81.0093349 L323.374562,71.3873979 L322.487748,81.0093349 L317.654609,81.0093349 L319.162194,68.4609102 L317.654609,55.9568261 L322.487748,55.9568261 L323.374562,65.5787631 L324.305718,55.9568261 L329.094516,55.9568261 L327.631272,68.4609102 L329.094516,81.0093349 L324.305718,81.0093349 Z M366.385064,71.210035 L374.144691,71.210035 L380.707118,87.2170362 L342.485414,87.2170362 L351.796966,66.4212369 L359.733956,66.4212369 L352.462077,82.7829638 L371.085181,82.7829638 L366.385064,71.210035 Z M358.8028,47.3990665 L348.028005,68.5495916 L340.268378,68.5495916 L351.087515,47.3990665 L358.8028,47.3990665 Z M382.835473,68.5495916 L375.120187,68.5495916 L364.345391,47.3990665 L372.060677,47.3990665 L382.835473,68.5495916 Z M386.648775,48.1528588 L425.358226,48.1528588 L425.358226,87.571762 L403.143524,87.571762 L403.143524,83.1376896 L418.042007,83.1376896 L418.042007,52.5869312 L386.648775,52.5869312 L386.648775,48.1528588 Z M415.026838,55.8681447 L415.026838,60.302217 L385.850642,60.302217 L385.850642,55.8681447 L415.026838,55.8681447 Z M414.672112,63.5390898 L414.672112,80.033839 L386.648775,80.033839 L386.648775,68.4609102 L393.69895,69.3477246 L393.69895,75.5997666 L407.621937,75.5997666 L407.621937,67.9731622 L386.648775,67.9731622 L386.648775,63.5390898 L414.672112,63.5390898 Z M430.058343,82.3395566 L470.452742,82.3395566 L470.452742,87.1283547 L430.058343,87.1283547 L430.058343,82.3395566 Z M452.982497,64.3372229 L452.982497,81.8074679 L445.444574,81.1423571 L445.444574,47.3103851 L452.982497,47.3103851 L452.982497,59.5484247 L469.654609,59.5484247 L469.654609,64.3372229 L452.982497,64.3372229 Z M498.609102,51.4784131 L514.926488,51.4784131 L514.926488,55.9124854 L474.310385,55.9124854 L474.310385,51.4784131 L490.627771,51.4784131 L490.627771,47 L498.609102,47 L498.609102,51.4784131 Z M498.387398,57.1540257 L498.387398,61.7654609 L513.24154,61.7654609 L513.24154,85.7537923 L502.023337,85.7537923 L502.023337,81.1866978 L506.147025,81.1866978 L506.147025,66.3325554 L498.387398,66.3325554 L498.387398,88.0151692 L490.849475,88.0151692 L490.849475,66.3325554 L483.311552,66.3325554 L483.311552,85.7537923 L476.217036,85.7537923 L476.217036,61.7654609 L490.849475,61.7654609 L490.849475,56.4889148 L498.387398,57.1540257 Z M523.572929,73.2497083 L523.572929,66.9976663 L518.784131,66.9976663 L518.784131,62.5635939 L523.572929,62.5635939 L523.572929,55.5134189 L518.784131,55.5134189 L518.784131,51.0793466 L523.572929,51.0793466 L523.572929,47.487748 L530.667445,47.487748 L530.667445,51.0793466 L534.303384,51.0793466 L534.303384,55.5134189 L530.667445,55.5134189 L530.667445,62.5635939 L534.303384,62.5635939 L534.303384,66.9976663 L530.667445,66.9976663 L530.667445,77.6837806 L519.005834,77.6837806 L519.005834,73.2497083 L523.572929,73.2497083 Z M559.17853,77.6837806 L549.955659,77.6837806 L549.955659,55.5134189 L546.364061,55.5134189 L545.211202,64.8693116 L548.049008,65.6231039 L548.049008,71.210035 L544.50175,70.2788798 L543.526254,77.9054842 L536.786464,77.9054842 L537.983664,68.5052509 L535.766628,67.8844807 L535.766628,62.2975496 L538.648775,63.0956826 L539.624271,55.5134189 L535.766628,55.5134189 L535.766628,51.0793466 L540.156359,51.0793466 L540.599767,47.487748 L547.383897,47.487748 L546.94049,51.0793466 L556.961494,51.0793466 L556.961494,73.2497083 L559.17853,73.2497083 L559.17853,77.6837806 Z M518.074679,87.4387398 L520.912485,79.8121354 L528.007001,79.8121354 L525.169195,87.4387398 L518.074679,87.4387398 Z M529.115519,79.8121354 L535.855309,79.8121354 L538.116686,87.4387398 L531.332555,87.4387398 L529.115519,79.8121354 Z M539.978996,79.8121354 L546.763127,79.8121354 L549.024504,87.4387398 L542.240373,87.4387398 L539.978996,79.8121354 Z M557.626604,79.8121354 L559.887981,87.4387398 L553.103851,87.4387398 L550.886814,79.8121354 L557.626604,79.8121354 Z M564.322054,79.4574096 L572.08168,79.4574096 L572.08168,84.9556593 L570.441074,89.168028 L565.075846,89.168028 L565.96266,86.9509918 L564.322054,86.9509918 L564.322054,79.4574096 Z M278.568261,102.913652 L285.441074,102.913652 L275.154026,142.997666 L268.103851,142.997666 L260.521587,115.462077 L252.894982,142.997666 L245.844807,142.997666 L235.55776,102.913652 L242.430572,102.913652 L249.480747,134.085181 L257.196033,103.224037 L263.8028,103.224037 L271.518086,134.085181 L278.568261,102.913652 Z M293.688448,131.114352 L293.688448,133.065344 C293.688448,134.543376 294.205751,135.799684 295.240373,136.834306 C296.274995,137.868928 297.531303,138.386231 299.009335,138.386231 L313.021004,138.386231 L313.021004,142.820303 L296.792299,142.820303 C294.102281,142.820303 291.796587,141.859597 289.875146,139.938156 C287.983266,138.046276 287.03734,135.755362 287.03734,133.065344 L287.03734,125.305718 C287.03734,122.497458 288.057166,120.043962 290.096849,117.945158 C292.106972,115.935035 294.545688,114.929988 297.413069,114.929988 L302.778296,114.929988 C305.645678,114.929988 308.084393,115.935035 310.094516,117.945158 C312.134199,119.984841 313.154026,122.438336 313.154026,125.305718 L313.154026,131.114352 L293.688448,131.114352 Z M293.688448,125.305718 L293.688448,126.68028 L306.502917,126.68028 L306.502917,125.305718 C306.502917,123.679883 305.926494,122.275774 304.773629,121.093349 C303.591204,119.940484 302.187095,119.364061 300.56126,119.364061 L299.630105,119.364061 C298.033831,119.364061 296.629722,119.940484 295.417736,121.093349 C294.264872,122.275774 293.688448,123.679883 293.688448,125.305718 Z M342.906651,102.824971 L350.001167,102.824971 L350.001167,143.485414 L342.906651,143.485414 L342.906651,124.1972 L325.259043,124.1972 L325.259043,143.485414 L318.164527,143.485414 L318.164527,102.824971 L325.259043,102.824971 L325.259043,119.763127 L342.906651,119.763127 L342.906651,102.824971 Z M371.63944,115.01867 C373.915608,115.01867 375.866581,115.816795 377.492415,117.413069 C379.088689,119.038904 379.886814,121.004656 379.886814,123.310385 L379.886814,134.66161 C379.886814,136.967339 379.088689,138.918312 377.492415,140.514586 C375.866581,142.14042 373.915608,142.953326 371.63944,142.953326 L363.214702,142.953326 C360.938534,142.953326 359.002342,142.14042 357.406068,140.514586 C355.780233,138.918312 354.967328,136.967339 354.967328,134.66161 L354.967328,123.310385 C354.967328,121.004656 355.780233,119.038904 357.406068,117.413069 C359.002342,115.816795 360.938534,115.01867 363.214702,115.01867 L371.63944,115.01867 Z M373.235706,123.310385 C373.235706,122.246202 372.866204,121.329837 372.127188,120.56126 C371.388172,119.822244 370.486586,119.452742 369.422404,119.452742 L365.431739,119.452742 C364.397117,119.452742 363.495531,119.822244 362.726954,120.56126 C361.987939,121.329837 361.618436,122.246202 361.618436,123.310385 L361.618436,134.66161 C361.618436,135.725793 361.987939,136.627379 362.726954,137.366394 C363.495531,138.134971 364.397117,138.519253 365.431739,138.519253 L369.422404,138.519253 C370.486586,138.519253 371.388172,138.134971 372.127188,137.366394 C372.866204,136.627379 373.235706,135.725793 373.235706,134.66161 L373.235706,123.310385 Z M423.340723,123.221704 L423.340723,143.529755 L416.689615,143.529755 L416.689615,123.221704 C416.689615,121.773233 416.364453,120.723846 415.714119,120.073512 C415.182028,119.51186 414.324782,119.231039 413.142357,119.231039 L410.925321,119.231039 C409.831578,119.231039 408.944772,119.674441 408.264877,120.56126 C407.555422,121.448079 407.2007,122.600926 407.2007,124.019837 L407.2007,143.529755 L400.549592,143.529755 L400.549592,123.221704 C400.549592,121.743672 400.23921,120.694285 399.618436,120.073512 C399.056784,119.51186 398.199539,119.231039 397.046674,119.231039 L391.105018,119.231039 L391.105018,143.529755 L384.453909,143.529755 L384.453909,114.796966 L398.02217,114.796966 C400.505263,114.796966 402.589256,115.565531 404.274212,117.102684 C405.900047,115.565531 407.836239,114.796966 410.082847,114.796966 L414.960327,114.796966 C417.620783,114.796966 419.675216,115.565531 421.123687,117.102684 C422.601719,118.580715 423.340723,120.620368 423.340723,123.221704 Z M434.603267,131.114352 L434.603267,133.065344 C434.603267,134.543376 435.12057,135.799684 436.155193,136.834306 C437.189815,137.868928 438.446123,138.386231 439.924154,138.386231 L453.935823,138.386231 L453.935823,142.820303 L437.707118,142.820303 C435.017101,142.820303 432.711406,141.859597 430.789965,139.938156 C428.898085,138.046276 427.952159,135.755362 427.952159,133.065344 L427.952159,125.305718 C427.952159,122.497458 428.971985,120.043962 431.011669,117.945158 C433.021791,115.935035 435.460507,114.929988 438.327888,114.929988 L443.693116,114.929988 C446.560497,114.929988 448.999212,115.935035 451.009335,117.945158 C453.049018,119.984841 454.068845,122.438336 454.068845,125.305718 L454.068845,131.114352 L434.603267,131.114352 Z M434.603267,125.305718 L434.603267,126.68028 L447.417736,126.68028 L447.417736,125.305718 C447.417736,123.679883 446.841313,122.275774 445.688448,121.093349 C444.506023,119.940484 443.101914,119.364061 441.476079,119.364061 L440.544924,119.364061 C438.94865,119.364061 437.544541,119.940484 436.332555,121.093349 C435.179691,122.275774 434.603267,123.679883 434.603267,125.305718 Z M478.411902,103.800467 L478.411902,138.29755 L479.697783,138.29755 L479.697783,142.64294 L458.192532,142.64294 L458.192532,138.29755 L459.700117,138.29755 L459.700117,108.722287 L466.395566,109.387398 L466.395566,115.284714 L470.519253,115.284714 L470.519253,119.763127 L466.395566,119.763127 L466.395566,126.768961 L470.519253,126.768961 L470.519253,131.247375 L466.395566,131.247375 L466.395566,138.29755 L471.716453,138.29755 L471.716453,108.234539 L459.700117,108.234539 L459.700117,103.800467 L478.411902,103.800467 Z M488.388565,106.549592 L497.966161,106.549592 L497.966161,142.731622 L488.964994,142.731622 L488.964994,138.29755 L490.871645,138.29755 L490.871645,110.983664 L488.299883,110.983664 L487.546091,142.864644 L480.983664,142.864644 L481.737456,110.983664 L479.742124,110.983664 L479.742124,106.549592 L481.826138,106.549592 L481.914819,102.869312 L488.477246,102.869312 L488.388565,106.549592 Z M517.875146,107.924154 L542.750292,107.924154 L542.750292,142.731622 L523.329055,142.731622 L523.329055,138.075846 L535.212369,138.075846 L535.212369,112.57993 L517.121354,112.57993 L512.288215,142.953326 L504.794632,142.953326 L509.627771,112.57993 L502.932322,112.57993 L502.932322,107.924154 L510.381564,107.924154 L511.224037,102.647608 L518.71762,102.647608 L517.875146,107.924154 Z M277.681447,184.855309 L277.681447,189.289382 L263.270712,189.289382 L277.23804,193.590432 L277.23804,199 L257.63944,192.747958 L237.996499,199 L237.996499,193.590432 L251.963827,189.289382 L237.597433,189.289382 L237.597433,184.855309 L253.870478,184.855309 L253.870478,181.928821 L261.408401,182.593932 L261.408401,184.855309 L277.681447,184.855309 Z M277.23804,176.829638 L277.23804,181.263711 L238.04084,181.263711 L238.04084,176.829638 L253.870478,176.829638 L253.870478,173.947491 L238.794632,173.947491 L238.794632,169.513419 L253.870478,169.513419 L253.870478,166.852975 L261.408401,167.429405 L261.408401,169.513419 L276.484247,169.513419 L276.484247,173.947491 L261.408401,173.947491 L261.408401,176.829638 L277.23804,176.829638 Z M277.23804,161.975496 L277.23804,166.409568 L238.04084,166.409568 L238.04084,161.975496 L244.647608,161.975496 L243.051342,158.383897 L250.500583,158.383897 L252.096849,161.975496 L263.18203,161.975496 L264.778296,158.383897 L272.227538,158.383897 L270.631272,161.975496 L277.23804,161.975496 Z M312.577596,193.413069 L322.155193,193.413069 L322.155193,198.246208 L304.596266,198.246208 L304.596266,179.933489 L312.577596,180.5986 L312.577596,193.413069 Z M284.110852,198.246208 L287.791132,179.933489 L295.506418,181.21937 L292.092182,198.246208 L284.110852,198.246208 Z M322.066511,174.169195 L322.066511,178.824971 L281.893816,178.824971 L281.893816,174.169195 L322.066511,174.169195 Z M320.381564,159.270712 L320.381564,163.926488 L283.534422,163.926488 L283.534422,159.270712 L320.381564,159.270712 Z M349.424737,163.571762 L349.424737,171.508751 L342.463244,171.508751 L342.463244,159.093349 L364.810968,159.093349 L364.810968,166.985998 L366.495916,166.985998 L366.495916,171.464411 L358.071179,171.464411 L358.071179,163.571762 L349.424737,163.571762 Z M367.781797,198.201867 L358.248541,198.201867 L353.592765,193.989498 L348.715286,198.201867 L339.8028,198.201867 L349.247375,190.043174 L342.463244,183.924154 L342.463244,177.805134 L349.424737,178.470245 L349.424737,181.928821 L353.991832,185.963827 L358.691949,181.928821 L358.691949,177.361727 L342.418903,177.361727 L342.418903,172.838973 L365.653442,172.838973 L365.653442,183.70245 L358.425904,189.865811 L367.781797,198.201867 Z M340.645274,184.145858 L337.408401,184.145858 L337.408401,198.157526 L326.323221,198.157526 L326.323221,193.723454 L330.313886,193.723454 L330.313886,184.145858 L326.234539,184.145858 L326.234539,179.711785 L330.313886,179.711785 L330.313886,170.089848 L326.234539,170.089848 L326.234539,165.655776 L330.313886,165.655776 L330.313886,158.605601 L337.408401,158.605601 L337.408401,165.655776 L340.645274,165.655776 L340.645274,170.089848 L337.408401,170.089848 L337.408401,179.711785 L340.645274,179.711785 L340.645274,184.145858 Z M389.287048,163.217036 L389.287048,168.138856 L382.192532,168.138856 L382.192532,159.004667 L410.082847,159.004667 L410.082847,168.138856 L402.943991,168.138856 L402.943991,163.217036 L389.287048,163.217036 Z M380.330222,168.227538 L373.413069,168.227538 L371.063011,159.004667 L377.935823,159.004667 L380.330222,168.227538 Z M380.330222,169.291715 L377.403734,178.425904 L370.3979,178.425904 L373.324387,169.291715 L380.330222,169.291715 Z M399.662777,169.114352 L410.792299,172.971995 L410.792299,178.78063 L396.248541,173.725788 L381.43874,178.824971 L381.43874,173.016336 L392.568261,169.203034 L392.568261,164.635939 L399.662777,165.256709 L399.662777,169.114352 Z M408.264877,189.865811 L401.613769,189.865811 L401.613769,183.65811 L379.709452,183.65811 L379.709452,189.865811 L373.058343,189.865811 L373.058343,179.224037 L408.264877,179.224037 L408.264877,189.865811 Z M394.208868,185.476079 L394.208868,189.378063 L410.171529,193.147025 L410.171529,198.911319 L390.66161,194.299883 L371.151692,198.911319 L371.151692,193.147025 L387.114352,189.378063 L387.114352,184.633606 L394.208868,185.476079 Z M435.933489,172.484247 L435.933489,177.051342 L415.18203,177.051342 L415.18203,172.484247 L417.221704,172.484247 L416.290548,166.764294 L423.11902,166.764294 L424.050175,172.484247 L427.287048,172.484247 L428.218203,166.764294 L435.046674,166.764294 L434.071179,172.484247 L435.933489,172.484247 Z M435.711785,185.875146 L429.371062,185.875146 L429.371062,198.290548 L421.123687,198.290548 L421.123687,193.856476 L422.099183,193.856476 L422.099183,185.875146 L415.75846,185.875146 L415.75846,181.352392 L422.099183,181.352392 L422.099183,177.672112 L429.371062,178.337223 L429.371062,181.352392 L435.711785,181.352392 L435.711785,185.875146 Z M415.359393,197.980163 L416.201867,187.515753 L420.857643,187.515753 L420.015169,197.980163 L415.359393,197.980163 Z M430.435239,187.515753 L435.091015,187.515753 L435.97783,197.980163 L431.277713,197.980163 L430.435239,187.515753 Z M435.756126,160.689615 L435.756126,165.212369 L415.359393,165.212369 L415.359393,160.689615 L422.099183,160.689615 L422.099183,158.428238 L429.371062,158.428238 L429.371062,160.689615 L435.756126,160.689615 Z M444.180863,173.193699 L455.177363,173.193699 L455.177363,177.627771 L444.180863,177.627771 L444.180863,198.37923 L437.175029,198.37923 L437.175029,159.004667 L454.911319,159.004667 L454.911319,163.483081 L444.180863,163.483081 L444.180863,173.193699 Z M447.107351,198.37923 L447.107351,178.115519 L454.113186,179.002334 L454.113186,198.37923 L447.107351,198.37923 Z M464.577596,177.494749 L464.577596,173.814469 L459.655776,173.814469 L459.655776,169.380397 L464.577596,169.380397 L464.577596,165.92182 L459.655776,165.92182 L459.655776,161.487748 L464.577596,161.487748 L464.577596,158.339557 L471.228705,158.339557 L471.228705,161.487748 L474.775963,161.487748 L474.775963,165.92182 L471.228705,165.92182 L471.228705,169.380397 L474.775963,169.380397 L474.775963,173.814469 L471.228705,173.814469 L471.228705,181.928821 L460.099183,181.928821 L460.099183,177.494749 L464.577596,177.494749 Z M496.990665,177.450408 L499.429405,177.450408 L499.429405,181.884481 L490.073512,181.884481 L490.073512,165.92182 L486.526254,165.92182 L485.595099,172.395566 L488.12252,172.794632 L488.12252,178.15986 L484.841307,177.627771 L484.220537,182.239207 L477.569428,182.239207 L478.367561,176.563594 L475.884481,176.164527 L475.884481,170.7993 L479.121354,171.331389 L479.875146,165.92182 L475.884481,165.92182 L475.884481,161.487748 L480.495916,161.487748 L480.939323,158.339557 L487.590432,158.339557 L487.147025,161.487748 L496.990665,161.487748 L496.990665,177.450408 Z M476.194866,183.03734 L475.396733,184.988331 L498.099183,184.988331 L498.099183,198.246208 L479.963827,198.246208 L479.963827,193.812135 L490.694282,193.812135 L490.694282,189.422404 L473.667445,189.422404 L470.208868,198.37923 L462.493582,198.37923 L465.907818,189.422404 L460.054842,189.422404 L460.054842,184.988331 L467.637106,184.988331 L468.390898,183.03734 L476.194866,183.03734 Z M518.628938,163.350058 L543.504084,163.350058 L543.504084,198.157526 L524.082847,198.157526 L524.082847,193.50175 L535.966161,193.50175 L535.966161,168.005834 L517.875146,168.005834 L513.042007,198.37923 L505.548425,198.37923 L510.381564,168.005834 L503.686114,168.005834 L503.686114,163.350058 L511.135356,163.350058 L511.97783,158.073512 L519.471412,158.073512 L518.628938,163.350058 Z" id="path-42"></path>
        <filter x="-1.1%" y="-2.0%" width="102.2%" height="107.9%" filterUnits="objectBoundingBox" id="filter-43">
            <feMorphology radius="0.5" operator="dilate" in="SourceAlpha" result="shadowSpreadOuter1"></feMorphology>
            <feOffset dx="0" dy="5" in="shadowSpreadOuter1" result="shadowOffsetOuter1"></feOffset>
            <feColorMatrix values="0 0 0 0 0.479963861   0 0 0 0 0   0 0 0 0 0  0 0 0 1 0" type="matrix" in="shadowOffsetOuter1"></feColorMatrix>
        </filter>
    </defs>
    <g id="Page-2-Copy" stroke="none" stroke-width="1" fill="none" fill-rule="evenodd">
        <g id="体验金2" transform="translate(-310.000000, -98.000000)">
            <g id="Group-20" transform="translate(310.000000, 103.000000)">
                <g id="Group-19" transform="translate(248.000000, 0.000000)" fill="url(#linearGradient-1)" opacity="0.569866071">
                    <path d="M236.876135,249.966604 C266.391109,223.785149 285,185.520881 285,142.89813 C285,81.3079514 246.143785,28.8184832 191.672586,8.73588864 C176.345449,3.08503687 159.781995,0 142.5,0 C63.7994232,0 0,63.9776722 0,142.89813 C0,187.998881 20.8355564,228.219631 53.3807627,254.408976 C77.7854417,274.047585 211.741063,272.262838 236.876135,249.966604 Z" id="Combined-Shape"></path>
                </g>
                <g id="Group-18">
                    <g id="Group">
                        <g id="Group-30" transform="translate(378.000000, 274.000000) scale(-1, -1) translate(-378.000000, -274.000000) translate(79.000000, 264.000000)">
                            <g id="Group-6" filter="url(#filter-2)" transform="translate(585.979490, 11.269867) scale(-1, 1) rotate(10.000000) translate(-585.979490, -11.269867) translate(575.479490, 4.769867)">
                                <polygon id="Path-6" fill="url(#linearGradient-3)" points="9.51285225 0.484794539 20.130925 12.6071288 0.11323594 3.22467811"></polygon>
                                <polygon id="Path-6" fill="url(#linearGradient-4)" points="4.5304352 11.1868498 20.2783899 12.5903801 9.09776121e-13 3.15082288"></polygon>
                            </g>
                            <g id="Group-6" filter="url(#filter-5)" transform="translate(10.088308, 9.201451) rotate(30.000000) translate(-10.088308, -9.201451) translate(2.088308, 4.201451)">
                                <polygon id="Path-6" fill="url(#linearGradient-3)" points="7.13008291 0.363363707 15.0885518 9.44930826 0.0848727198 2.41696409"></polygon>
                                <polygon id="Path-6" fill="url(#linearGradient-4)" points="3.3956565 8.3847793 15.1990799 9.43675476 9.09705631e-13 2.36160804"></polygon>
                            </g>
                            <g id="Group-6" filter="url(#filter-6)" opacity="0.71171875" transform="translate(227.373503, 13.853144) rotate(30.000000) translate(-227.373503, -13.853144) translate(222.373503, 10.853144)">
                                <polygon id="Path-6" fill="url(#linearGradient-3)" points="4.27047038 0.217631964 9.03709178 5.65954023 0.0508334112 1.44760919"></polygon>
                                <polygon id="Path-6" fill="url(#linearGradient-4)" points="2.03378428 5.02195446 9.10329114 5.65202148 9.09621035e-13 1.41445441"></polygon>
                            </g>
                        </g>
                        <g id="Group-6" filter="url(#filter-7)" transform="translate(534.500000, 13.500000) scale(-1, 1) rotate(10.000000) translate(-534.500000, -13.500000) translate(524.000000, 7.000000)">
                            <polygon id="Path-6" fill="url(#linearGradient-3)" points="9.52558699 0.465402758 20.157874 12.1028436 0.113387528 3.09569098"></polygon>
                            <polygon id="Path-6" fill="url(#linearGradient-4)" points="4.53650004 10.7393758 20.3055364 12.0867649 9.09776498e-13 3.02478996"></polygon>
                        </g>
                        <g id="Group-6" filter="url(#filter-8)" opacity="0.71171875" transform="translate(165.500000, 7.000000) rotate(30.000000) translate(-165.500000, -7.000000) translate(159.000000, 3.000000)">
                            <polygon id="Path-6" fill="url(#linearGradient-3)" points="5.70158295 0.278568914 12.0655862 7.2442115 0.067868615 1.85293977"></polygon>
                            <polygon id="Path-6" fill="url(#linearGradient-4)" points="2.71534251 6.42810171 12.1539701 7.23458749 9.09663372e-13 1.81050164"></polygon>
                        </g>
                        <g id="Group-8" filter="url(#filter-9)" transform="translate(14.000000, 36.000000)">
                            <g id="Rectangle-7" opacity="0.533705357" transform="translate(37.485714, 42.304348) rotate(-39.000000) translate(-37.485714, -42.304348) " fill="black" fill-opacity="1">
                                <use filter="url(#filter-11)" xlink:href="#path-10"></use>
                            </g>
                            <g id="Group-6" transform="translate(25.106253, 25.685107) rotate(46.000000) translate(-25.106253, -25.685107) translate(3.606253, 11.685107)">
                                <path d="M0,10.9268293 L42.6666667,10.9268293 L42.1762428,19.165016 C38.2439287,25.0550053 31.2962922,28 21.3333333,28 C11.3703745,28 4.42273718,25.0550053 0.490421456,19.165016 L0,10.9268293 Z" id="Rectangle-3" fill="url(#linearGradient-12)"></path>
                                <g id="Oval-5">
                                    <use fill="black" fill-opacity="1" filter="url(#filter-15)" xlink:href="#path-14"></use>
                                    <use fill="url(#linearGradient-13)" fill-rule="evenodd" xlink:href="#path-14"></use>
                                </g>
                                <g id="Rectangle-4" transform="translate(4.129032, 2.048780)">
                                    <mask id="mask-18" fill="white">
                                        <use xlink:href="#path-17"></use>
                                    </mask>
                                    <g id="Mask">
                                        <use fill="url(#linearGradient-16)" fill-rule="evenodd" xlink:href="#path-17"></use>
                                        <use fill="black" fill-opacity="1" filter="url(#filter-19)" xlink:href="#path-17"></use>
                                        <use stroke-opacity="0.235280797" stroke="#582C2C" stroke-width="1" xlink:href="#path-17"></use>
                                    </g>
                                    <polygon fill="#FFFFFF" opacity="0.185100446" mask="url(#mask-18)" points="-17.8924731 0 27.3882859 16.0487805 21.3333333 32.097561 -17.8924731 32.097561"></polygon>
                                </g>
                                <g id="Oval-4" fill="black" fill-opacity="1">
                                    <use filter="url(#filter-21)" xlink:href="#path-20"></use>
                                </g>
                                <g id="$" transform="translate(21.597676, 11.646685) rotate(-85.000000) translate(-21.597676, -11.646685) ">
                                    <use fill="url(#linearGradient-22)" fill-rule="evenodd" xlink:href="#path-23"></use>
                                    <use fill="black" fill-opacity="1" filter="url(#filter-24)" xlink:href="#path-23"></use>
                                </g>
                            </g>
                        </g>
                        <g id="Group-8" filter="url(#filter-25)" opacity="0.9" transform="translate(730.500000, 187.500000) scale(-1, 1) translate(-730.500000, -187.500000) translate(703.000000, 158.000000)">
                            <g id="Rectangle-7" opacity="0.533705357" transform="translate(32.550562, 35.031250) rotate(-39.000000) translate(-32.550562, -35.031250) " fill="black" fill-opacity="1">
                                <use filter="url(#filter-27)" xlink:href="#path-26"></use>
                            </g>
                            <g id="Group-6" transform="translate(22.459710, 22.342463) rotate(46.000000) translate(-22.459710, -22.342463) translate(4.459710, 9.842463)">
                                <path d="M0,9.59349593 L35.7977528,9.59349593 L35.3862824,16.8264277 C32.0870322,21.9976981 26.2578968,24.5833333 17.8988764,24.5833333 C9.53985597,24.5833333 3.71071998,21.9976981 0.411468423,16.8264277 L0,9.59349593 Z" id="Rectangle-3" fill="url(#linearGradient-12)"></path>
                                <g id="Oval-5">
                                    <use fill="black" fill-opacity="1" filter="url(#filter-29)" xlink:href="#path-28"></use>
                                    <use fill="url(#linearGradient-13)" fill-rule="evenodd" xlink:href="#path-28"></use>
                                </g>
                                <g id="Rectangle-4" transform="translate(3.464299, 1.798780)">
                                    <mask id="mask-31" fill="white">
                                        <use xlink:href="#path-30"></use>
                                    </mask>
                                    <g id="Mask">
                                        <use fill="url(#linearGradient-16)" fill-rule="evenodd" xlink:href="#path-30"></use>
                                        <use fill="black" fill-opacity="1" filter="url(#filter-32)" xlink:href="#path-30"></use>
                                        <use stroke-opacity="0.235280797" stroke="#582C2C" stroke-width="1" xlink:href="#path-30"></use>
                                    </g>
                                    <polygon fill="#FFFFFF" opacity="0.185100446" mask="url(#mask-31)" points="-15.0119609 0 22.9790411 14.0904472 17.8988764 28.1808943 -15.0119609 28.1808943"></polygon>
                                </g>
                                <ellipse id="Oval-4" cx="17.8988764" cy="20.6859756" rx="2.30953244" ry="1"></ellipse>
                                <g id="$" transform="translate(18.120662, 10.225512) scale(-1, 1) rotate(-85.000000) translate(-18.120662, -10.225512) ">
                                    <use fill="url(#linearGradient-22)" fill-rule="evenodd" xlink:href="#path-33"></use>
                                    <use fill="black" fill-opacity="1" filter="url(#filter-34)" xlink:href="#path-33"></use>
                                </g>
                            </g>
                        </g>
                        <g id="Group-51" transform="translate(46.000000, 208.500000) rotate(-14.000000) translate(-46.000000, -208.500000) translate(4.000000, 190.000000)">
                            <path d="M7.06846686,0.291084947 C9.69160205,9.59222573 12.8087238,16.6292176 16.419832,21.4020606 C20.0309402,26.1749036 25.6500835,29.4185434 33.2772619,31.13298 C31.485988,31.6061542 30.1506596,31.8760359 29.2712768,31.9426251 C18.2689096,32.7757542 9.85279143,28.4683064 4.15409611,19.622923 C-2.22781601,9.7170663 -1.25635909,3.27312027 7.06846686,0.291084947 Z" id="Path-7" fill="url(#linearGradient-35)" filter="url(#filter-36)"></path>
                            <path d="M68.134153,8.85233905 C52.3983376,21.3802257 56.9070859,18.5761632 43.5701599,27.0369388 C34.6788759,32.6774559 25.1074628,33.8428875 14.8559205,30.5332336 C27.4598037,38.4751287 39.9861292,38.4751287 52.4348969,30.5332336 C64.4460736,22.8705069 60.4945533,24.8502475 72.637608,15.0825206 C75.5191889,12.7646116 78.2520779,10.8956181 80.836275,9.47554009 L80.8362526,9.47549919 C83.1247165,8.21793363 83.9604248,5.34330875 82.7028592,3.0548448 C82.2582019,2.24567642 81.5863574,1.58440595 80.7702375,1.15264005 C79.0593378,0.941171042 74.8473096,3.50773738 68.134153,8.85233905 Z" id="Path-8" fill="url(#linearGradient-37)"></path>
                        </g>
                        <g id="Group-5" filter="url(#filter-38)" transform="translate(697.000000, 43.000000)">
                            <path d="M66.3723394,4 C68.737139,15.1309761 71.5472756,23.552372 74.8027491,29.2641877 C78.0582227,34.9760033 83.123973,38.857772 90,40.9094938 C88.385137,41.4757566 87.1813165,41.7987328 86.3885384,41.8784223 C76.4697231,42.8754548 68.8824538,37.7205927 63.7449861,27.1350362 C57.9915872,15.2803769 58.8673716,7.56869816 66.3723394,4 Z" id="Path-7" fill="url(#linearGradient-35)" transform="translate(75.000000, 23.000000) scale(-1, -1) rotate(-16.000000) translate(-75.000000, -23.000000) "></path>
                            <path d="M51.2790866,22.3167116 C43.9258495,31.1662755 42.8427038,34.5136602 33.6760697,42.8071352 C27.5649803,48.3361185 18.1266546,49.6222793 5.36109284,46.6656175 C17.284674,56.2862771 29.1006499,56.3762799 40.8090205,46.9356256 C50.0836065,39.4573725 47.4253273,38.69135 58.4727348,26.8771883 C63.9540077,21.0154833 70.5106711,17.5058776 78.142725,16.3483711 L78.1427181,16.3483253 C78.6887333,16.2655146 79.0642347,15.7557505 78.9814239,15.2097353 C78.9405171,14.9400149 78.7911878,14.6987171 78.5680491,14.5417726 L72.0385505,9.94925171 C63.7210304,11.5483932 56.8012091,15.6708798 51.2790866,22.3167116 Z" id="Path-8" fill="url(#linearGradient-37)" transform="translate(42.176980, 31.949252) scale(-1, -1) rotate(-16.000000) translate(-42.176980, -31.949252) "></path>
                        </g>
                        <g id="Group-22" transform="translate(214.000000, 225.000000)">
                            <polygon id="Rectangle-2" fill="#D0021B" points="0 1.28395062 23.5769944 1.28395062 23.5769944 52 0 52 5.5398702 26.6419753"></polygon>
                            <polygon id="Rectangle-2" fill="#D0021B" transform="translate(341.211503, 26.641975) scale(-1, 1) translate(-341.211503, -26.641975) " points="329.423006 1.28395062 353 1.28395062 353 52 329.423006 52 334.962876 26.6419753"></polygon>
                            <path d="M18.3376623,4.34075069 C71.0584416,1.80080763 123.779221,0.530836095 176.5,0.530836095 C229.220779,0.530836095 281.941558,1.80080763 334.662338,4.34075069 L334.662338,47.3530964 C235.594749,49.2558879 182.87397,50.2072837 176.5,50.2072837 C123.779221,50.2072837 71.0584416,49.2558879 18.3376623,47.3530964 L18.3376623,4.34075069 Z" id="Rectangle-24" fill="url(#linearGradient-39)"></path>
                        </g>
                        <g id="5000美金-做美国房东">
                            <use fill="black" fill-opacity="1" filter="url(#filter-41)" xlink:href="#path-40"></use>
                            <use fill="#FFFFFF" fill-rule="evenodd" xlink:href="#path-40"></use>
                        </g>
                    </g>
                    <g id="互联网公司上市热,-WeHome助力-美-Copy-3">
                        <use fill="black" fill-opacity="1" filter="url(#filter-43)" xlink:href="#path-42"></use>
                        <use fill="#FFFFFF" fill-rule="evenodd" xlink:href="#path-42"></use>
                    </g>
                </g>
            </g>
        </g>
    </g>
</svg>