<?xml version="1.0" encoding="UTF-8"?>
<svg width="794px" height="297px" viewBox="0 0 794 297" version="1.1" xmlns="http://www.w3.org/2000/svg" xmlns:xlink="http://www.w3.org/1999/xlink">
    <!-- Generator: Sketch 50.2 (55047) - http://www.bohemiancoding.com/sketch -->
    <title>Group 18</title>
    <desc>Created with Sketch.</desc>
    <defs>
        <filter x="-76.2%" y="-107.7%" width="252.4%" height="346.2%" filterUnits="objectBoundingBox" id="filter-1">
            <feOffset dx="0" dy="2" in="SourceAlpha" result="shadowOffsetOuter1"></feOffset>
            <feGaussianBlur stdDeviation="5" in="shadowOffsetOuter1" result="shadowBlurOuter1"></feGaussianBlur>
            <feColorMatrix values="0 0 0 0 0   0 0 0 0 0   0 0 0 0 0  0 0 0 0.5 0" type="matrix" in="shadowBlurOuter1" result="shadowMatrixOuter1"></feColorMatrix>
            <feMerge>
                <feMergeNode in="shadowMatrixOuter1"></feMergeNode>
                <feMergeNode in="SourceGraphic"></feMergeNode>
            </feMerge>
        </filter>
        <linearGradient x1="12.2626322%" y1="10.3244723%" x2="15.4561016%" y2="76.1593553%" id="linearGradient-2">
            <stop stop-color="#DDBD7F" offset="0%"></stop>
            <stop stop-color="#FFFFFF" offset="100%"></stop>
        </linearGradient>
        <linearGradient x1="46.7768085%" y1="41.6451791%" x2="-19.0580746%" y2="44.8386485%" id="linearGradient-3">
            <stop stop-color="#DDBD7F" offset="0%"></stop>
            <stop stop-color="#FFFFFF" offset="100%"></stop>
        </linearGradient>
        <filter x="-100.0%" y="-140.0%" width="300.0%" height="420.0%" filterUnits="objectBoundingBox" id="filter-4">
            <feOffset dx="0" dy="2" in="SourceAlpha" result="shadowOffsetOuter1"></feOffset>
            <feGaussianBlur stdDeviation="5" in="shadowOffsetOuter1" result="shadowBlurOuter1"></feGaussianBlur>
            <feColorMatrix values="0 0 0 0 0   0 0 0 0 0   0 0 0 0 0  0 0 0 0.5 0" type="matrix" in="shadowBlurOuter1" result="shadowMatrixOuter1"></feColorMatrix>
            <feMerge>
                <feMergeNode in="shadowMatrixOuter1"></feMergeNode>
                <feMergeNode in="SourceGraphic"></feMergeNode>
            </feMerge>
        </filter>
        <filter x="-160.0%" y="-233.3%" width="420.0%" height="633.3%" filterUnits="objectBoundingBox" id="filter-5">
            <feOffset dx="0" dy="2" in="SourceAlpha" result="shadowOffsetOuter1"></feOffset>
            <feGaussianBlur stdDeviation="5" in="shadowOffsetOuter1" result="shadowBlurOuter1"></feGaussianBlur>
            <feColorMatrix values="0 0 0 0 0   0 0 0 0 0   0 0 0 0 0  0 0 0 0.5 0" type="matrix" in="shadowBlurOuter1" result="shadowMatrixOuter1"></feColorMatrix>
            <feMerge>
                <feMergeNode in="shadowMatrixOuter1"></feMergeNode>
                <feMergeNode in="SourceGraphic"></feMergeNode>
            </feMerge>
        </filter>
        <filter x="-76.2%" y="-107.7%" width="252.4%" height="346.2%" filterUnits="objectBoundingBox" id="filter-6">
            <feOffset dx="0" dy="2" in="SourceAlpha" result="shadowOffsetOuter1"></feOffset>
            <feGaussianBlur stdDeviation="5" in="shadowOffsetOuter1" result="shadowBlurOuter1"></feGaussianBlur>
            <feColorMatrix values="0 0 0 0 0   0 0 0 0 0   0 0 0 0 0  0 0 0 0.5 0" type="matrix" in="shadowBlurOuter1" result="shadowMatrixOuter1"></feColorMatrix>
            <feMerge>
                <feMergeNode in="shadowMatrixOuter1"></feMergeNode>
                <feMergeNode in="SourceGraphic"></feMergeNode>
            </feMerge>
        </filter>
        <filter x="-123.1%" y="-175.0%" width="346.2%" height="500.0%" filterUnits="objectBoundingBox" id="filter-7">
            <feOffset dx="0" dy="2" in="SourceAlpha" result="shadowOffsetOuter1"></feOffset>
            <feGaussianBlur stdDeviation="5" in="shadowOffsetOuter1" result="shadowBlurOuter1"></feGaussianBlur>
            <feColorMatrix values="0 0 0 0 0   0 0 0 0 0   0 0 0 0 0  0 0 0 0.5 0" type="matrix" in="shadowBlurOuter1" result="shadowMatrixOuter1"></feColorMatrix>
            <feMerge>
                <feMergeNode in="shadowMatrixOuter1"></feMergeNode>
                <feMergeNode in="SourceGraphic"></feMergeNode>
            </feMerge>
        </filter>
        <filter x="-37.5%" y="-26.8%" width="192.2%" height="178.9%" filterUnits="objectBoundingBox" id="filter-8">
            <feOffset dx="0" dy="2" in="SourceAlpha" result="shadowOffsetOuter1"></feOffset>
            <feGaussianBlur stdDeviation="2" in="shadowOffsetOuter1" result="shadowBlurOuter1"></feGaussianBlur>
            <feColorMatrix values="0 0 0 0 0.991279357   0 0 0 0 1   0 0 0 0 0.850299874  0 0 0 1 0" type="matrix" in="shadowBlurOuter1" result="shadowMatrixOuter1"></feColorMatrix>
            <feMerge>
                <feMergeNode in="shadowMatrixOuter1"></feMergeNode>
                <feMergeNode in="SourceGraphic"></feMergeNode>
            </feMerge>
        </filter>
        <path d="M23.1619048,18.2608696 L51.8095238,21.1069672 L47.5584691,56.679914 C45.3616651,63.1251887 43.0017886,66.3478261 40.4788396,66.3478261 C37.9558907,66.3478261 34.0335944,62.8354502 28.7119507,55.8106985 L23.1619048,18.2608696 Z" id="path-9"></path>
        <filter x="-104.7%" y="-62.4%" width="309.4%" height="224.8%" filterUnits="objectBoundingBox" id="filter-10">
            <feOffset dx="0" dy="0" in="SourceAlpha" result="shadowOffsetOuter1"></feOffset>
            <feGaussianBlur stdDeviation="10" in="shadowOffsetOuter1" result="shadowBlurOuter1"></feGaussianBlur>
            <feColorMatrix values="0 0 0 0 1   0 0 0 0 0.899228397   0 0 0 0 0.644491793  0 0 0 1 0" type="matrix" in="shadowBlurOuter1"></feColorMatrix>
        </filter>
        <linearGradient x1="0%" y1="44.4913432%" x2="79.2241351%" y2="44.4913417%" id="linearGradient-11">
            <stop stop-color="#684504" offset="0%"></stop>
            <stop stop-color="#FFFFFF" offset="59.8469085%"></stop>
            <stop stop-color="#846D4D" offset="100%"></stop>
        </linearGradient>
        <linearGradient x1="12.2626322%" y1="10.3244723%" x2="100%" y2="31.4320205%" id="linearGradient-12">
            <stop stop-color="#D0A25C" offset="0%"></stop>
            <stop stop-color="#FFFFFF" offset="49.7900108%"></stop>
            <stop stop-color="#FFFFFF" offset="70.6399025%"></stop>
            <stop stop-color="#DDBD7F" offset="100%"></stop>
        </linearGradient>
        <ellipse id="path-13" cx="21.3333333" cy="11.9512195" rx="21.3333333" ry="11.9512195"></ellipse>
        <filter x="-16.4%" y="-20.9%" width="132.8%" height="158.6%" filterUnits="objectBoundingBox" id="filter-14">
            <feOffset dx="0" dy="2" in="SourceAlpha" result="shadowOffsetOuter1"></feOffset>
            <feGaussianBlur stdDeviation="2" in="shadowOffsetOuter1" result="shadowBlurOuter1"></feGaussianBlur>
            <feColorMatrix values="0 0 0 0 0   0 0 0 0 0   0 0 0 0 0  0 0 0 0.5 0" type="matrix" in="shadowBlurOuter1"></feColorMatrix>
        </filter>
        <linearGradient x1="50%" y1="100%" x2="80.6581286%" y2="30.4219832%" id="linearGradient-15">
            <stop stop-color="#E6CF9B" offset="0%"></stop>
            <stop stop-color="#D0A85F" offset="100%"></stop>
        </linearGradient>
        <ellipse id="path-16" cx="17.5483871" cy="9.56097561" rx="17.5483871" ry="9.56097561"></ellipse>
        <filter x="-7.1%" y="-13.1%" width="114.2%" height="126.1%" filterUnits="objectBoundingBox" id="filter-18">
            <feGaussianBlur stdDeviation="1.5" in="SourceAlpha" result="shadowBlurInner1"></feGaussianBlur>
            <feOffset dx="0" dy="1" in="shadowBlurInner1" result="shadowOffsetInner1"></feOffset>
            <feComposite in="shadowOffsetInner1" in2="SourceAlpha" operator="arithmetic" k2="-1" k3="1" result="shadowInnerInner1"></feComposite>
            <feColorMatrix values="0 0 0 0 0   0 0 0 0 0   0 0 0 0 0  0 0 0 0.5 0" type="matrix" in="shadowInnerInner1"></feColorMatrix>
        </filter>
        <ellipse id="path-19" cx="21.3333333" cy="23.5609756" rx="2.75268817" ry="1.02439024"></ellipse>
        <filter x="-535.8%" y="-1342.3%" width="1171.7%" height="2979.8%" filterUnits="objectBoundingBox" id="filter-20">
            <feMorphology radius="4" operator="dilate" in="SourceAlpha" result="shadowSpreadOuter1"></feMorphology>
            <feOffset dx="0" dy="2" in="shadowSpreadOuter1" result="shadowOffsetOuter1"></feOffset>
            <feGaussianBlur stdDeviation="5.5" in="shadowOffsetOuter1" result="shadowBlurOuter1"></feGaussianBlur>
            <feColorMatrix values="0 0 0 0 1   0 0 0 0 1   0 0 0 0 1  0 0 0 0.5 0" type="matrix" in="shadowBlurOuter1"></feColorMatrix>
        </filter>
        <linearGradient x1="50%" y1="0%" x2="50%" y2="100%" id="linearGradient-21">
            <stop stop-color="#A2855E" offset="0%"></stop>
            <stop stop-color="#9F774A" offset="45.7008671%"></stop>
            <stop stop-color="#9C6532" offset="100%"></stop>
        </linearGradient>
        <path d="M20.9206984,4.4870289 L20.9206984,2.91305631 L22.1972844,2.91305631 L22.1972844,4.4870289 C23.3578172,4.56380805 24.2862435,4.89011944 24.9632209,5.4275735 C25.7562517,6.0418067 26.239807,7.05913045 26.4332291,8.46034995 L24.2282168,8.46034995 C24.1121635,7.65416887 23.8220303,7.09752003 23.3578172,6.77120864 C23.067684,6.56006597 22.6808398,6.42570246 22.1972844,6.3681181 L22.1972844,10.5909714 C23.7253193,11.1476202 24.5570344,11.4547368 24.6730877,11.531516 C26.0077004,12.2801127 26.6846779,13.3550208 26.6846779,14.7562403 C26.6846779,16.1190702 26.1624381,17.136394 25.1179586,17.8274064 C24.3442701,18.3264708 23.3771594,18.6143927 22.1972844,18.6911718 L22.1972844,20.3803131 L20.9206984,20.3803131 L20.9206984,18.6911718 C19.6054279,18.5951979 18.5996328,18.2304969 17.9033131,17.5778741 C17.0909402,16.8100826 16.6267271,15.6392006 16.5106738,14.065228 L18.7543705,14.065228 C18.8317394,15.0633569 19.0831881,15.7927589 19.528059,16.2150442 C19.8568767,16.5221608 20.3210898,16.7141087 20.9206984,16.7908878 L20.9206984,12.2993075 L18.6963439,11.4931264 C17.342389,10.7637245 16.6847537,9.68881637 16.6847537,8.26840208 C16.6847537,7.00154609 17.168309,6.0418067 18.1547619,5.36998913 C18.889766,4.85172987 19.79885,4.56380805 20.9206984,4.4870289 Z M22.1972844,12.7599824 L22.1972844,16.7908878 C22.7388664,16.7141087 23.2224217,16.5605504 23.609266,16.3110181 C24.150848,15.9655119 24.4216389,15.4664475 24.4216389,14.8330195 C24.4216389,13.969254 23.7446615,13.2974365 22.4100488,12.8367616 C22.3326799,12.798372 22.2746533,12.7791772 22.1972844,12.7599824 Z M20.9206984,10.1111017 L20.9206984,6.34892331 C20.4178008,6.40650767 20.0116144,6.54087118 19.7214812,6.73281906 C19.1992414,7.03993566 18.9477926,7.55819493 18.9477926,8.26840208 C18.9477926,8.99780401 19.6054279,9.61203722 20.9206984,10.1111017 Z" id="path-22"></path>
        <filter x="-9.8%" y="-5.7%" width="119.7%" height="111.4%" filterUnits="objectBoundingBox" id="filter-23">
            <feGaussianBlur stdDeviation="0.5" in="SourceAlpha" result="shadowBlurInner1"></feGaussianBlur>
            <feOffset dx="0" dy="1" in="shadowBlurInner1" result="shadowOffsetInner1"></feOffset>
            <feComposite in="shadowOffsetInner1" in2="SourceAlpha" operator="arithmetic" k2="-1" k3="1" result="shadowInnerInner1"></feComposite>
            <feColorMatrix values="0 0 0 0 0   0 0 0 0 0   0 0 0 0 0  0 0 0 0.5 0" type="matrix" in="shadowInnerInner1"></feColorMatrix>
        </filter>
        <filter x="-45.5%" y="-37.3%" width="209.1%" height="200.0%" filterUnits="objectBoundingBox" id="filter-24">
            <feOffset dx="0" dy="2" in="SourceAlpha" result="shadowOffsetOuter1"></feOffset>
            <feGaussianBlur stdDeviation="2" in="shadowOffsetOuter1" result="shadowBlurOuter1"></feGaussianBlur>
            <feColorMatrix values="0 0 0 0 1   0 0 0 0 1   0 0 0 0 1  0 0 0 1 0" type="matrix" in="shadowBlurOuter1" result="shadowMatrixOuter1"></feColorMatrix>
            <feMerge>
                <feMergeNode in="shadowMatrixOuter1"></feMergeNode>
                <feMergeNode in="SourceGraphic"></feMergeNode>
            </feMerge>
        </filter>
        <path d="M20.4157303,14.75 L44.6853933,17.1507516 L41.0839887,47.1573845 C39.2229024,52.5941282 37.2236644,55.3125 35.0862749,55.3125 C32.9488854,55.3125 29.6259981,52.3497268 25.117613,46.4241804 L20.4157303,14.75 Z" id="path-25"></path>
        <filter x="-123.6%" y="-74.0%" width="347.2%" height="247.9%" filterUnits="objectBoundingBox" id="filter-26">
            <feOffset dx="0" dy="0" in="SourceAlpha" result="shadowOffsetOuter1"></feOffset>
            <feGaussianBlur stdDeviation="10" in="shadowOffsetOuter1" result="shadowBlurOuter1"></feGaussianBlur>
            <feColorMatrix values="0 0 0 0 1   0 0 0 0 0.899228397   0 0 0 0 0.644491793  0 0 0 1 0" type="matrix" in="shadowBlurOuter1"></feColorMatrix>
        </filter>
        <ellipse id="path-27" cx="17.8988764" cy="10.4928862" rx="17.8988764" ry="10.4928862"></ellipse>
        <filter x="-19.6%" y="-23.8%" width="139.1%" height="166.7%" filterUnits="objectBoundingBox" id="filter-28">
            <feOffset dx="0" dy="2" in="SourceAlpha" result="shadowOffsetOuter1"></feOffset>
            <feGaussianBlur stdDeviation="2" in="shadowOffsetOuter1" result="shadowBlurOuter1"></feGaussianBlur>
            <feColorMatrix values="0 0 0 0 0   0 0 0 0 0   0 0 0 0 0  0 0 0 0.5 0" type="matrix" in="shadowBlurOuter1"></feColorMatrix>
        </filter>
        <ellipse id="path-29" cx="14.7232693" cy="8.39430894" rx="14.7232693" ry="8.39430894"></ellipse>
        <filter x="-8.5%" y="-14.9%" width="117.0%" height="129.8%" filterUnits="objectBoundingBox" id="filter-31">
            <feGaussianBlur stdDeviation="1.5" in="SourceAlpha" result="shadowBlurInner1"></feGaussianBlur>
            <feOffset dx="0" dy="1" in="shadowBlurInner1" result="shadowOffsetInner1"></feOffset>
            <feComposite in="shadowOffsetInner1" in2="SourceAlpha" operator="arithmetic" k2="-1" k3="1" result="shadowInnerInner1"></feComposite>
            <feColorMatrix values="0 0 0 0 0   0 0 0 0 0   0 0 0 0 0  0 0 0 0.5 0" type="matrix" in="shadowInnerInner1"></feColorMatrix>
        </filter>
        <path d="M17.5526716,3.93950454 L17.5526716,2.55759408 L18.6237399,2.55759408 L18.6237399,3.93950454 C19.5974383,4.00691481 20.376397,4.29340844 20.9443878,4.7652803 C21.6097484,5.30456243 22.015456,6.19774846 22.1777391,7.42798582 L20.3277121,7.42798582 C20.2303423,6.72017803 19.9869177,6.2314536 19.5974383,5.94495996 C19.3540137,5.75958173 19.0294476,5.64161377 18.6237399,5.59105607 L18.6237399,9.29862071 C19.9057761,9.78734515 20.6035933,10.0569862 20.7009632,10.1243965 C21.8207163,10.7816466 22.3887071,11.7253903 22.3887071,12.9556277 C22.3887071,14.1521599 21.9505428,15.0453459 21.0742142,15.6520383 C20.425082,16.090205 19.6136666,16.3429935 18.6237399,16.4104038 L18.6237399,17.8934297 L17.5526716,17.8934297 L17.5526716,16.4104038 C16.4491467,16.326141 15.6052748,16.0059422 15.0210557,15.432955 C14.3394668,14.7588523 13.9499875,13.7308457 13.8526176,12.3489353 L15.7351012,12.3489353 C15.8000145,13.2252687 16.0109825,13.8656663 16.3842335,14.2364227 C16.6601147,14.5060638 17.0495941,14.6745895 17.5526716,14.7419997 L17.5526716,10.7984991 L15.6864163,10.0906913 C14.5504348,9.45029381 13.9986724,8.50655009 13.9986724,7.25946016 C13.9986724,6.14719076 14.4043801,5.30456243 15.2320237,4.7147226 C15.8486994,4.25970331 16.6114298,4.00691481 17.5526716,3.93950454 Z M18.6237399,11.2029607 L18.6237399,14.7419997 C19.0781325,14.6745895 19.4838401,14.5397689 19.8084063,14.3206856 C20.2627989,14.0173394 20.4899952,13.5791726 20.4899952,13.0230379 C20.4899952,12.2646724 19.9220044,11.6748326 18.8022513,11.270371 C18.737338,11.2366659 18.6886531,11.2198133 18.6237399,11.2029607 Z M17.5526716,8.87730655 L17.5526716,5.5742035 C17.1307356,5.6247612 16.7899412,5.74272916 16.5465166,5.91125483 C16.1083523,6.1808959 15.8973843,6.63591519 15.8973843,7.25946016 C15.8973843,7.89985769 16.4491467,8.43913982 17.5526716,8.87730655 Z" id="path-32"></path>
        <filter x="-11.7%" y="-6.5%" width="123.4%" height="113.0%" filterUnits="objectBoundingBox" id="filter-33">
            <feGaussianBlur stdDeviation="0.5" in="SourceAlpha" result="shadowBlurInner1"></feGaussianBlur>
            <feOffset dx="0" dy="1" in="shadowBlurInner1" result="shadowOffsetInner1"></feOffset>
            <feComposite in="shadowOffsetInner1" in2="SourceAlpha" operator="arithmetic" k2="-1" k3="1" result="shadowInnerInner1"></feComposite>
            <feColorMatrix values="0 0 0 0 0   0 0 0 0 0   0 0 0 0 0  0 0 0 0.5 0" type="matrix" in="shadowInnerInner1"></feColorMatrix>
        </filter>
        <linearGradient x1="12.2626322%" y1="10.3244723%" x2="15.5979081%" y2="79.0827626%" id="linearGradient-34">
            <stop stop-color="#EFDDBB" offset="0%"></stop>
            <stop stop-color="#614B23" offset="100%"></stop>
        </linearGradient>
        <filter x="-9.0%" y="-9.4%" width="118.0%" height="118.9%" filterUnits="objectBoundingBox" id="filter-35">
            <feGaussianBlur stdDeviation="1" in="SourceGraphic"></feGaussianBlur>
        </filter>
        <linearGradient x1="50%" y1="0%" x2="50%" y2="100%" id="linearGradient-36">
            <stop stop-color="#E1C183" offset="0%"></stop>
            <stop stop-color="#FFFFFF" offset="19.2670701%"></stop>
            <stop stop-color="#957A45" offset="100%"></stop>
        </linearGradient>
        <filter x="-7.4%" y="-7.8%" width="114.7%" height="121.9%" filterUnits="objectBoundingBox" id="filter-37">
            <feOffset dx="0" dy="2" in="SourceAlpha" result="shadowOffsetOuter1"></feOffset>
            <feGaussianBlur stdDeviation="2" in="shadowOffsetOuter1" result="shadowBlurOuter1"></feGaussianBlur>
            <feColorMatrix values="0 0 0 0 0   0 0 0 0 0   0 0 0 0 0  0 0 0 0.5 0" type="matrix" in="shadowBlurOuter1" result="shadowMatrixOuter1"></feColorMatrix>
            <feMerge>
                <feMergeNode in="shadowMatrixOuter1"></feMergeNode>
                <feMergeNode in="SourceGraphic"></feMergeNode>
            </feMerge>
        </filter>
        <linearGradient x1="55.9036016%" y1="100%" x2="50%" y2="2.87347307%" id="linearGradient-38">
            <stop stop-color="#FFE07F" offset="0%"></stop>
            <stop stop-color="#FFEAAA" offset="8.49275806%"></stop>
            <stop stop-color="#FFFFFF" offset="18.6122652%"></stop>
            <stop stop-color="#FFF9E8" offset="28.1380745%"></stop>
            <stop stop-color="#FFE38E" offset="36.7738956%"></stop>
            <stop stop-color="#FFE181" offset="68.7251626%"></stop>
            <stop stop-color="#FFFFFF" offset="79.4264983%"></stop>
            <stop stop-color="#FFDE75" offset="100%"></stop>
        </linearGradient>
        <path d="M153.558283,129.720156 L149.816219,98.3020557 L130.170386,98.3020557 L130.170386,114.621705 L142.565971,108.959786 L148.529885,120.838714 L130.170386,129.165066 L130.170386,155.36532 C130.170386,157.141617 129.780592,158.732859 129.000991,160.139095 C128.611191,160.953231 128.182417,161.637835 127.714657,162.192928 C127.246897,162.748021 126.701185,163.321608 126.077504,163.913707 C125.453824,164.357782 124.810663,164.801849 124.148003,165.245924 C123.485343,165.689998 122.803202,165.986043 122.101562,166.134068 C120.776241,166.652155 119.411961,166.911194 118.00868,166.911194 L103.859003,166.911194 L103.859003,154.810229 L112.512525,154.810229 L112.512525,137.158364 L105.963914,140.044832 L100,128.276922 L112.512525,122.615003 L112.512525,98.1910377 L102.455729,98.1910377 L102.455729,86.0900732 L112.512525,86.0900732 L112.512525,77.0976133 L103.274305,77.0976133 L103.274305,64.9966488 L127.246899,64.9966488 L129.23487,61 L145.840277,64.4415587 L145.723337,63.2203605 L162.796502,61.4440721 L165.719989,86.2010912 L169.695931,86.2010912 L166.304686,65.3297029 L180.688242,63.3313785 L184.664185,87.8663616 C184.664185,89.4946341 184.235411,91.0488708 183.37785,92.5291185 C182.98805,93.19523 182.559276,93.805823 182.091516,94.3609159 C181.623756,94.9160088 181.078044,95.4525906 180.454363,95.9706773 C179.284963,96.8588259 177.998641,97.4509161 176.595361,97.7469656 C175.89372,97.9690028 175.19209,98.1170253 174.49045,98.1910377 C173.788809,98.2650501 173.08718,98.3020557 172.385539,98.3020557 L167.123263,98.3020557 L169.462052,117.952246 L176.7123,112.512363 L185.248882,122.837039 L171.216144,133.161715 L172.034721,140.377886 L183.728669,160.361131 L168.409597,168.354428 L155.312375,145.81777 L155.312375,144.929625 L139.525545,156.586518 L130.988963,146.37286 L153.558283,129.720156 Z M129.976495,77.5585939 L129.976495,86.5978064 L148.920691,86.5978064 L146.249073,64.9918837 L145.641887,66.6453982 C144.751344,69.9524437 142.869087,72.5980405 139.99506,74.5822678 C137.121033,76.5664951 133.862502,77.5585939 130.219369,77.5585939 L129.976495,77.5585939 Z M274.270776,68.4831834 L274.270776,101.187143 C274.270776,103.016233 273.883312,104.516064 273.108373,105.686681 C272.720903,106.49148 272.294693,107.168233 271.829729,107.71696 C271.364765,108.265687 270.822316,108.832697 270.202364,109.418005 C269.582413,109.856987 268.943097,110.277671 268.284398,110.680071 C267.6257,111.08247 266.947638,111.393411 266.250192,111.612902 C265.552747,111.905556 264.874685,112.088462 264.215986,112.161626 C263.557288,112.23479 262.879226,112.271371 262.18178,112.271371 L244.048286,112.271371 L244.048286,153.425682 L257.299686,153.425682 L257.299686,116.551419 L275.084459,116.551419 L275.084459,153.974406 C275.084459,155.657169 274.696995,157.157 273.922055,158.473944 C273.069622,160.01038 272.023469,161.18098 270.783566,161.985779 C270.163614,162.424761 269.524299,162.863736 268.8656,163.302717 C268.206902,163.741699 267.490093,164.034349 266.715154,164.180676 C265.397757,164.692821 264.080379,164.948889 262.762982,164.948889 L208.246259,164.948889 C206.851368,164.948889 205.495244,164.692821 204.177847,164.180676 C202.705462,163.595367 201.388085,162.863742 200.225675,161.985779 C199.52823,161.546798 198.927661,161.01637 198.42395,160.394479 C197.920239,159.772589 197.474656,159.132417 197.087186,158.473944 C196.699716,157.742309 196.409118,157.010684 196.215383,156.279048 C196.021648,155.547412 195.924782,154.779206 195.924782,153.974406 L195.924782,116.551419 L213.477075,116.551419 L213.477075,153.425682 L226.379753,153.425682 L226.379753,112.49086 L208.59498,112.49086 C207.432571,112.49086 206.076447,112.234792 204.526568,111.722647 C202.976689,111.137338 201.698058,110.405713 200.690637,109.52775 C200.070685,109.088769 199.508862,108.55834 199.005152,107.93645 C198.501441,107.31456 198.055857,106.637806 197.668388,105.906171 C196.893448,104.296572 196.505984,102.760159 196.505984,101.296888 L196.505984,68.7026731 L214.058277,68.7026731 L214.058277,100.748164 L226.379753,100.748164 L226.379753,62.9959419 L244.048286,62.9959419 L244.048286,100.638419 L256.718484,100.638419 L256.718484,68.4831834 L274.270776,68.4831834 Z M364.787522,89.2807378 L347.058105,85.9670414 L348.900123,79.008279 L339.459784,79.008279 L346.482475,84.1997367 L343.604323,87.0716069 L367.665674,98.4486311 L359.031218,109.936112 L332.897597,97.6754353 L321.03961,109.273373 L308.836245,99.9950227 L330.019445,79.008279 L322.651375,79.008279 C320.962851,79.008279 319.389477,78.7137312 317.931206,78.1246266 C316.626437,77.5355221 315.667063,76.6886971 315.053054,75.5841261 C314.669298,74.9950216 314.362298,74.4243351 314.132045,73.8720496 C313.901792,73.3197641 313.709917,72.7490777 313.556415,72.1599732 C313.326161,71.4972306 313.191849,70.8897256 313.153473,70.3374402 C313.115098,69.7851547 313.17266,69.1776497 313.326162,68.5149071 L316.089188,61.9979709 L332.091714,65.3116673 L331.055579,67.5207982 L357.534579,67.5207982 C358.378841,67.5207982 359.165528,67.5576167 359.894664,67.6312548 C360.623799,67.7048928 361.333736,67.8889852 362.024496,68.1835375 C363.406016,68.772642 364.557266,69.5090116 365.478279,70.3926684 C366.24579,71.1290491 366.898165,72.196785 367.435422,73.5959083 C367.742427,74.7741173 367.780802,76.0627641 367.550548,77.4618874 L364.787522,89.2807378 Z M354.28867,109.900576 C355.452682,109.900576 356.888275,110.193291 358.595492,110.778731 C359.216298,111.07145 359.856495,111.364166 360.516102,111.656885 C361.175708,111.949605 361.815905,112.315499 362.436711,112.754579 C363.755925,113.852278 364.76472,114.98655 365.463127,116.157429 C365.851131,116.816048 366.142129,117.511247 366.336131,118.243047 C366.530133,118.974846 366.627133,119.816403 366.627133,120.767742 L366.627133,145.685385 L349.167044,145.685385 L349.167044,122.194743 L308.543238,122.194743 L308.543238,145.685385 L290.850348,145.685385 L290.850348,120.767742 C290.850348,119.304143 291.238347,117.767388 292.014354,116.157429 C292.712761,114.98655 293.721556,113.852278 295.04077,112.754579 C295.661576,112.315499 296.301773,111.949605 296.961379,111.656885 C297.620986,111.364166 298.261183,111.07145 298.881989,110.778731 C300.356404,110.193291 301.714397,109.900576 302.95601,109.900576 L354.28867,109.900576 Z M328.758544,153.814274 L292.517873,166.379216 L285.854266,154.13923 L319.523018,142.549154 L319.523018,125.868111 L338.110975,125.868111 L338.110975,142.657472 L371.779727,154.13923 L365.116119,166.379216 L328.758544,153.814274 Z M300.643381,61.9979709 L312.563463,79.8354187 L301.578289,86.3014935 L310.343055,89.2000788 L301.695153,109.936112 L286.853482,104.91933 L295.618249,84.1832966 L297.488065,84.8522009 L287.4378,69.6903703 L300.643381,61.9979709 Z M484.070304,80.4668044 C484.456571,81.8664511 484.726954,83.413406 484.881461,85.1077152 L483.259147,94.0580433 L467.383642,92.0690815 L467.383642,157.262829 C467.383642,158.809807 466.958754,160.283098 466.108966,161.682744 C465.722699,162.345735 465.278498,162.953467 464.776351,163.505959 C464.274203,164.058452 463.714124,164.518855 463.096097,164.887183 C462.478069,165.329177 461.840738,165.697499 461.184083,165.992162 C460.527429,166.286824 459.851471,166.581482 459.15619,166.876145 C457.842882,167.391804 456.413714,167.64963 454.868645,167.64963 L446.988833,167.64963 L446.988833,155.715859 L449.885822,155.715859 L449.885822,91.5165921 L465.877207,91.5165921 L466.920123,86.4336898 L444.555361,86.4336898 C443.010292,86.4336898 441.600438,86.1390317 440.325756,85.5497067 C439.051074,84.9603818 437.988855,84.1869044 437.139067,83.2292513 C436.289279,82.2715982 435.651947,81.1666305 435.227053,79.914315 C434.802159,78.6619994 434.705594,77.3728704 434.937354,76.0468893 L438.529622,63.671127 L455.448043,66.5440718 L453.014572,74.3894211 L473.872899,74.3894211 C474.56818,74.3894211 475.263451,74.4262533 475.958732,74.499919 C476.654013,74.5735846 477.38791,74.7577459 478.160444,75.0524084 C478.855725,75.3470708 479.493057,75.6417289 480.072458,75.9363914 C480.651859,76.2310539 481.211938,76.6362087 481.752712,77.151868 C482.757007,78.1095211 483.52953,79.2144888 484.070304,80.4668044 Z M426.760307,95.5581802 C428.083251,96.2965567 429.153262,97.2933499 429.970374,98.5485899 C430.787486,99.8038298 431.196036,101.206724 431.196036,102.757315 L431.196036,168.324815 L413.56985,168.324815 L413.56985,107.187551 C411.546525,106.59685 409.97069,105.433924 408.842297,103.69874 C407.713904,101.963555 407.460992,100.099183 408.083554,98.1055662 L417.77212,62.9959419 L434.814657,66.0971074 L426.760307,95.5581802 Z M486.911196,163.041492 L473.647339,163.598519 L469.996736,97.3122237 L483.138907,96.7551961 L486.911196,163.041492 Z M444.546601,163.598519 L431.431765,163.041492 L435.23139,96.7551961 L448.346226,97.3122237 L444.546601,163.598519 Z M541.953849,137.643149 L541.953849,134.235819 L534.931136,134.235819 L534.931136,122.255209 L541.953849,122.255209 L541.953849,117.419 L534.228865,117.419 L534.228865,105.43839 L541.953849,105.43839 L541.953849,99.9426977 L534.931136,99.9426977 L534.931136,87.962088 L541.953849,87.962088 L541.953849,83.4556201 L534.228865,83.4556201 L534.228865,71.4750104 L537.857267,71.4750104 L537.03795,64.8801793 L550.966331,63.671127 L552.019738,71.4750104 L559.978812,71.4750104 L561.149264,63.671127 L574.843554,64.8801793 L573.790147,71.6948381 L580.110589,71.6948381 L580.110589,83.6754478 L568.757203,83.6754478 L568.757203,88.0720018 L571.566288,88.0720018 C573.907204,88.0720018 575.935968,88.9329851 577.652639,90.6549773 C579.369311,92.3769696 580.227634,94.4836307 580.227634,96.9750238 L580.227634,105.43839 L581.632177,105.43839 L581.632177,117.419 L579.993544,117.419 L579.993544,125.442711 C579.993544,127.787552 579.174235,129.839256 577.535594,131.597887 C575.896953,133.356517 573.86819,134.235819 571.449243,134.235819 L568.640158,134.235819 L568.640158,137.643149 L576.716278,136.873752 L579.525363,164.2423 L571.332198,165.011697 L568.640158,139.841426 L568.640158,167.64963 L556.467456,167.64963 L556.467456,134.235819 L554.126551,134.235819 L554.126551,167.64963 L541.953849,167.64963 L541.953849,142.919013 L539.4959,165.011697 L532.824323,164.352214 L532.941368,164.572042 L521.470937,167.64963 L515.735721,149.184103 L510.234596,167.64963 L498.41303,164.79187 L506.95733,136.653924 L499.700527,136.653924 L499.700527,76.6409614 C499.700527,75.0288835 500.051659,73.490105 500.753934,72.0245796 C501.378178,70.7788831 502.197487,69.643118 503.211883,68.6172502 C503.758097,68.1775926 504.304303,67.8112168 504.850516,67.5181117 C505.39673,67.2250067 505.98195,66.931906 506.606195,66.6388009 C507.698622,66.1258671 508.869063,65.869404 510.117551,65.869404 L521.587982,65.869404 C522.836471,65.869404 524.006911,66.1258671 525.099338,66.6388009 C525.723583,66.931906 526.308803,67.2250067 526.855017,67.5181117 C527.40123,67.8112168 527.947436,68.1775926 528.49365,68.6172502 C528.961833,69.1301841 529.410502,69.6614291 529.83967,70.2110011 C530.268838,70.7605731 530.639477,71.3650932 530.951599,72.0245796 C531.653874,73.2702762 532.005006,74.8090547 532.005006,76.6409614 L532.005006,136.653924 L524.514112,136.653924 L531.536825,160.175488 L534.11182,136.873752 L541.953849,137.643149 Z M520.780814,81.8272968 L520.780814,127.28618 L522.769853,133.890376 L522.769853,78.5251988 L507.208549,78.5251988 L507.208549,133.450096 L509.197588,126.8459 L509.197588,81.8272968 L520.780814,81.8272968 Z M555.922196,100.806307 L553.892461,100.806307 L553.892461,106.882972 L555.922196,106.882972 L555.922196,100.806307 Z M569.453765,100.806307 L567.42403,100.806307 L567.42403,106.882972 L569.453765,106.882972 L569.453765,100.806307 Z M555.922196,118.361119 L553.892461,118.361119 L553.892461,123.087414 L555.922196,123.087414 L555.922196,118.361119 Z M569.453765,118.361119 L567.42403,118.361119 L567.42403,123.087414 L569.453765,123.087414 L569.453765,118.361119 Z M555.922196,84.6018645 L553.892461,84.6018645 L553.892461,89.3281601 L555.922196,89.3281601 L555.922196,84.6018645 Z M674.65441,160.588172 L660.485202,168.324815 L651.269458,153.735716 L637.445841,167.109057 L627.423719,157.935608 L644.472846,141.025516 L640.786548,116.047211 L626.962931,116.047211 L626.962931,104.000152 L638.943399,104.000152 L636.639463,88.5268649 L627.769309,88.5268649 L627.769309,76.258759 L634.796314,76.258759 L633.298756,65.6485053 L650.232686,63.5485593 L652.075835,76.258759 L659.218037,76.258759 L655.186149,67.4168809 L668.664176,62.9959419 L673.963229,75.2640478 C674.424018,76.369288 674.63521,77.6771361 674.596811,79.1876312 C674.558412,80.6981262 674.155227,82.1349171 673.387245,83.4980467 C672.619262,84.8611764 671.409708,86.0400817 669.758545,87.034798 C668.107383,88.0295143 665.899466,88.5268649 663.134729,88.5268649 L653.918984,88.5268649 L656.22292,104.000152 L673.156851,104.000152 L673.156851,116.047211 L657.950873,116.047211 L659.448431,126.104847 L664.286697,121.241814 L675,130.96788 L663.82591,141.799181 L674.65441,160.588172 Z M592.251099,91.3537154 L623.992704,91.3537154 L623.992704,103.566479 L617.40926,103.566479 L617.40926,122.053689 L624.933196,122.053689 L624.933196,134.266453 L617.40926,134.266453 L617.40926,156.787237 L623.757581,156.787237 L623.757581,169 L613.647292,169 C611.923048,169 610.355577,168.738567 608.944832,168.215694 C607.220588,167.618125 605.692304,166.796479 604.359934,165.750733 C603.654561,165.153163 603.047166,164.555603 602.53773,163.958033 C602.028295,163.360464 601.499273,162.650861 600.95065,161.829203 C600.558776,161.082241 600.245282,160.241922 600.010158,159.30822 C599.775034,158.374518 599.657474,157.384808 599.657474,156.339062 L599.657474,134.49054 L591.780853,134.49054 L591.780853,122.165733 L599.657474,122.165733 L599.657474,103.790566 L592.251099,103.790566 L592.251099,91.3537154 Z M609.778511,73.9380117 L624.933196,73.9380117 L624.933196,86.6274198 L600.85017,86.6274198 C599.440424,86.6274198 598.128598,86.339027 596.914651,85.7622329 C595.700703,85.1854387 594.682569,84.3971652 593.860218,83.3973886 C593.037867,82.3976121 592.450481,81.2824934 592.098045,80.0519992 C591.745609,78.821505 591.68687,77.5141245 591.921828,76.1298185 L595.563651,63.671127 L612.010596,67.3625911 L609.778511,73.9380117 Z" id="path-39"></path>
        <filter x="-16.3%" y="-83.3%" width="132.7%" height="277.8%" filterUnits="objectBoundingBox" id="filter-40">
            <feMorphology radius="0.5" operator="dilate" in="SourceAlpha" result="shadowSpreadOuter1"></feMorphology>
            <feOffset dx="0" dy="8" in="shadowSpreadOuter1" result="shadowOffsetOuter1"></feOffset>
            <feGaussianBlur stdDeviation="1.5" in="shadowOffsetOuter1" result="shadowBlurOuter1"></feGaussianBlur>
            <feComposite in="shadowBlurOuter1" in2="SourceAlpha" operator="out" result="shadowBlurOuter1"></feComposite>
            <feColorMatrix values="0 0 0 0 0.439215686   0 0 0 0 0   0 0 0 0 0  0 0 0 1 0" type="matrix" in="shadowBlurOuter1" result="shadowMatrixOuter1"></feColorMatrix>
            <feOffset dx="0" dy="0" in="SourceAlpha" result="shadowOffsetOuter2"></feOffset>
            <feGaussianBlur stdDeviation="30" in="shadowOffsetOuter2" result="shadowBlurOuter2"></feGaussianBlur>
            <feComposite in="shadowBlurOuter2" in2="SourceAlpha" operator="out" result="shadowBlurOuter2"></feComposite>
            <feColorMatrix values="0 0 0 0 1   0 0 0 0 1   0 0 0 0 1  0 0 0 0.2 0" type="matrix" in="shadowBlurOuter2" result="shadowMatrixOuter2"></feColorMatrix>
            <feMerge>
                <feMergeNode in="shadowMatrixOuter1"></feMergeNode>
                <feMergeNode in="shadowMatrixOuter2"></feMergeNode>
            </feMerge>
        </filter>
        <path d="M129.968001,213.776 L141.712001,213.776 L141.712001,216.976 L129.968001,216.976 L129.968001,229.264 L124.528001,229.264 L124.528001,216.976 L112.784001,216.976 L112.784001,213.776 L124.528001,213.776 L124.528001,205.296 L113.136001,205.296 L113.136001,202.096 L124.528001,202.096 L124.528001,199.824 L129.968001,199.824 L129.968001,202.096 L141.360001,202.096 L141.360001,205.296 L129.968001,205.296 L129.968001,213.776 Z M112.944001,228.88 L116.304001,217.712 L121.392001,217.712 L118.320001,228.88 L112.944001,228.88 Z M119.120001,206.032 L120.976001,213.04 L116.016001,213.04 L114.128001,206.032 L119.120001,206.032 Z M133.168001,217.712 L138.224001,217.712 L141.616001,228.88 L136.208001,228.88 L133.168001,217.712 Z M138.544001,213.04 L133.552001,213.04 L135.408001,206.032 L140.400001,206.032 L138.544001,213.04 Z M169.108,204.72 L176.724,204.72 L176.724,207.92 L168.916,207.92 L167.54,228.816 L162.996,228.816 L164.34,207.92 L162.9,207.92 L162.9,204.72 L164.564,204.72 L164.852,200.08 L169.428,200.08 L169.108,204.72 Z M157.396,200.08 L157.396,201.616 L162.42,201.616 L162.42,204.816 L147.764,204.816 L147.764,201.616 L152.276,201.616 L152.276,200.08 L157.396,200.08 Z M175.668,200.624 L175.668,203.696 L170.964,203.696 L170.964,200.624 L175.668,200.624 Z M157.94,219.792 L161.108,219.792 L162.324,228.656 L159.156,228.656 L157.94,219.792 Z M148.98,219.792 L152.148,219.792 L150.932,228.656 L147.764,228.656 L148.98,219.792 Z M152.788,225.616 L152.788,218.736 L157.524,219.152 L157.524,228.816 L151.86,228.816 L151.86,225.616 L152.788,225.616 Z M174.548,209.584 L174.548,225.616 L176.532,225.616 L176.532,228.816 L169.812,228.816 L169.812,209.584 L174.548,209.584 Z M148.276,209.904 L153.3,210.544 L153.3,215.184 L156.468,215.184 L156.468,209.52 L148.276,209.52 L148.276,206.32 L161.396,206.32 L161.396,218.384 L148.276,218.384 L148.276,209.904 Z M211,204.368 L211,207.568 L190.52,207.568 L190.52,204.368 L193.72,204.368 L192.76,200.368 L197.944,200.368 L198.904,204.368 L203.736,204.368 L204.696,200.368 L209.912,200.368 L208.952,204.368 L211,204.368 Z M188.792,200.496 L188.792,206.256 L183.512,206.256 L183.512,200.496 L188.792,200.496 Z M188.632,225.52 L211.32,225.52 L211.32,228.72 L183.512,228.72 L183.512,210.992 L181.848,210.992 L181.848,207.792 L188.632,207.792 L188.632,225.52 Z M190.36,224.304 L194.776,216.368 L190.296,216.368 L190.296,213.168 L198.2,213.168 L198.2,207.984 L203.32,208.368 L203.32,213.168 L211.224,213.168 L211.224,216.368 L206.744,216.368 L211.16,224.304 L205.72,224.304 L201.304,216.368 L200.216,216.368 L195.8,224.304 L190.36,224.304 Z M235.548,216.752 L235.548,222.768 C235.548,224.581342 234.950673,226.053328 233.756,227.184 C232.518661,228.357339 230.833344,228.944 228.7,228.944 L217.532,228.944 L217.532,225.744 L227.132,225.744 C228.36934,225.744 229.286664,225.477336 229.884,224.944 C230.481337,224.474664 230.78,223.749338 230.78,222.768 L230.78,216.752 C230.78,214.853324 229.830676,213.904 227.932,213.904 L217.532,213.904 L217.532,200.4 L235.516,200.4 L235.516,203.6 L222.332,203.6 L222.332,210.704 L229.5,210.704 C231.228009,210.704 232.657328,211.237328 233.788,212.304 C234.96134,213.413339 235.548,214.895991 235.548,216.752 Z M255.2,200.4 C257.034676,200.4 258.591994,201.039994 259.872,202.32 C261.152007,203.600006 261.792,205.157324 261.792,206.992 L261.792,222.384 C261.792,224.197342 261.152007,225.743994 259.872,227.024 C258.591994,228.304006 257.034676,228.944 255.2,228.944 L248.768,228.944 C246.933324,228.944 245.376007,228.304006 244.096,227.024 C242.815994,225.743994 242.176,224.197342 242.176,222.384 L242.176,206.992 C242.176,205.157324 242.815994,203.600006 244.096,202.32 C245.376007,201.039994 246.933324,200.4 248.768,200.4 L255.2,200.4 Z M256.992,206.992 C256.992,206.031995 256.672003,205.221337 256.032,204.56 C255.370664,203.919997 254.560005,203.6 253.6,203.6 L250.368,203.6 C249.429329,203.6 248.629337,203.930663 247.968,204.592 C247.306664,205.253337 246.976,206.053329 246.976,206.992 L246.976,222.384 C246.976,223.322671 247.306664,224.122663 247.968,224.784 C248.629337,225.424003 249.429329,225.744 250.368,225.744 L253.6,225.744 C254.560005,225.744 255.370664,225.424003 256.032,224.784 C256.672003,224.143997 256.992,223.344005 256.992,222.384 L256.992,206.992 Z M281.476,200.4 C283.310676,200.4 284.867994,201.039994 286.148,202.32 C287.428007,203.600006 288.068,205.157324 288.068,206.992 L288.068,222.384 C288.068,224.197342 287.428007,225.743994 286.148,227.024 C284.867994,228.304006 283.310676,228.944 281.476,228.944 L275.044,228.944 C273.209324,228.944 271.652007,228.304006 270.372,227.024 C269.091994,225.743994 268.452,224.197342 268.452,222.384 L268.452,206.992 C268.452,205.157324 269.091994,203.600006 270.372,202.32 C271.652007,201.039994 273.209324,200.4 275.044,200.4 L281.476,200.4 Z M283.268,206.992 C283.268,206.031995 282.948003,205.221337 282.308,204.56 C281.646664,203.919997 280.836005,203.6 279.876,203.6 L276.644,203.6 C275.705329,203.6 274.905337,203.930663 274.244,204.592 C273.582664,205.253337 273.252,206.053329 273.252,206.992 L273.252,222.384 C273.252,223.322671 273.582664,224.122663 274.244,224.784 C274.905337,225.424003 275.705329,225.744 276.644,225.744 L279.876,225.744 C280.836005,225.744 281.646664,225.424003 282.308,224.784 C282.948003,224.143997 283.268,223.344005 283.268,222.384 L283.268,206.992 Z M307.752,200.4 C309.586676,200.4 311.143994,201.039994 312.424,202.32 C313.704007,203.600006 314.344,205.157324 314.344,206.992 L314.344,222.384 C314.344,224.197342 313.704007,225.743994 312.424,227.024 C311.143994,228.304006 309.586676,228.944 307.752,228.944 L301.32,228.944 C299.485324,228.944 297.928007,228.304006 296.648,227.024 C295.367994,225.743994 294.728,224.197342 294.728,222.384 L294.728,206.992 C294.728,205.157324 295.367994,203.600006 296.648,202.32 C297.928007,201.039994 299.485324,200.4 301.32,200.4 L307.752,200.4 Z M309.544,206.992 C309.544,206.031995 309.224003,205.221337 308.584,204.56 C307.922663,203.919997 307.112005,203.6 306.152,203.6 L302.92,203.6 C301.981329,203.6 301.181337,203.930663 300.52,204.592 C299.858663,205.253337 299.528,206.053329 299.528,206.992 L299.528,222.384 C299.528,223.322671 299.858663,224.122663 300.52,224.784 C301.181337,225.424003 301.981329,225.744 302.92,225.744 L306.152,225.744 C307.112005,225.744 307.922663,225.424003 308.584,224.784 C309.224003,224.143997 309.544,223.344005 309.544,222.384 L309.544,206.992 Z M349.548,219.216 L349.548,222.416 L339.148,222.416 L349.228,225.52 L349.228,229.424 L335.084,224.912 L320.908,229.424 L320.908,225.52 L330.988,222.416 L320.62,222.416 L320.62,219.216 L332.364,219.216 L332.364,217.104 L337.804,217.584 L337.804,219.216 L349.548,219.216 Z M349.228,213.424 L349.228,216.624 L320.94,216.624 L320.94,213.424 L332.364,213.424 L332.364,211.344 L321.484,211.344 L321.484,208.144 L332.364,208.144 L332.364,206.224 L337.804,206.64 L337.804,208.144 L348.684,208.144 L348.684,211.344 L337.804,211.344 L337.804,213.424 L349.228,213.424 Z M349.228,202.704 L349.228,205.904 L320.94,205.904 L320.94,202.704 L325.708,202.704 L324.556,200.112 L329.932,200.112 L331.084,202.704 L339.084,202.704 L340.236,200.112 L345.612,200.112 L344.46,202.704 L349.228,202.704 Z M372.624,225.456 L384.432,225.456 L384.432,228.656 L355.376,228.656 L355.376,225.456 L367.184,225.456 L367.184,220.4 L356.016,220.4 L356.016,217.2 L367.184,217.2 L367.184,214.544 L372.624,215.024 L372.624,217.2 L383.792,217.2 L383.792,220.4 L372.624,220.4 L372.624,225.456 Z M357.648,214.224 L357.648,211.024 L382.16,211.024 L382.16,214.224 L357.648,214.224 Z M380.4,224.752 L375.792,224.752 L377.264,221.104 L381.872,221.104 L380.4,224.752 Z M362.416,221.104 L363.92,224.752 L359.28,224.752 L357.808,221.104 L362.416,221.104 Z M384.368,211.92 L369.936,204.336 L355.44,211.952 L355.44,207.056 L369.936,199.44 L384.368,207.056 L384.368,211.92 Z M405.844,223.152 L405.844,227.12 L404.66,230.16 L400.788,230.16 L401.428,228.56 L400.244,228.56 L400.244,223.152 L405.844,223.152 Z M445.88,213.072 L453.88,213.072 L453.88,216.176 L432.248,216.176 L432.248,213.072 L440.28,213.072 L440.28,211.376 L445.88,211.376 L445.88,213.072 Z M440.312,216.944 L439.928,219.024 L453.336,219.024 L453.336,228.848 L444.152,228.848 L444.152,225.712 L447.864,225.712 L447.864,222.128 L439.32,222.128 L438.072,228.88 L432.472,228.88 L434.84,216.496 L440.312,216.944 Z M453.528,201.328 L453.528,210.768 L430.904,210.768 L430.904,228.88 L425.464,228.88 L425.464,204.848 L430.904,205.328 L430.904,207.568 L448.088,207.568 L448.088,204.528 L425.464,204.528 L425.464,201.328 L436.984,201.328 L436.984,199.952 L442.424,199.952 L442.424,201.328 L453.528,201.328 Z M460.348,229.392 L460.348,212.208 L488.924,212.208 L488.924,215.408 L465.788,215.408 L465.788,229.392 L460.348,229.392 Z M477.308,201.616 L489.308,201.616 L489.308,204.88 L459.42,204.88 L459.42,201.616 L471.42,201.616 L471.42,199.792 L477.308,199.792 L477.308,201.616 Z M469.052,205.936 L471.164,211.888 L465.276,211.888 L463.164,205.936 L469.052,205.936 Z M480.636,205.936 L486.524,205.936 L484.412,211.888 L478.524,211.888 L480.636,205.936 Z M494.56,228.944 L499.328,215.12 L505.056,215.536 L500.544,228.944 L494.56,228.944 Z M524.64,214.8 L520.384,214.8 L520.384,228.944 L507.712,228.944 L507.712,225.744 L514.944,225.744 L514.944,214.8 L493.664,214.8 L500.256,200.272 L506.144,200.272 L501.024,211.568 L517.248,211.568 L512.128,200.272 L518.048,200.272 L524.64,214.8 Z M541.892,200.688 L559.044,200.688 L559.044,203.888 L541.892,203.888 L541.892,200.688 Z M541.892,228.592 L541.892,225.392 L559.044,225.392 L559.044,228.592 L541.892,228.592 Z M547.748,204.208 L553.188,204.688 L553.188,225.072 L547.748,224.592 L547.748,204.208 Z M529.828,228.592 L529.828,225.392 L540.484,225.392 L540.484,228.592 L529.828,228.592 Z M539.62,210.416 L536.228,219.536 L540.484,219.536 L540.484,222.672 L529.54,222.672 L533.284,212.4 L529.54,212.4 L533.764,200.112 L539.364,200.112 L535.844,210.416 L539.62,210.416 Z M576.712,202 L581.416,202 L578.28,208.528 L580.776,208.528 L580.776,211.728 L572.936,211.728 L571.08,214.704 L580.168,214.704 L580.168,228.592 L566.248,228.592 L566.248,218.192 L571.208,218.832 L571.208,220.08 L574.376,220.08 L574.376,223.216 L571.208,223.216 L571.208,225.456 L575.208,225.456 L575.208,217.84 L564.136,217.84 L567.976,211.728 L564.552,211.728 L564.552,208.528 L568.168,208.528 L568.168,205.2 L565.192,205.2 L565.192,202 L568.168,202 L568.168,200.176 L572.968,200.176 L572.968,202 L575.528,202 L575.528,204.4 L576.712,202 Z M572.968,205.2 L572.968,208.528 L573.544,208.528 L575.176,205.2 L572.968,205.2 Z M581.928,229.04 L581.928,204.144 L586.792,204.784 L586.792,229.04 L581.928,229.04 Z M593.128,200.528 L593.128,211.984 L592.136,215.024 L593.128,215.024 L593.128,227.632 L587.496,227.632 L587.496,224.336 L588.68,224.336 L588.68,215.024 L587.464,215.024 L588.68,211.44 L588.68,203.824 L581.928,203.824 L581.928,200.528 L593.128,200.528 Z M622.316,213.072 L622.316,216.272 L613.164,216.272 L613.164,213.072 L622.316,213.072 Z M606.54,218.384 L606.54,200.112 L611.66,200.112 L611.66,218.48 L610.156,229.232 L605.036,229.232 L606.54,218.384 Z M599.884,225.616 L599.884,202.192 L604.684,202.192 L604.684,225.616 L599.884,225.616 Z M613.26,200.816 L627.948,200.816 L627.948,228.528 L613.26,228.528 L613.26,225.328 L622.668,225.328 L622.668,204.016 L613.26,204.016 L613.26,200.816 Z M650.575999,225.68 L650.575999,207.44 L655.695999,207.44 L655.695999,228.88 L649.295999,228.88 L649.295999,225.68 L650.575999,225.68 Z M648.111999,203.792 L648.111999,212.24 L643.343999,212.24 L643.343999,200.592 L662.927999,200.592 L662.927999,212.24 L658.159999,212.24 L658.159999,203.792 L648.111999,203.792 Z M642.319999,228.56 L644.079999,215.248 L648.815999,215.248 L647.087999,228.56 L642.319999,228.56 Z M662.095999,215.248 L663.855999,228.56 L659.183999,228.56 L657.423999,215.248 L662.095999,215.248 Z M633.135999,211.952 L636.335999,200.368 L641.615999,200.368 L638.575999,211.952 L633.135999,211.952 Z M635.311999,228.944 L635.311999,212.272 L640.431999,212.272 L640.431999,228.944 L635.311999,228.944 Z" id="path-41"></path>
        <filter x="-0.5%" y="-6.5%" width="101.1%" height="126.0%" filterUnits="objectBoundingBox" id="filter-42">
            <feOffset dx="0" dy="3" in="SourceAlpha" result="shadowOffsetOuter1"></feOffset>
            <feGaussianBlur stdDeviation="0.5" in="shadowOffsetOuter1" result="shadowBlurOuter1"></feGaussianBlur>
            <feColorMatrix values="0 0 0 0 0.439215686   0 0 0 0 0   0 0 0 0 0  0 0 0 1 0" type="matrix" in="shadowBlurOuter1"></feColorMatrix>
        </filter>
    </defs>
    <g id="Page-2-Copy" stroke="none" stroke-width="1" fill="none" fill-rule="evenodd">
        <g id="体验金2" transform="translate(-312.000000, -80.000000)">
            <g id="Group-18" transform="translate(312.000000, 85.000000)">
                <g id="Group-30" transform="translate(378.000000, 274.000000) scale(-1, -1) translate(-378.000000, -274.000000) translate(79.000000, 264.000000)">
                    <g id="Group-6" filter="url(#filter-1)" transform="translate(585.979490, 11.269867) scale(-1, 1) rotate(10.000000) translate(-585.979490, -11.269867) translate(575.479490, 4.769867)">
                        <polygon id="Path-6" fill="url(#linearGradient-2)" points="9.51285225 0.484794539 20.130925 12.6071288 0.11323594 3.22467811"></polygon>
                        <polygon id="Path-6" fill="url(#linearGradient-3)" points="4.5304352 11.1868498 20.2783899 12.5903801 9.09776121e-13 3.15082288"></polygon>
                    </g>
                    <g id="Group-6" filter="url(#filter-4)" transform="translate(10.088308, 9.201451) rotate(30.000000) translate(-10.088308, -9.201451) translate(2.088308, 4.201451)">
                        <polygon id="Path-6" fill="url(#linearGradient-2)" points="7.13008291 0.363363707 15.0885518 9.44930826 0.0848727198 2.41696409"></polygon>
                        <polygon id="Path-6" fill="url(#linearGradient-3)" points="3.3956565 8.3847793 15.1990799 9.43675476 9.09705631e-13 2.36160804"></polygon>
                    </g>
                    <g id="Group-6" filter="url(#filter-5)" opacity="0.71171875" transform="translate(227.373503, 13.853144) rotate(30.000000) translate(-227.373503, -13.853144) translate(222.373503, 10.853144)">
                        <polygon id="Path-6" fill="url(#linearGradient-2)" points="4.27047038 0.217631964 9.03709178 5.65954023 0.0508334112 1.44760919"></polygon>
                        <polygon id="Path-6" fill="url(#linearGradient-3)" points="2.03378428 5.02195446 9.10329114 5.65202148 9.09621035e-13 1.41445441"></polygon>
                    </g>
                </g>
                <g id="Group-6" filter="url(#filter-6)" transform="translate(534.500000, 13.500000) scale(-1, 1) rotate(10.000000) translate(-534.500000, -13.500000) translate(524.000000, 7.000000)">
                    <polygon id="Path-6" fill="url(#linearGradient-2)" points="9.52558699 0.465402758 20.157874 12.1028436 0.113387528 3.09569098"></polygon>
                    <polygon id="Path-6" fill="url(#linearGradient-3)" points="4.53650004 10.7393758 20.3055364 12.0867649 9.09776498e-13 3.02478996"></polygon>
                </g>
                <g id="Group-6" filter="url(#filter-7)" opacity="0.71171875" transform="translate(165.500000, 7.000000) rotate(30.000000) translate(-165.500000, -7.000000) translate(159.000000, 3.000000)">
                    <polygon id="Path-6" fill="url(#linearGradient-2)" points="5.70158295 0.278568914 12.0655862 7.2442115 0.067868615 1.85293977"></polygon>
                    <polygon id="Path-6" fill="url(#linearGradient-3)" points="2.71534251 6.42810171 12.1539701 7.23458749 9.09663372e-13 1.81050164"></polygon>
                </g>
                <g id="Group-8" filter="url(#filter-8)" transform="translate(14.000000, 36.000000)">
                    <g id="Rectangle-7" opacity="0.533705357" transform="translate(37.485714, 42.304348) rotate(-39.000000) translate(-37.485714, -42.304348) " fill="black" fill-opacity="1">
                        <use filter="url(#filter-10)" xlink:href="#path-9"></use>
                    </g>
                    <g id="Group-6" transform="translate(25.106253, 25.685107) rotate(46.000000) translate(-25.106253, -25.685107) translate(3.606253, 11.685107)">
                        <path d="M0,10.9268293 L42.6666667,10.9268293 L42.1762428,19.165016 C38.2439287,25.0550053 31.2962922,28 21.3333333,28 C11.3703745,28 4.42273718,25.0550053 0.490421456,19.165016 L0,10.9268293 Z" id="Rectangle-3" fill="url(#linearGradient-11)"></path>
                        <g id="Oval-5">
                            <use fill="black" fill-opacity="1" filter="url(#filter-14)" xlink:href="#path-13"></use>
                            <use fill="url(#linearGradient-12)" fill-rule="evenodd" xlink:href="#path-13"></use>
                        </g>
                        <g id="Rectangle-4" transform="translate(4.129032, 2.048780)">
                            <mask id="mask-17" fill="white">
                                <use xlink:href="#path-16"></use>
                            </mask>
                            <g id="Mask">
                                <use fill="url(#linearGradient-15)" fill-rule="evenodd" xlink:href="#path-16"></use>
                                <use fill="black" fill-opacity="1" filter="url(#filter-18)" xlink:href="#path-16"></use>
                                <use stroke-opacity="0.235280797" stroke="#582C2C" stroke-width="1" xlink:href="#path-16"></use>
                            </g>
                            <polygon fill="#FFFFFF" opacity="0.185100446" mask="url(#mask-17)" points="-17.8924731 0 27.3882859 16.0487805 21.3333333 32.097561 -17.8924731 32.097561"></polygon>
                        </g>
                        <g id="Oval-4" fill="black" fill-opacity="1">
                            <use filter="url(#filter-20)" xlink:href="#path-19"></use>
                        </g>
                        <g id="$" transform="translate(21.597676, 11.646685) rotate(-85.000000) translate(-21.597676, -11.646685) ">
                            <use fill="url(#linearGradient-21)" fill-rule="evenodd" xlink:href="#path-22"></use>
                            <use fill="black" fill-opacity="1" filter="url(#filter-23)" xlink:href="#path-22"></use>
                        </g>
                    </g>
                </g>
                <g id="Group-8" filter="url(#filter-24)" opacity="0.9" transform="translate(730.500000, 187.500000) scale(-1, 1) translate(-730.500000, -187.500000) translate(703.000000, 158.000000)">
                    <g id="Rectangle-7" opacity="0.533705357" transform="translate(32.550562, 35.031250) rotate(-39.000000) translate(-32.550562, -35.031250) " fill="black" fill-opacity="1">
                        <use filter="url(#filter-26)" xlink:href="#path-25"></use>
                    </g>
                    <g id="Group-6" transform="translate(22.459710, 22.342463) rotate(46.000000) translate(-22.459710, -22.342463) translate(4.459710, 9.842463)">
                        <path d="M0,9.59349593 L35.7977528,9.59349593 L35.3862824,16.8264277 C32.0870322,21.9976981 26.2578968,24.5833333 17.8988764,24.5833333 C9.53985597,24.5833333 3.71071998,21.9976981 0.411468423,16.8264277 L0,9.59349593 Z" id="Rectangle-3" fill="url(#linearGradient-11)"></path>
                        <g id="Oval-5">
                            <use fill="black" fill-opacity="1" filter="url(#filter-28)" xlink:href="#path-27"></use>
                            <use fill="url(#linearGradient-12)" fill-rule="evenodd" xlink:href="#path-27"></use>
                        </g>
                        <g id="Rectangle-4" transform="translate(3.464299, 1.798780)">
                            <mask id="mask-30" fill="white">
                                <use xlink:href="#path-29"></use>
                            </mask>
                            <g id="Mask">
                                <use fill="url(#linearGradient-15)" fill-rule="evenodd" xlink:href="#path-29"></use>
                                <use fill="black" fill-opacity="1" filter="url(#filter-31)" xlink:href="#path-29"></use>
                                <use stroke-opacity="0.235280797" stroke="#582C2C" stroke-width="1" xlink:href="#path-29"></use>
                            </g>
                            <polygon fill="#FFFFFF" opacity="0.185100446" mask="url(#mask-30)" points="-15.0119609 0 22.9790411 14.0904472 17.8988764 28.1808943 -15.0119609 28.1808943"></polygon>
                        </g>
                        <ellipse id="Oval-4" cx="17.8988764" cy="20.6859756" rx="2.30953244" ry="1"></ellipse>
                        <g id="$" transform="translate(18.120662, 10.225512) scale(-1, 1) rotate(-85.000000) translate(-18.120662, -10.225512) ">
                            <use fill="url(#linearGradient-21)" fill-rule="evenodd" xlink:href="#path-32"></use>
                            <use fill="black" fill-opacity="1" filter="url(#filter-33)" xlink:href="#path-32"></use>
                        </g>
                    </g>
                </g>
                <g id="Group-51" transform="translate(46.000000, 208.500000) rotate(-14.000000) translate(-46.000000, -208.500000) translate(4.000000, 190.000000)">
                    <path d="M7.06846686,0.291084947 C9.69160205,9.59222573 12.8087238,16.6292176 16.419832,21.4020606 C20.0309402,26.1749036 25.6500835,29.4185434 33.2772619,31.13298 C31.485988,31.6061542 30.1506596,31.8760359 29.2712768,31.9426251 C18.2689096,32.7757542 9.85279143,28.4683064 4.15409611,19.622923 C-2.22781601,9.7170663 -1.25635909,3.27312027 7.06846686,0.291084947 Z" id="Path-7" fill="url(#linearGradient-34)" filter="url(#filter-35)"></path>
                    <path d="M68.134153,8.85233905 C52.3983376,21.3802257 56.9070859,18.5761632 43.5701599,27.0369388 C34.6788759,32.6774559 25.1074628,33.8428875 14.8559205,30.5332336 C27.4598037,38.4751287 39.9861292,38.4751287 52.4348969,30.5332336 C64.4460736,22.8705069 60.4945533,24.8502475 72.637608,15.0825206 C75.5191889,12.7646116 78.2520779,10.8956181 80.836275,9.47554009 L80.8362526,9.47549919 C83.1247165,8.21793363 83.9604248,5.34330875 82.7028592,3.0548448 C82.2582019,2.24567642 81.5863574,1.58440595 80.7702375,1.15264005 C79.0593378,0.941171042 74.8473096,3.50773738 68.134153,8.85233905 Z" id="Path-8" fill="url(#linearGradient-36)"></path>
                </g>
                <g id="Group-5" filter="url(#filter-37)" transform="translate(697.000000, 43.000000)">
                    <path d="M66.3723394,4 C68.737139,15.1309761 71.5472756,23.552372 74.8027491,29.2641877 C78.0582227,34.9760033 83.123973,38.857772 90,40.9094938 C88.385137,41.4757566 87.1813165,41.7987328 86.3885384,41.8784223 C76.4697231,42.8754548 68.8824538,37.7205927 63.7449861,27.1350362 C57.9915872,15.2803769 58.8673716,7.56869816 66.3723394,4 Z" id="Path-7" fill="url(#linearGradient-34)" transform="translate(75.000000, 23.000000) scale(-1, -1) rotate(-16.000000) translate(-75.000000, -23.000000) "></path>
                    <path d="M51.2790866,22.3167116 C43.9258495,31.1662755 42.8427038,34.5136602 33.6760697,42.8071352 C27.5649803,48.3361185 18.1266546,49.6222793 5.36109284,46.6656175 C17.284674,56.2862771 29.1006499,56.3762799 40.8090205,46.9356256 C50.0836065,39.4573725 47.4253273,38.69135 58.4727348,26.8771883 C63.9540077,21.0154833 70.5106711,17.5058776 78.142725,16.3483711 L78.1427181,16.3483253 C78.6887333,16.2655146 79.0642347,15.7557505 78.9814239,15.2097353 C78.9405171,14.9400149 78.7911878,14.6987171 78.5680491,14.5417726 L72.0385505,9.94925171 C63.7210304,11.5483932 56.8012091,15.6708798 51.2790866,22.3167116 Z" id="Path-8" fill="url(#linearGradient-36)" transform="translate(42.176980, 31.949252) scale(-1, -1) rotate(-16.000000) translate(-42.176980, -31.949252) "></path>
                </g>
                <g id="我出资,你赚钱">
                    <use fill="black" fill-opacity="1" filter="url(#filter-40)" xlink:href="#path-39"></use>
                    <use fill="url(#linearGradient-38)" fill-rule="evenodd" xlink:href="#path-39"></use>
                    <use fill-opacity="0.6" fill="#FFFFFF" fill-rule="evenodd" xlink:href="#path-39"></use>
                </g>
                <g id="来就送5000美金，房产分红都归你">
                    <use fill="black" fill-opacity="1" filter="url(#filter-42)" xlink:href="#path-41"></use>
                    <use fill="#FFFFFF" fill-rule="evenodd" xlink:href="#path-41"></use>
                </g>
            </g>
        </g>
    </g>
</svg>