<?xml version="1.0" encoding="UTF-8"?>
<svg width="750px" height="613px" viewBox="0 0 750 613" version="1.1" xmlns="http://www.w3.org/2000/svg" xmlns:xlink="http://www.w3.org/1999/xlink">
    <!-- Generator: Sketch 50.2 (55047) - http://www.bohemiancoding.com/sketch -->
    <title>Group 26</title>
    <desc>Created with Sketch.</desc>
    <defs>
        <linearGradient x1="50%" y1="52.1061572%" x2="47.1984748%" y2="102.460321%" id="linearGradient-1">
            <stop stop-color="#FF3333" offset="0%"></stop>
            <stop stop-color="#D30000" offset="100%"></stop>
        </linearGradient>
        <path d="M91,167 L138,171.675732 L131.025613,230.117002 C127.421482,240.705667 123.549809,246 119.410596,246 C115.271383,246 108.836366,240.229668 100.105544,228.689005 L91,167 Z" id="path-2"></path>
        <filter x="-63.8%" y="-38.0%" width="227.7%" height="175.9%" filterUnits="objectBoundingBox" id="filter-3">
            <feOffset dx="0" dy="0" in="SourceAlpha" result="shadowOffsetOuter1"></feOffset>
            <feGaussianBlur stdDeviation="10" in="shadowOffsetOuter1" result="shadowBlurOuter1"></feGaussianBlur>
            <feColorMatrix values="0 0 0 0 1   0 0 0 0 0.899228397   0 0 0 0 0.644491793  0 0 0 1 0" type="matrix" in="shadowBlurOuter1"></feColorMatrix>
        </filter>
        <path d="M676,370 L716,373.906308 L710.064352,422.73066 C706.997006,431.576887 703.701965,436 700.179231,436 C696.656496,436 691.179886,431.179217 683.749399,421.53765 L676,370 Z" id="path-4"></path>
        <filter x="-75.0%" y="-45.5%" width="250.0%" height="190.9%" filterUnits="objectBoundingBox" id="filter-5">
            <feOffset dx="0" dy="0" in="SourceAlpha" result="shadowOffsetOuter1"></feOffset>
            <feGaussianBlur stdDeviation="10" in="shadowOffsetOuter1" result="shadowBlurOuter1"></feGaussianBlur>
            <feColorMatrix values="0 0 0 0 1   0 0 0 0 0.899228397   0 0 0 0 0.644491793  0 0 0 1 0" type="matrix" in="shadowBlurOuter1"></feColorMatrix>
        </filter>
        <filter x="-47.1%" y="-66.7%" width="194.1%" height="252.4%" filterUnits="objectBoundingBox" id="filter-6">
            <feOffset dx="0" dy="2" in="SourceAlpha" result="shadowOffsetOuter1"></feOffset>
            <feGaussianBlur stdDeviation="5" in="shadowOffsetOuter1" result="shadowBlurOuter1"></feGaussianBlur>
            <feColorMatrix values="0 0 0 0 0   0 0 0 0 0   0 0 0 0 0  0 0 0 0.5 0" type="matrix" in="shadowBlurOuter1" result="shadowMatrixOuter1"></feColorMatrix>
            <feMerge>
                <feMergeNode in="shadowMatrixOuter1"></feMergeNode>
                <feMergeNode in="SourceGraphic"></feMergeNode>
            </feMerge>
        </filter>
        <linearGradient x1="12.2626322%" y1="10.3244723%" x2="15.4561016%" y2="76.1593553%" id="linearGradient-7">
            <stop stop-color="#DDBD7F" offset="0%"></stop>
            <stop stop-color="#FFFFFF" offset="100%"></stop>
        </linearGradient>
        <linearGradient x1="46.7768085%" y1="41.6451791%" x2="-19.0580746%" y2="44.8386485%" id="linearGradient-8">
            <stop stop-color="#DDBD7F" offset="0%"></stop>
            <stop stop-color="#FFFFFF" offset="100%"></stop>
        </linearGradient>
        <filter x="-64.0%" y="-87.5%" width="228.0%" height="300.0%" filterUnits="objectBoundingBox" id="filter-9">
            <feOffset dx="0" dy="2" in="SourceAlpha" result="shadowOffsetOuter1"></feOffset>
            <feGaussianBlur stdDeviation="5" in="shadowOffsetOuter1" result="shadowBlurOuter1"></feGaussianBlur>
            <feColorMatrix values="0 0 0 0 0   0 0 0 0 0   0 0 0 0 0  0 0 0 0.5 0" type="matrix" in="shadowBlurOuter1" result="shadowMatrixOuter1"></feColorMatrix>
            <feMerge>
                <feMergeNode in="shadowMatrixOuter1"></feMergeNode>
                <feMergeNode in="SourceGraphic"></feMergeNode>
            </feMerge>
        </filter>
        <filter x="-106.7%" y="-140.0%" width="313.3%" height="420.0%" filterUnits="objectBoundingBox" id="filter-10">
            <feOffset dx="0" dy="2" in="SourceAlpha" result="shadowOffsetOuter1"></feOffset>
            <feGaussianBlur stdDeviation="5" in="shadowOffsetOuter1" result="shadowBlurOuter1"></feGaussianBlur>
            <feColorMatrix values="0 0 0 0 0   0 0 0 0 0   0 0 0 0 0  0 0 0 0.5 0" type="matrix" in="shadowBlurOuter1" result="shadowMatrixOuter1"></feColorMatrix>
            <feMerge>
                <feMergeNode in="shadowMatrixOuter1"></feMergeNode>
                <feMergeNode in="SourceGraphic"></feMergeNode>
            </feMerge>
        </filter>
        <filter x="-47.1%" y="-66.7%" width="194.1%" height="252.4%" filterUnits="objectBoundingBox" id="filter-11">
            <feOffset dx="0" dy="2" in="SourceAlpha" result="shadowOffsetOuter1"></feOffset>
            <feGaussianBlur stdDeviation="5" in="shadowOffsetOuter1" result="shadowBlurOuter1"></feGaussianBlur>
            <feColorMatrix values="0 0 0 0 0   0 0 0 0 0   0 0 0 0 0  0 0 0 0.5 0" type="matrix" in="shadowBlurOuter1" result="shadowMatrixOuter1"></feColorMatrix>
            <feMerge>
                <feMergeNode in="shadowMatrixOuter1"></feMergeNode>
                <feMergeNode in="SourceGraphic"></feMergeNode>
            </feMerge>
        </filter>
        <filter x="-80.0%" y="-107.7%" width="260.0%" height="346.2%" filterUnits="objectBoundingBox" id="filter-12">
            <feOffset dx="0" dy="2" in="SourceAlpha" result="shadowOffsetOuter1"></feOffset>
            <feGaussianBlur stdDeviation="5" in="shadowOffsetOuter1" result="shadowBlurOuter1"></feGaussianBlur>
            <feColorMatrix values="0 0 0 0 0   0 0 0 0 0   0 0 0 0 0  0 0 0 0.5 0" type="matrix" in="shadowBlurOuter1" result="shadowMatrixOuter1"></feColorMatrix>
            <feMerge>
                <feMergeNode in="shadowMatrixOuter1"></feMergeNode>
                <feMergeNode in="SourceGraphic"></feMergeNode>
            </feMerge>
        </filter>
        <linearGradient x1="0%" y1="44.4913432%" x2="79.2241351%" y2="44.4913417%" id="linearGradient-13">
            <stop stop-color="#684504" offset="0%"></stop>
            <stop stop-color="#FFFFFF" offset="59.8469085%"></stop>
            <stop stop-color="#846D4D" offset="100%"></stop>
        </linearGradient>
        <linearGradient x1="12.2626322%" y1="10.3244723%" x2="100%" y2="31.4320205%" id="linearGradient-14">
            <stop stop-color="#D0A25C" offset="0%"></stop>
            <stop stop-color="#FFFFFF" offset="49.7900108%"></stop>
            <stop stop-color="#FFFFFF" offset="70.6399025%"></stop>
            <stop stop-color="#DDBD7F" offset="100%"></stop>
        </linearGradient>
        <ellipse id="path-15" cx="35" cy="19.6341463" rx="35" ry="19.6341463"></ellipse>
        <filter x="-10.0%" y="-12.7%" width="120.0%" height="135.7%" filterUnits="objectBoundingBox" id="filter-16">
            <feOffset dx="0" dy="2" in="SourceAlpha" result="shadowOffsetOuter1"></feOffset>
            <feGaussianBlur stdDeviation="2" in="shadowOffsetOuter1" result="shadowBlurOuter1"></feGaussianBlur>
            <feColorMatrix values="0 0 0 0 0   0 0 0 0 0   0 0 0 0 0  0 0 0 0.5 0" type="matrix" in="shadowBlurOuter1"></feColorMatrix>
        </filter>
        <linearGradient x1="50%" y1="100%" x2="80.6581286%" y2="30.4219832%" id="linearGradient-17">
            <stop stop-color="#E6CF9B" offset="0%"></stop>
            <stop stop-color="#D0A85F" offset="100%"></stop>
        </linearGradient>
        <ellipse id="path-18" cx="28.7903226" cy="15.7073171" rx="28.7903226" ry="15.7073171"></ellipse>
        <filter x="-4.3%" y="-8.0%" width="108.7%" height="115.9%" filterUnits="objectBoundingBox" id="filter-20">
            <feGaussianBlur stdDeviation="1.5" in="SourceAlpha" result="shadowBlurInner1"></feGaussianBlur>
            <feOffset dx="0" dy="1" in="shadowBlurInner1" result="shadowOffsetInner1"></feOffset>
            <feComposite in="shadowOffsetInner1" in2="SourceAlpha" operator="arithmetic" k2="-1" k3="1" result="shadowInnerInner1"></feComposite>
            <feColorMatrix values="0 0 0 0 0   0 0 0 0 0   0 0 0 0 0  0 0 0 0.5 0" type="matrix" in="shadowInnerInner1"></feColorMatrix>
        </filter>
        <ellipse id="path-21" cx="35" cy="38.7073171" rx="4.51612903" ry="1.68292683"></ellipse>
        <filter x="-326.6%" y="-817.0%" width="753.2%" height="1852.9%" filterUnits="objectBoundingBox" id="filter-22">
            <feMorphology radius="4" operator="dilate" in="SourceAlpha" result="shadowSpreadOuter1"></feMorphology>
            <feOffset dx="0" dy="2" in="shadowSpreadOuter1" result="shadowOffsetOuter1"></feOffset>
            <feGaussianBlur stdDeviation="5.5" in="shadowOffsetOuter1" result="shadowBlurOuter1"></feGaussianBlur>
            <feColorMatrix values="0 0 0 0 1   0 0 0 0 1   0 0 0 0 1  0 0 0 0.5 0" type="matrix" in="shadowBlurOuter1"></feColorMatrix>
        </filter>
        <linearGradient x1="50%" y1="0%" x2="50%" y2="100%" id="linearGradient-23">
            <stop stop-color="#A2855E" offset="0%"></stop>
            <stop stop-color="#9F774A" offset="45.7008671%"></stop>
            <stop stop-color="#9C6532" offset="100%"></stop>
        </linearGradient>
        <path d="M34.3230208,7.37154748 L34.3230208,4.78573536 L36.4174198,4.78573536 L36.4174198,7.37154748 C38.3214189,7.49768465 39.8446182,8.03376765 40.9552843,8.91672789 C42.2563504,9.9258253 43.0496833,11.5971429 43.3670165,13.8991464 L39.7494182,13.8991464 C39.5590183,12.574706 39.0830185,11.6602115 38.3214189,11.1241285 C37.8454191,10.7772512 37.2107527,10.5565112 36.4174198,10.4619083 L36.4174198,17.399453 C38.9243519,18.3139475 40.2888846,18.8184962 40.4792845,18.9446334 C42.6688835,20.1744709 43.7795497,21.9403913 43.7795497,24.2423948 C43.7795497,26.4813297 42.9227501,28.1526473 41.2091509,29.2878819 C39.9398181,30.1077735 38.3531522,30.5807879 36.4174198,30.7069251 L36.4174198,33.481943 L34.3230208,33.481943 L34.3230208,30.7069251 C32.1651551,30.5492536 30.5150226,29.950102 29.3726231,28.877936 C28.0398237,27.6165643 27.2782241,25.6929723 27.0878242,23.1071602 L30.7688891,23.1071602 C30.8958224,24.7469435 31.3083555,25.9452467 32.0382218,26.6390012 C32.5776883,27.1435499 33.3392879,27.4588928 34.3230208,27.58503 L34.3230208,20.2060052 L30.6736892,18.8815648 C28.4523569,17.6832616 27.373424,15.9173412 27.373424,13.5838034 C27.373424,11.50254 28.166757,9.9258253 29.7851562,8.82212501 C30.9910223,7.97069907 32.4824883,7.49768465 34.3230208,7.37154748 Z M36.4174198,20.9628282 L36.4174198,27.58503 C37.3059527,27.4588928 38.0992857,27.2066185 38.733952,26.7966726 C39.6224849,26.2290553 40.0667514,25.4091637 40.0667514,24.368532 C40.0667514,22.9494888 38.9560853,21.8457885 36.7664863,21.0889654 C36.639553,21.0258968 36.5443531,20.9943625 36.4174198,20.9628282 Z M34.3230208,16.6110956 L34.3230208,10.430374 C33.4979545,10.5249769 32.8315548,10.7457169 32.355555,11.0610599 C31.4987554,11.5656086 31.0862223,12.4170345 31.0862223,13.5838034 C31.0862223,14.7821066 32.1651551,15.791204 34.3230208,16.6110956 Z" id="path-24"></path>
        <filter x="-6.0%" y="-3.5%" width="112.0%" height="107.0%" filterUnits="objectBoundingBox" id="filter-25">
            <feGaussianBlur stdDeviation="0.5" in="SourceAlpha" result="shadowBlurInner1"></feGaussianBlur>
            <feOffset dx="0" dy="1" in="shadowBlurInner1" result="shadowOffsetInner1"></feOffset>
            <feComposite in="shadowOffsetInner1" in2="SourceAlpha" operator="arithmetic" k2="-1" k3="1" result="shadowInnerInner1"></feComposite>
            <feColorMatrix values="0 0 0 0 0   0 0 0 0 0   0 0 0 0 0  0 0 0 0.5 0" type="matrix" in="shadowInnerInner1"></feColorMatrix>
        </filter>
        <ellipse id="path-26" cx="29.5" cy="17.0731707" rx="29.5" ry="17.0731707"></ellipse>
        <filter x="-11.9%" y="-14.6%" width="123.7%" height="141.0%" filterUnits="objectBoundingBox" id="filter-27">
            <feOffset dx="0" dy="2" in="SourceAlpha" result="shadowOffsetOuter1"></feOffset>
            <feGaussianBlur stdDeviation="2" in="shadowOffsetOuter1" result="shadowBlurOuter1"></feGaussianBlur>
            <feColorMatrix values="0 0 0 0 0   0 0 0 0 0   0 0 0 0 0  0 0 0 0.5 0" type="matrix" in="shadowBlurOuter1"></feColorMatrix>
        </filter>
        <ellipse id="path-28" cx="24.266129" cy="13.6585366" rx="24.266129" ry="13.6585366"></ellipse>
        <filter x="-5.2%" y="-9.2%" width="110.3%" height="118.3%" filterUnits="objectBoundingBox" id="filter-30">
            <feGaussianBlur stdDeviation="1.5" in="SourceAlpha" result="shadowBlurInner1"></feGaussianBlur>
            <feOffset dx="0" dy="1" in="shadowBlurInner1" result="shadowOffsetInner1"></feOffset>
            <feComposite in="shadowOffsetInner1" in2="SourceAlpha" operator="arithmetic" k2="-1" k3="1" result="shadowInnerInner1"></feComposite>
            <feColorMatrix values="0 0 0 0 0   0 0 0 0 0   0 0 0 0 0  0 0 0 0.5 0" type="matrix" in="shadowInnerInner1"></feColorMatrix>
        </filter>
        <ellipse id="path-31" cx="29.5" cy="33.6585366" rx="3.80645161" ry="1.46341463"></ellipse>
        <filter x="-387.5%" y="-939.6%" width="875.0%" height="2115.8%" filterUnits="objectBoundingBox" id="filter-32">
            <feMorphology radius="4" operator="dilate" in="SourceAlpha" result="shadowSpreadOuter1"></feMorphology>
            <feOffset dx="0" dy="2" in="shadowSpreadOuter1" result="shadowOffsetOuter1"></feOffset>
            <feGaussianBlur stdDeviation="5.5" in="shadowOffsetOuter1" result="shadowBlurOuter1"></feGaussianBlur>
            <feColorMatrix values="0 0 0 0 1   0 0 0 0 1   0 0 0 0 1  0 0 0 0.5 0" type="matrix" in="shadowBlurOuter1"></feColorMatrix>
        </filter>
        <path d="M28.9294032,6.41004129 L28.9294032,4.16150901 L30.6946824,4.16150901 L30.6946824,6.41004129 C32.2994816,6.51972579 33.583321,6.98588492 34.5194539,7.75367642 C35.6160667,8.63115243 36.2847331,10.0844721 36.5521996,12.0862142 L33.5030811,12.0862142 C33.3426011,10.934527 32.9414013,10.1393143 32.2994816,9.6731552 C31.8982818,9.37152282 31.3633487,9.17957494 30.6946824,9.09731156 L30.6946824,15.1299591 C32.8076681,15.9251718 33.9577742,16.3639098 34.1182541,16.4735943 C35.9637732,17.5430182 36.8999061,19.0786012 36.8999061,21.0803433 C36.8999061,23.0272432 36.1777465,24.4805629 34.7334272,25.4677234 C33.663561,26.1806726 32.3262283,26.5919895 30.6946824,26.701674 L30.6946824,29.114733 L28.9294032,29.114733 L28.9294032,26.701674 C27.1106307,26.5645684 25.7198047,26.043567 24.7569252,25.1112487 C23.6335657,24.0144037 22.991646,22.3417151 22.8311661,20.0931828 L25.933778,20.0931828 C26.0407646,21.5190813 26.3884711,22.5610841 27.0036441,23.1643488 C27.4583372,23.6030868 28.1002569,23.8772981 28.9294032,23.9869826 L28.9294032,17.5704393 L25.853538,16.418752 C23.9812722,15.3767493 23.071886,13.8411662 23.071886,11.812003 C23.071886,10.0022087 23.7405523,8.63115243 25.1046317,7.67141305 C26.1210045,6.93104267 27.3780973,6.51972579 28.9294032,6.41004129 Z M30.6946824,18.2285463 L30.6946824,23.9869826 C31.4435887,23.8772981 32.1122551,23.6579291 32.6471881,23.3014545 C33.3960945,22.8078742 33.7705476,22.094925 33.7705476,21.1900278 C33.7705476,19.9560772 32.8344147,18.9963378 30.9888956,18.3382308 C30.881909,18.2833885 30.801669,18.2559674 30.6946824,18.2285463 Z M28.9294032,14.444431 L28.9294032,9.06989044 C28.2339902,9.15215381 27.6723105,9.34410169 27.2711107,9.61831294 C26.548951,10.0570509 26.2012445,10.7974213 26.2012445,11.812003 C26.2012445,12.8540057 27.1106307,13.7314817 28.9294032,14.444431 Z" id="path-33"></path>
        <filter x="-7.1%" y="-4.0%" width="114.2%" height="108.0%" filterUnits="objectBoundingBox" id="filter-34">
            <feGaussianBlur stdDeviation="0.5" in="SourceAlpha" result="shadowBlurInner1"></feGaussianBlur>
            <feOffset dx="0" dy="1" in="shadowBlurInner1" result="shadowOffsetInner1"></feOffset>
            <feComposite in="shadowOffsetInner1" in2="SourceAlpha" operator="arithmetic" k2="-1" k3="1" result="shadowInnerInner1"></feComposite>
            <feColorMatrix values="0 0 0 0 0   0 0 0 0 0   0 0 0 0 0  0 0 0 0.5 0" type="matrix" in="shadowInnerInner1"></feColorMatrix>
        </filter>
        <filter x="-11.5%" y="-9.4%" width="118.8%" height="134.0%" filterUnits="objectBoundingBox" id="filter-35">
            <feOffset dx="0" dy="2" in="SourceAlpha" result="shadowOffsetOuter1"></feOffset>
            <feGaussianBlur stdDeviation="2" in="shadowOffsetOuter1" result="shadowBlurOuter1"></feGaussianBlur>
            <feColorMatrix values="0 0 0 0 0   0 0 0 0 0   0 0 0 0 0  0 0 0 0.5 0" type="matrix" in="shadowBlurOuter1" result="shadowMatrixOuter1"></feColorMatrix>
            <feMerge>
                <feMergeNode in="shadowMatrixOuter1"></feMergeNode>
                <feMergeNode in="SourceGraphic"></feMergeNode>
            </feMerge>
        </filter>
        <linearGradient x1="12.2626322%" y1="10.3244723%" x2="15.5979081%" y2="79.0827626%" id="linearGradient-36">
            <stop stop-color="#EFDDBB" offset="0%"></stop>
            <stop stop-color="#614B23" offset="100%"></stop>
        </linearGradient>
        <filter x="-8.4%" y="-9.5%" width="116.9%" height="118.9%" filterUnits="objectBoundingBox" id="filter-37">
            <feGaussianBlur stdDeviation="1" in="SourceGraphic"></feGaussianBlur>
        </filter>
        <linearGradient x1="50%" y1="0%" x2="50%" y2="100%" id="linearGradient-38">
            <stop stop-color="#E1C183" offset="0%"></stop>
            <stop stop-color="#FFFFFF" offset="19.2670701%"></stop>
            <stop stop-color="#957A45" offset="100%"></stop>
        </linearGradient>
        <filter x="-3.5%" y="-3.8%" width="106.9%" height="110.5%" filterUnits="objectBoundingBox" id="filter-39">
            <feOffset dx="0" dy="2" in="SourceAlpha" result="shadowOffsetOuter1"></feOffset>
            <feGaussianBlur stdDeviation="2" in="shadowOffsetOuter1" result="shadowBlurOuter1"></feGaussianBlur>
            <feColorMatrix values="0 0 0 0 0   0 0 0 0 0   0 0 0 0 0  0 0 0 0.5 0" type="matrix" in="shadowBlurOuter1" result="shadowMatrixOuter1"></feColorMatrix>
            <feMerge>
                <feMergeNode in="shadowMatrixOuter1"></feMergeNode>
                <feMergeNode in="SourceGraphic"></feMergeNode>
            </feMerge>
        </filter>
        <linearGradient x1="50%" y1="0%" x2="50%" y2="100%" id="linearGradient-40">
            <stop stop-color="#EA0505" offset="0%"></stop>
            <stop stop-color="#D0021B" offset="100%"></stop>
        </linearGradient>
        <path d="M109.848532,29.174 L95.294532,28.984 L94.762532,36.242 L109.050532,35.444 L109.278532,54.9 L89.822532,54.672 L90.126532,49.504 L104.148532,50.112 L104.186532,40.498 L89.822532,40.954 L90.088532,24.31 L110.076532,24.272 L109.848532,29.174 Z M132.206277,24.158 L132.814277,53.988 L112.446277,54.824 L112.674277,24.576 L132.206277,24.158 Z M117.614277,49.542 L127.646277,49.466 L127.608277,28.832 L117.234277,29.516 L117.614277,49.542 Z M155.476021,24.158 L156.084021,53.988 L135.716021,54.824 L135.944021,24.576 L155.476021,24.158 Z M140.884021,49.542 L150.916021,49.466 L150.878021,28.832 L140.504021,29.516 L140.884021,49.542 Z M178.745766,24.158 L179.353766,53.988 L158.985766,54.824 L159.213766,24.576 L178.745766,24.158 Z M164.153766,49.542 L174.185766,49.466 L174.147766,28.832 L163.773766,29.516 L164.153766,49.542 Z M183.395511,38.256 L197.189511,37.8 L197.075511,35.482 L185.219511,35.9 L184.877511,32.29 L196.847511,31.72 L196.733511,29.592 L183.927511,30.276 L183.585511,25.716 L190.805511,25.602 L189.399511,22.904 L195.365511,22.448 L195.707511,25.526 L203.649511,25.374 L203.991511,22.334 L209.957511,22.79 L208.665511,25.26 L215.581511,25.146 L215.695511,28.642 L202.129511,29.326 L202.053511,31.492 L214.137511,30.884 L214.479511,34.874 L201.977511,35.292 L201.939511,37.61 L216.265511,37.116 L216.493511,40.764 L183.623511,42.74 L183.395511,38.256 Z M216.987511,47.414 L200.153511,48.326 L187.195511,56.686 L182.863511,53.722 L192.743511,48.744 L182.901511,49.314 L182.635511,44.982 L197.645511,44.526 L197.531511,42.626 L202.813511,42.702 L202.585511,44.374 L216.607511,43.994 L216.987511,47.414 Z M200.229511,50.264 L204.561511,48.326 L216.303511,53.456 L211.857511,56.572 L200.229511,50.264 Z M240.485255,51.024 L253.557255,50.91 L253.747255,54.52 L221.447255,55.508 L221.219255,51.214 L235.203255,51.062 L235.203255,45.21 L222.815255,45.666 L222.587255,41.068 L235.203255,40.916 L235.241255,38.37 L225.323255,38.864 L225.209255,35.444 L223.005255,37.116 L218.939255,33.62 L227.261255,28.338 L237.787255,21.308 L248.883255,28.832 L255.723255,33.202 L251.505255,36.66 L249.453255,35.102 L249.605255,37.648 L239.991255,38.142 L240.105255,40.84 L251.809255,40.688 L252.037255,44.64 L240.257255,45.058 L240.485255,51.024 Z M237.711255,26.058 L226.729255,34.304 L247.819255,33.848 L237.711255,26.058 Z M230.567255,46.502 L231.213255,49.808 L226.767255,50.226 L224.905255,46.768 L230.567255,46.502 Z M248.465255,49.694 L244.323255,49.542 L244.969255,46.122 L250.707255,46.388 L248.465255,49.694 Z M286.758745,32.328 L283.718745,32.556 L283.642745,37.648 L286.226745,37.534 L286.758745,54.748 L276.460745,55.09 L276.764745,37.876 L279.348745,37.8 L279.196745,32.86 L275.890745,33.126 L275.662745,28.148 L279.082745,28.072 L278.968745,23.208 L283.870745,23.018 L283.794745,28.034 L286.606745,27.958 L286.758745,32.328 Z M280.450745,50.188 L282.996745,49.998 L282.578745,42.284 L280.450745,42.436 L280.450745,50.188 Z M301.046745,53.95 L296.714745,56.04 L293.902745,51.252 L291.014745,56.534 L287.024745,54.254 L291.394745,47.034 L288.392745,41.98 L288.354745,31.834 L292.610745,31.91 L292.078745,40.612 L293.750745,43.12 L295.346745,40.536 L294.548745,30.2 L287.936745,30.542 L288.164745,22.638 L292.990745,22.942 L292.648745,25.868 L300.438745,25.032 L300.818745,29.858 L299.032745,29.972 L299.146745,41.638 L296.296745,46.882 L301.046745,53.95 Z M276.688745,23.968 L273.990745,29.934 L274.598745,55.698 L269.772745,55.888 L269.734745,39.32 L268.784745,41.372 L264.984745,39.928 L268.632745,31.264 L271.748745,22.486 L276.688745,23.968 Z M305.050489,38.256 L318.844489,37.8 L318.730489,35.482 L306.874489,35.9 L306.532489,32.29 L318.502489,31.72 L318.388489,29.592 L305.582489,30.276 L305.240489,25.716 L312.460489,25.602 L311.054489,22.904 L317.020489,22.448 L317.362489,25.526 L325.304489,25.374 L325.646489,22.334 L331.612489,22.79 L330.320489,25.26 L337.236489,25.146 L337.350489,28.642 L323.784489,29.326 L323.708489,31.492 L335.792489,30.884 L336.134489,34.874 L323.632489,35.292 L323.594489,37.61 L337.920489,37.116 L338.148489,40.764 L305.278489,42.74 L305.050489,38.256 Z M338.642489,47.414 L321.808489,48.326 L308.850489,56.686 L304.518489,53.722 L314.398489,48.744 L304.556489,49.314 L304.290489,44.982 L319.300489,44.526 L319.186489,42.626 L324.468489,42.702 L324.240489,44.374 L338.262489,43.994 L338.642489,47.414 Z M321.884489,50.264 L326.216489,48.326 L337.958489,53.456 L333.512489,56.572 L321.884489,50.264 Z M366.852234,44.678 L368.562234,44.64 L368.676234,48.212 L349.828234,48.972 L349.600234,44.792 L356.820234,44.754 L356.706234,40.916 L350.436234,41.144 L350.208234,37.42 L356.592234,37.116 L356.516234,34.304 L350.018234,34.646 L349.790234,30.428 L368.144234,30.2 L368.258234,33.62 L361.266234,34.038 L361.228234,36.926 L367.726234,36.622 L367.954234,40.536 L361.152234,40.764 L361.114234,44.716 L363.090234,44.678 L362.672234,41.98 L366.928234,41.79 L366.852234,44.678 Z M343.102234,24.196 L374.718234,23.74 L374.300234,54.862 L343.558234,55.242 L343.102234,24.196 Z M347.966234,51.138 L370.158234,50.34 L370.120234,28.034 L347.662234,28.3 L347.966234,51.138 Z M395.555979,44.982 L412.085979,44.564 L412.161979,55.204 L399.317979,55.432 L399.621979,51.48 L407.601979,51.784 L407.411979,48.516 L394.757979,49.276 L393.503979,55.964 L388.335979,55.66 L390.881979,46.236 L391.565979,43.044 L387.537979,43.234 L387.347979,38.75 L398.215979,38.56 L397.797979,36.622 L403.003979,36.356 L402.965979,38.484 L412.769979,38.294 L412.959979,41.98 L395.973979,42.816 L395.555979,44.982 Z M411.629979,34.95 L386.473979,35.748 L385.333979,55.698 L380.583979,55.432 L382.141979,35.482 L381.799979,24.728 L394.377979,24.348 L394.035979,22.562 L400.115979,22.258 L400.001979,24.196 L411.895979,23.854 L411.629979,34.95 Z M407.107979,28.034 L386.397979,28.604 L386.511979,31.872 L407.221979,30.922 L407.107979,28.034 Z M449.757723,41.486 L438.129723,41.828 L438.357723,55.66 L427.755723,55.47 L428.325723,50.606 L433.531723,51.138 L433.151723,41.98 L419.775723,42.36 L422.511723,31.074 L417.343723,31.302 L417.077723,26.248 L423.651723,26.172 L424.487723,22.106 L430.529723,22.79 L429.465723,26.058 L450.441723,25.716 L450.669723,29.858 L427.945723,30.846 L425.627723,38.028 L432.961723,37.61 L432.733723,32.1 L437.939723,31.91 L438.053723,37.344 L449.453723,36.736 L449.757723,41.486 Z M425.247723,43.842 L429.161723,45.476 L423.157723,55.85 L418.141723,54.026 L425.247723,43.842 Z M444.779723,43.386 L450.745723,53.684 L445.539723,55.66 L440.979723,44.754 L444.779723,43.386 Z" id="path-41"></path>
        <filter x="-1.9%" y="-14.1%" width="103.9%" height="139.6%" filterUnits="objectBoundingBox" id="filter-42">
            <feOffset dx="0" dy="2" in="SourceAlpha" result="shadowOffsetOuter1"></feOffset>
            <feGaussianBlur stdDeviation="2" in="shadowOffsetOuter1" result="shadowBlurOuter1"></feGaussianBlur>
            <feColorMatrix values="0 0 0 0 0   0 0 0 0 0   0 0 0 0 0  0 0 0 0.5 0" type="matrix" in="shadowBlurOuter1"></feColorMatrix>
        </filter>
        <path d="M161.504,235.456 L150.056,234.448 L151.856,225.52 L109.376,225.52 L116.36,187.792 L127.88,188.8 L126.08,197.512 L168.56,197.512 L161.504,235.456 Z M121.76,218.176 L153.368,218.176 L156.104,204.856 L124.496,204.856 L121.76,218.176 Z M172.088,180.088 L172.088,187.288 L108.728,187.288 L108.728,180.088 L172.088,180.088 Z M107,235.888 L173.816,235.888 L173.816,243.088 L107,243.088 L107,235.888 Z M244.592,187.36 L244.592,194.56 L211.688,194.56 L211.688,187.36 L215.216,187.36 L213.416,179.44 L224.216,179.44 L226.016,187.36 L229.544,187.36 L231.344,179.44 L242,179.44 L240.128,187.36 L244.592,187.36 Z M234.872,217.24 L245.672,243.52 L234.872,243.52 L228.104,226.024 L221.408,243.52 L210.608,243.52 L221.408,217.24 L211.328,217.24 L211.328,210.04 L222.344,210.04 L222.344,195.28 L233.864,196.72 L233.864,210.04 L244.952,210.04 L244.952,217.24 L234.872,217.24 Z M179.72,187.144 L179.72,179.944 L210.248,179.944 L210.248,187.144 L208.16,187.144 L208.16,230.056 L209.888,230.056 L209.888,237.256 L208.16,237.256 L208.16,243.88 L197.648,243.88 L197.648,237.256 L179.72,237.256 L179.72,230.056 L181.232,230.056 L181.232,187.864 L191.816,189.304 L191.816,196.648 L195.992,196.648 L195.992,203.848 L191.816,203.848 L191.816,213.352 L195.992,213.352 L195.992,220.552 L191.816,220.552 L191.816,230.056 L197.648,230.056 L197.648,187.144 L179.72,187.144 Z M252.728,243.592 L252.728,187.864 L263.528,189.304 L263.528,243.592 L252.728,243.592 Z M252.728,179.944 L316.016,179.944 L316.016,243.592 L293.192,243.592 L293.192,236.392 L305.216,236.392 L305.216,187.144 L252.728,187.144 L252.728,179.944 Z M275.912,192.544 L283.688,192.544 L281.312,212.848 L283.688,233.224 L275.912,233.224 L274.472,217.6 L272.96,233.224 L265.184,233.224 L267.56,212.848 L265.184,192.544 L272.96,192.544 L274.472,208.168 L275.912,192.544 Z M295.856,233.224 L294.344,217.6 L292.904,233.224 L285.056,233.224 L287.504,212.848 L285.056,192.544 L292.904,192.544 L294.344,208.168 L295.856,192.544 L303.632,192.544 L301.256,212.848 L303.632,233.224 L295.856,233.224 Z M364.184,217.312 L376.784,217.312 L387.44,243.304 L325.376,243.304 L340.496,209.536 L353.384,209.536 L341.576,236.104 L371.816,236.104 L364.184,217.312 Z M351.872,178.648 L334.376,212.992 L321.776,212.992 L339.344,178.648 L351.872,178.648 Z M390.896,212.992 L378.368,212.992 L360.872,178.648 L373.4,178.648 L390.896,212.992 Z M397.088,179.872 L459.944,179.872 L459.944,243.88 L423.872,243.88 L423.872,236.68 L448.064,236.68 L448.064,187.072 L397.088,187.072 L397.088,179.872 Z M443.168,192.4 L443.168,199.6 L395.792,199.6 L395.792,192.4 L443.168,192.4 Z M442.592,204.856 L442.592,231.64 L397.088,231.64 L397.088,212.848 L408.536,214.288 L408.536,224.44 L431.144,224.44 L431.144,212.056 L397.088,212.056 L397.088,204.856 L442.592,204.856 Z M467.576,235.384 L533.168,235.384 L533.168,243.16 L467.576,243.16 L467.576,235.384 Z M504.8,206.152 L504.8,234.52 L492.56,233.44 L492.56,178.504 L504.8,178.504 L504.8,198.376 L531.872,198.376 L531.872,206.152 L504.8,206.152 Z M578.888,185.272 L605.384,185.272 L605.384,192.472 L539.432,192.472 L539.432,185.272 L565.928,185.272 L565.928,178 L578.888,178 L578.888,185.272 Z M578.528,194.488 L578.528,201.976 L602.648,201.976 L602.648,240.928 L584.432,240.928 L584.432,233.512 L591.128,233.512 L591.128,209.392 L578.528,209.392 L578.528,244.6 L566.288,244.6 L566.288,209.392 L554.048,209.392 L554.048,240.928 L542.528,240.928 L542.528,201.976 L566.288,201.976 L566.288,193.408 L578.528,194.488 Z M619.424,220.624 L619.424,210.472 L611.648,210.472 L611.648,203.272 L619.424,203.272 L619.424,191.824 L611.648,191.824 L611.648,184.624 L619.424,184.624 L619.424,178.792 L630.944,178.792 L630.944,184.624 L636.848,184.624 L636.848,191.824 L630.944,191.824 L630.944,203.272 L636.848,203.272 L636.848,210.472 L630.944,210.472 L630.944,227.824 L612.008,227.824 L612.008,220.624 L619.424,220.624 Z M677.24,227.824 L662.264,227.824 L662.264,191.824 L656.432,191.824 L654.56,207.016 L659.168,208.24 L659.168,217.312 L653.408,215.8 L651.824,228.184 L640.88,228.184 L642.824,212.92 L639.224,211.912 L639.224,202.84 L643.904,204.136 L645.488,191.824 L639.224,191.824 L639.224,184.624 L646.352,184.624 L647.072,178.792 L658.088,178.792 L657.368,184.624 L673.64,184.624 L673.64,220.624 L677.24,220.624 L677.24,227.824 Z M610.496,243.664 L615.104,231.28 L626.624,231.28 L622.016,243.664 L610.496,243.664 Z M628.424,231.28 L639.368,231.28 L643.04,243.664 L632.024,243.664 L628.424,231.28 Z M646.064,231.28 L657.08,231.28 L660.752,243.664 L649.736,243.664 L646.064,231.28 Z M674.72,231.28 L678.392,243.664 L667.376,243.664 L663.776,231.28 L674.72,231.28 Z M685.592,230.704 L698.192,230.704 L698.192,239.632 L695.528,246.472 L686.816,246.472 L688.256,242.872 L685.592,242.872 L685.592,230.704 Z M221.588,268.792 L232.748,268.792 L216.044,333.88 L204.596,333.88 L192.284,289.168 L179.9,333.88 L168.452,333.88 L151.748,268.792 L162.908,268.792 L174.356,319.408 L186.884,269.296 L197.612,269.296 L210.14,319.408 L221.588,268.792 Z M246.14,314.584 L246.14,317.752 C246.14,320.152012 246.979992,322.191992 248.66,323.872 C250.340008,325.552008 252.379988,326.392 254.78,326.392 L277.532,326.392 L277.532,333.592 L251.18,333.592 C246.811978,333.592 243.068016,332.032016 239.948,328.912 C236.875985,325.839985 235.34,322.120022 235.34,317.752 L235.34,305.152 C235.34,300.591977 236.995983,296.608017 240.308,293.2 C243.572016,289.935984 247.531977,288.304 252.188,288.304 L260.9,288.304 C265.556023,288.304 269.515984,289.935984 272.78,293.2 C276.092017,296.512017 277.748,300.495977 277.748,305.152 L277.748,314.584 L246.14,314.584 Z M246.14,305.152 L246.14,307.384 L266.948,307.384 L266.948,305.152 C266.948,302.511987 266.012009,300.23201 264.14,298.312 C262.21999,296.439991 259.940013,295.504 257.3,295.504 L255.788,295.504 C253.195987,295.504 250.91601,296.439991 248.948,298.312 C247.075991,300.23201 246.14,302.511987 246.14,305.152 Z M326.06,268.648 L337.58,268.648 L337.58,334.672 L326.06,334.672 L326.06,303.352 L297.404,303.352 L297.404,334.672 L285.884,334.672 L285.884,268.648 L297.404,268.648 L297.404,296.152 L326.06,296.152 L326.06,268.648 Z M372.716,288.448 C376.412018,288.448 379.579987,289.743987 382.22,292.336 C384.812013,294.976013 386.108,298.167981 386.108,301.912 L386.108,320.344 C386.108,324.088019 384.812013,327.255987 382.22,329.848 C379.579987,332.488013 376.412018,333.808 372.716,333.808 L359.036,333.808 C355.339982,333.808 352.196013,332.488013 349.604,329.848 C346.963987,327.255987 345.644,324.088019 345.644,320.344 L345.644,301.912 C345.644,298.167981 346.963987,294.976013 349.604,292.336 C352.196013,289.743987 355.339982,288.448 359.036,288.448 L372.716,288.448 Z M375.308,301.912 C375.308,300.183991 374.708006,298.696006 373.508,297.448 C372.307994,296.247994 370.844009,295.648 369.116,295.648 L362.636,295.648 C360.955992,295.648 359.492006,296.247994 358.244,297.448 C357.043994,298.696006 356.444,300.183991 356.444,301.912 L356.444,320.344 C356.444,322.072009 357.043994,323.535994 358.244,324.736 C359.492006,325.984006 360.955992,326.608 362.636,326.608 L369.116,326.608 C370.844009,326.608 372.307994,325.984006 373.508,324.736 C374.708006,323.535994 375.308,322.072009 375.308,320.344 L375.308,301.912 Z M456.668,301.768 L456.668,334.744 L445.868,334.744 L445.868,301.768 C445.868,299.415988 445.340005,297.712005 444.284,296.656 C443.419996,295.743995 442.02801,295.288 440.108,295.288 L436.508,295.288 C434.731991,295.288 433.292006,296.007993 432.188,297.448 C431.035994,298.888007 430.46,300.759988 430.46,303.064 L430.46,334.744 L419.66,334.744 L419.66,301.768 C419.66,299.367988 419.156005,297.664005 418.148,296.656 C417.235995,295.743995 415.844009,295.288 413.972,295.288 L404.324,295.288 L404.324,334.744 L393.524,334.744 L393.524,288.088 L415.556,288.088 C419.58802,288.088 422.971986,289.335988 425.708,291.832 C428.348013,289.335988 431.491982,288.088 435.14,288.088 L443.06,288.088 C447.380022,288.088 450.715988,289.335988 453.068,291.832 C455.468012,294.232012 456.668,297.543979 456.668,301.768 Z M474.956,314.584 L474.956,317.752 C474.956,320.152012 475.795992,322.191992 477.476,323.872 C479.156008,325.552008 481.195988,326.392 483.596,326.392 L506.348,326.392 L506.348,333.592 L479.996,333.592 C475.627978,333.592 471.884016,332.032016 468.764,328.912 C465.691985,325.839985 464.156,322.120022 464.156,317.752 L464.156,305.152 C464.156,300.591977 465.811983,296.608017 469.124,293.2 C472.388016,289.935984 476.347977,288.304 481.004,288.304 L489.716,288.304 C494.372023,288.304 498.331984,289.935984 501.596,293.2 C504.908017,296.512017 506.564,300.495977 506.564,305.152 L506.564,314.584 L474.956,314.584 Z M474.956,305.152 L474.956,307.384 L495.764,307.384 L495.764,305.152 C495.764,302.511987 494.828009,300.23201 492.956,298.312 C491.03599,296.439991 488.756013,295.504 486.116,295.504 L484.604,295.504 C482.011987,295.504 479.73201,296.439991 477.764,298.312 C475.891991,300.23201 474.956,302.511987 474.956,305.152 Z M546.092,270.232 L546.092,326.248 L548.18,326.248 L548.18,333.304 L513.26,333.304 L513.26,326.248 L515.708,326.248 L515.708,278.224 L526.58,279.304 L526.58,288.88 L533.276,288.88 L533.276,296.152 L526.58,296.152 L526.58,307.528 L533.276,307.528 L533.276,314.8 L526.58,314.8 L526.58,326.248 L535.22,326.248 L535.22,277.432 L515.708,277.432 L515.708,270.232 L546.092,270.232 Z M562.292,274.696 L577.844,274.696 L577.844,333.448 L563.228,333.448 L563.228,326.248 L566.324,326.248 L566.324,281.896 L562.148,281.896 L560.924,333.664 L550.268,333.664 L551.492,281.896 L548.252,281.896 L548.252,274.696 L551.636,274.696 L551.78,268.72 L562.436,268.72 L562.292,274.696 Z M610.172,276.928 L650.564,276.928 L650.564,333.448 L619.028,333.448 L619.028,325.888 L638.324,325.888 L638.324,284.488 L608.948,284.488 L601.1,333.808 L588.932,333.808 L596.78,284.488 L585.908,284.488 L585.908,276.928 L598.004,276.928 L599.372,268.36 L611.54,268.36 L610.172,276.928 Z M220.148,401.848 L220.148,409.048 L196.748,409.048 L219.428,416.032 L219.428,424.816 L187.604,414.664 L155.708,424.816 L155.708,416.032 L178.388,409.048 L155.06,409.048 L155.06,401.848 L181.484,401.848 L181.484,397.096 L193.724,398.176 L193.724,401.848 L220.148,401.848 Z M219.428,388.816 L219.428,396.016 L155.78,396.016 L155.78,388.816 L181.484,388.816 L181.484,384.136 L157.004,384.136 L157.004,376.936 L181.484,376.936 L181.484,372.616 L193.724,373.552 L193.724,376.936 L218.204,376.936 L218.204,384.136 L193.724,384.136 L193.724,388.816 L219.428,388.816 Z M219.428,364.696 L219.428,371.896 L155.78,371.896 L155.78,364.696 L166.508,364.696 L163.916,358.864 L176.012,358.864 L178.604,364.696 L196.604,364.696 L199.196,358.864 L211.292,358.864 L208.7,364.696 L219.428,364.696 Z M276.812,415.744 L292.364,415.744 L292.364,423.592 L263.852,423.592 L263.852,393.856 L276.812,394.936 L276.812,415.744 Z M230.588,423.592 L236.564,393.856 L249.092,395.944 L243.548,423.592 L230.588,423.592 Z M292.22,384.496 L292.22,392.056 L226.988,392.056 L226.988,384.496 L292.22,384.496 Z M289.484,360.304 L289.484,367.864 L229.652,367.864 L229.652,360.304 L289.484,360.304 Z M336.644,367.288 L336.644,380.176 L325.34,380.176 L325.34,360.016 L361.628,360.016 L361.628,372.832 L364.364,372.832 L364.364,380.104 L350.684,380.104 L350.684,367.288 L336.644,367.288 Z M366.452,423.52 L350.972,423.52 L343.412,416.68 L335.492,423.52 L321.02,423.52 L336.356,410.272 L325.34,400.336 L325.34,390.4 L336.644,391.48 L336.644,397.096 L344.06,403.648 L351.692,397.096 L351.692,389.68 L325.268,389.68 L325.268,382.336 L362.996,382.336 L362.996,399.976 L351.26,409.984 L366.452,423.52 Z M322.388,400.696 L317.132,400.696 L317.132,423.448 L299.132,423.448 L299.132,416.248 L305.612,416.248 L305.612,400.696 L298.988,400.696 L298.988,393.496 L305.612,393.496 L305.612,377.872 L298.988,377.872 L298.988,370.672 L305.612,370.672 L305.612,359.224 L317.132,359.224 L317.132,370.672 L322.388,370.672 L322.388,377.872 L317.132,377.872 L317.132,393.496 L322.388,393.496 L322.388,400.696 Z M401.372,366.712 L401.372,374.704 L389.852,374.704 L389.852,359.872 L435.14,359.872 L435.14,374.704 L423.548,374.704 L423.548,366.712 L401.372,366.712 Z M386.828,374.848 L375.596,374.848 L371.78,359.872 L382.94,359.872 L386.828,374.848 Z M386.828,376.576 L382.076,391.408 L370.7,391.408 L375.452,376.576 L386.828,376.576 Z M418.22,376.288 L436.292,382.552 L436.292,391.984 L412.676,383.776 L388.628,392.056 L388.628,382.624 L406.7,376.432 L406.7,369.016 L418.22,370.024 L418.22,376.288 Z M432.188,409.984 L421.388,409.984 L421.388,399.904 L385.82,399.904 L385.82,409.984 L375.02,409.984 L375.02,392.704 L432.188,392.704 L432.188,409.984 Z M409.364,402.856 L409.364,409.192 L435.284,415.312 L435.284,424.672 L403.604,417.184 L371.924,424.672 L371.924,415.312 L397.844,409.192 L397.844,401.488 L409.364,402.856 Z M477.116,381.76 L477.116,389.176 L443.42,389.176 L443.42,381.76 L446.732,381.76 L445.22,372.472 L456.308,372.472 L457.82,381.76 L463.076,381.76 L464.588,372.472 L475.676,372.472 L474.092,381.76 L477.116,381.76 Z M476.756,403.504 L466.46,403.504 L466.46,423.664 L453.068,423.664 L453.068,416.464 L454.652,416.464 L454.652,403.504 L444.356,403.504 L444.356,396.16 L454.652,396.16 L454.652,390.184 L466.46,391.264 L466.46,396.16 L476.756,396.16 L476.756,403.504 Z M443.708,423.16 L445.076,406.168 L452.636,406.168 L451.268,423.16 L443.708,423.16 Z M468.188,406.168 L475.748,406.168 L477.188,423.16 L469.556,423.16 L468.188,406.168 Z M476.828,362.608 L476.828,369.952 L443.708,369.952 L443.708,362.608 L454.652,362.608 L454.652,358.936 L466.46,358.936 L466.46,362.608 L476.828,362.608 Z M490.508,382.912 L508.364,382.912 L508.364,390.112 L490.508,390.112 L490.508,423.808 L479.132,423.808 L479.132,359.872 L507.932,359.872 L507.932,367.144 L490.508,367.144 L490.508,382.912 Z M495.26,423.808 L495.26,390.904 L506.636,392.344 L506.636,423.808 L495.26,423.808 Z M523.628,389.896 L523.628,383.92 L515.636,383.92 L515.636,376.72 L523.628,376.72 L523.628,371.104 L515.636,371.104 L515.636,363.904 L523.628,363.904 L523.628,358.792 L534.428,358.792 L534.428,363.904 L540.188,363.904 L540.188,371.104 L534.428,371.104 L534.428,376.72 L540.188,376.72 L540.188,383.92 L534.428,383.92 L534.428,397.096 L516.356,397.096 L516.356,389.896 L523.628,389.896 Z M576.26,389.824 L580.22,389.824 L580.22,397.024 L565.028,397.024 L565.028,371.104 L559.268,371.104 L557.756,381.616 L561.86,382.264 L561.86,390.976 L556.532,390.112 L555.524,397.6 L544.724,397.6 L546.02,388.384 L541.988,387.736 L541.988,379.024 L547.244,379.888 L548.468,371.104 L541.988,371.104 L541.988,363.904 L549.476,363.904 L550.196,358.792 L560.996,358.792 L560.276,363.904 L576.26,363.904 L576.26,389.824 Z M542.492,398.896 L541.196,402.064 L578.06,402.064 L578.06,423.592 L548.612,423.592 L548.612,416.392 L566.036,416.392 L566.036,409.264 L538.388,409.264 L532.772,423.808 L520.244,423.808 L525.788,409.264 L516.284,409.264 L516.284,402.064 L528.596,402.064 L529.82,398.896 L542.492,398.896 Z M611.396,366.928 L651.788,366.928 L651.788,423.448 L620.252,423.448 L620.252,415.888 L639.548,415.888 L639.548,374.488 L610.172,374.488 L602.324,423.808 L590.156,423.808 L598.004,374.488 L587.132,374.488 L587.132,366.928 L599.228,366.928 L600.596,358.36 L612.764,358.36 L611.396,366.928 Z" id="path-43"></path>
        <filter x="-0.7%" y="-1.2%" width="101.4%" height="104.9%" filterUnits="objectBoundingBox" id="filter-44">
            <feMorphology radius="0.5" operator="dilate" in="SourceAlpha" result="shadowSpreadOuter1"></feMorphology>
            <feOffset dx="0" dy="5" in="shadowSpreadOuter1" result="shadowOffsetOuter1"></feOffset>
            <feColorMatrix values="0 0 0 0 0.479963861   0 0 0 0 0   0 0 0 0 0  0 0 0 1 0" type="matrix" in="shadowOffsetOuter1"></feColorMatrix>
        </filter>
    </defs>
    <g id="Page-2-Copy" stroke="none" stroke-width="1" fill="none" fill-rule="evenodd">
        <g id="体验金1" transform="translate(0.000000, -75.000000)">
            <g id="Group-26" transform="translate(-28.000000, 75.000000)">
                <g id="Group-25">
                    <g id="Group-21" transform="translate(116.000000, 68.000000)" fill="url(#linearGradient-1)" opacity="0.409486607">
                        <path d="M502.787588,461.290805 C542.312595,412.626229 566,350.57936 566,283 C566,161.024852 488.832921,57.0730403 380.65503,17.3008316 C350.215874,6.10970509 317.321436,0 283,0 C126.703416,0 0,126.703416 0,283 C0,353.865112 26.0467957,418.646669 69.0890231,468.293306 C80.2975677,481.221693 492.943036,473.411762 502.787588,461.290805 Z" id="Combined-Shape"></path>
                    </g>
                    <circle id="Oval-3-Copy" fill="#FF7777" opacity="0.420870536" cx="769" cy="508" r="60"></circle>
                    <circle id="Oval-3-Copy-2" fill="#FF5E5E" opacity="0.420870536" cx="71.5" cy="505.5" r="28.5"></circle>
                    <circle id="Oval-3-Copy-3" fill="#FF7777" opacity="0.322991071" cx="109" cy="60" r="60"></circle>
                    <g id="Rectangle-7" opacity="0.533705357" transform="translate(114.500000, 206.500000) rotate(-39.000000) translate(-114.500000, -206.500000) " fill="black" fill-opacity="1">
                        <use filter="url(#filter-3)" xlink:href="#path-2"></use>
                    </g>
                    <g id="Rectangle-7" opacity="0.533705357" transform="translate(696.000000, 403.000000) scale(-1, 1) rotate(-39.000000) translate(-696.000000, -403.000000) " fill="black" fill-opacity="1">
                        <use filter="url(#filter-5)" xlink:href="#path-4"></use>
                    </g>
                    <g id="Group-6" filter="url(#filter-6)" transform="translate(91.000000, 591.500000) scale(1, -1) rotate(10.000000) translate(-91.000000, -591.500000) translate(74.000000, 581.000000)">
                        <polygon id="Path-6" fill="url(#linearGradient-7)" points="15.5873242 0.775671263 32.985612 20.171406 0.185543228 5.15948497"></polygon>
                        <polygon id="Path-6" fill="url(#linearGradient-8)" points="7.4233637 17.8989597 33.2272413 20.1446081 9.09955822e-13 5.04131661"></polygon>
                    </g>
                    <g id="Group-6" filter="url(#filter-9)" transform="translate(723.500000, 565.000000) scale(-1, -1) rotate(30.000000) translate(-723.500000, -565.000000) translate(711.000000, 557.000000)">
                        <polygon id="Path-6" fill="url(#linearGradient-7)" points="11.6830274 0.581381931 24.7234102 15.1188932 0.139068553 3.86714254"></polygon>
                        <polygon id="Path-6" fill="url(#linearGradient-8)" points="5.56396728 13.4156469 24.9045165 15.0988076 9.09840321e-13 3.77857286"></polygon>
                    </g>
                    <g id="Group-6" filter="url(#filter-10)" opacity="0.71171875" transform="translate(551.500000, 560.000000) scale(-1, -1) rotate(30.000000) translate(-551.500000, -560.000000) translate(544.000000, 555.000000)">
                        <polygon id="Path-6" fill="url(#linearGradient-7)" points="6.99739725 0.348211143 14.8077648 9.05526437 0.0832933002 2.31617471"></polygon>
                        <polygon id="Path-6" fill="url(#linearGradient-8)" points="3.3324658 8.03512714 14.9162361 9.04323436 9.09701706e-13 2.26312705"></polygon>
                    </g>
                    <g id="Group-6" filter="url(#filter-11)" transform="translate(657.000000, 59.500000) scale(-1, 1) rotate(10.000000) translate(-657.000000, -59.500000) translate(640.000000, 49.000000)">
                        <polygon id="Path-6" fill="url(#linearGradient-7)" points="15.5873242 0.775671263 32.985612 20.171406 0.185543228 5.15948497"></polygon>
                        <polygon id="Path-6" fill="url(#linearGradient-8)" points="7.4233637 17.8989597 33.2272413 20.1446081 9.09955822e-13 5.04131661"></polygon>
                    </g>
                    <g id="Group-6" filter="url(#filter-12)" opacity="0.71171875" transform="translate(148.000000, 48.500000) rotate(30.000000) translate(-148.000000, -48.500000) translate(138.000000, 42.000000)">
                        <polygon id="Path-6" fill="url(#linearGradient-7)" points="9.329863 0.452674486 19.7436865 11.7718437 0.111057734 3.01102712"></polygon>
                        <polygon id="Path-6" fill="url(#linearGradient-8)" points="4.44328774 10.4456653 19.8883148 11.7562047 9.09770708e-13 2.94206517"></polygon>
                    </g>
                    <g id="Group-6" transform="translate(54.857858, 137.154036) rotate(46.000000) translate(-54.857858, -137.154036) translate(19.857858, 114.154036)">
                        <path d="M0,17.9512195 L70,17.9512195 L69.1953984,31.4853834 C62.7439455,41.1617945 51.3454794,46 35,46 C18.6545206,46 7.25605319,41.1617945 0.804597701,31.4853834 L0,17.9512195 Z" id="Rectangle-3" fill="url(#linearGradient-13)"></path>
                        <g id="Oval-5">
                            <use fill="black" fill-opacity="1" filter="url(#filter-16)" xlink:href="#path-15"></use>
                            <use fill="url(#linearGradient-14)" fill-rule="evenodd" xlink:href="#path-15"></use>
                        </g>
                        <g id="Rectangle-4" transform="translate(6.774194, 3.365854)">
                            <mask id="mask-19" fill="white">
                                <use xlink:href="#path-18"></use>
                            </mask>
                            <g id="Mask">
                                <use fill="url(#linearGradient-17)" fill-rule="evenodd" xlink:href="#path-18"></use>
                                <use fill="black" fill-opacity="1" filter="url(#filter-20)" xlink:href="#path-18"></use>
                                <use stroke-opacity="0.235280797" stroke="#582C2C" stroke-width="1" xlink:href="#path-18"></use>
                            </g>
                            <polygon fill="#FFFFFF" opacity="0.185100446" mask="url(#mask-19)" points="-29.3548387 0 44.9339065 26.3658537 35 52.7317073 -29.3548387 52.7317073"></polygon>
                        </g>
                        <g id="Oval-4" fill="black" fill-opacity="1">
                            <use filter="url(#filter-22)" xlink:href="#path-21"></use>
                        </g>
                        <g id="$" transform="translate(35.433687, 19.133839) rotate(-85.000000) translate(-35.433687, -19.133839) ">
                            <use fill="url(#linearGradient-23)" fill-rule="evenodd" xlink:href="#path-24"></use>
                            <use fill="black" fill-opacity="1" filter="url(#filter-25)" xlink:href="#path-24"></use>
                        </g>
                    </g>
                    <g id="Group-6" transform="translate(730.500000, 322.000000) scale(-1, 1) rotate(46.000000) translate(-730.500000, -322.000000) translate(701.000000, 302.000000)">
                        <path d="M0,15.6097561 L59,15.6097561 L58.3218358,27.3785943 C52.8841826,35.7928648 43.276904,40 29.5,40 C15.723096,40 6.11581626,35.7928648 0.67816092,27.3785943 L0,15.6097561 Z" id="Rectangle-3" fill="url(#linearGradient-13)"></path>
                        <g id="Oval-5">
                            <use fill="black" fill-opacity="1" filter="url(#filter-27)" xlink:href="#path-26"></use>
                            <use fill="url(#linearGradient-14)" fill-rule="evenodd" xlink:href="#path-26"></use>
                        </g>
                        <g id="Rectangle-4" transform="translate(5.709677, 2.926829)">
                            <mask id="mask-29" fill="white">
                                <use xlink:href="#path-28"></use>
                            </mask>
                            <g id="Mask">
                                <use fill="url(#linearGradient-17)" fill-rule="evenodd" xlink:href="#path-28"></use>
                                <use fill="black" fill-opacity="1" filter="url(#filter-30)" xlink:href="#path-28"></use>
                                <use stroke-opacity="0.235280797" stroke="#582C2C" stroke-width="1" xlink:href="#path-28"></use>
                            </g>
                            <polygon fill="#FFFFFF" opacity="0.185100446" mask="url(#mask-29)" points="-24.7419355 0 37.872864 22.9268293 29.5 45.8536585 -24.7419355 45.8536585"></polygon>
                        </g>
                        <g id="Oval-4" fill="black" fill-opacity="1">
                            <use filter="url(#filter-32)" xlink:href="#path-31"></use>
                        </g>
                        <g id="$" transform="translate(29.865536, 16.638121) scale(-1, 1) rotate(-85.000000) translate(-29.865536, -16.638121) ">
                            <use fill="url(#linearGradient-23)" fill-rule="evenodd" xlink:href="#path-33"></use>
                            <use fill="black" fill-opacity="1" filter="url(#filter-34)" xlink:href="#path-33"></use>
                        </g>
                    </g>
                    <g id="Group-3" filter="url(#filter-35)" transform="translate(55.000000, 313.500000) rotate(25.000000) translate(-55.000000, -313.500000) translate(7.000000, 287.000000)">
                        <g id="Group-2" transform="translate(0.000000, 12.703339)" fill="url(#linearGradient-36)">
                            <path d="M11.0421243,3.91159925 C13.8425176,13.2029225 17.1702785,20.2324868 21.025407,25.0002919 C24.8805355,29.7680971 30.8793918,33.0083132 39.021976,34.7209402 C37.1096569,35.1936149 35.6840939,35.4632118 34.7452868,35.5297307 C22.9994358,36.3619804 14.0145993,32.0590792 7.93081523,23.2230323 C1.11764605,13.3276313 2.15474907,6.89048699 11.0421243,3.91159925 Z" id="Path-7" filter="url(#filter-37)" transform="translate(21.258991, 19.771407) rotate(-14.000000) translate(-21.258991, -19.771407) "></path>
                        </g>
                        <path d="M75.8470241,16.7235689 C59.0478625,29.2382322 63.8612891,26.4371294 49.6231217,34.8889746 C40.1310101,40.523538 29.9128097,41.6877395 18.9685204,38.381579 C32.4241098,46.3150913 45.7969005,46.3150913 59.0868924,38.381579 C71.9097232,30.7269404 67.6911792,32.7045913 80.6547996,22.9471744 C83.7287582,20.6334769 86.644219,18.7675377 89.401182,17.3493568 L89.4011679,17.3493294 C91.6889919,16.1724734 92.5896094,13.3637955 91.4127534,11.0759716 C90.9571406,10.190254 90.2296335,9.47388799 89.3369907,9.03199709 C87.5104771,8.82075129 83.0138216,11.3846086 75.8470241,16.7235689 Z" id="Path-8" fill="url(#linearGradient-38)" transform="translate(55.449093, 26.675825) rotate(-14.000000) translate(-55.449093, -26.675825) "></path>
                    </g>
                    <g id="Group-19" filter="url(#filter-39)" transform="translate(660.000000, 6.000000)" fill="url(#linearGradient-38)">
                        <path d="M107.767057,46.0382874 C92.215464,64.6623191 89.9246849,71.7069373 70.5378814,89.160672 C57.6133457,100.796495 37.6519333,103.503239 10.6536442,97.2809022 C35.871202,117.527716 60.861182,117.717128 85.623584,97.8491382 C105.238698,82.1110493 99.6166198,80.4989443 122.98113,55.6358749 C135.229041,42.6024044 150.015767,35.0944907 167.341308,33.1121337 L167.341309,33.1121385 C167.890016,33.0493564 168.283937,32.5536462 168.221155,32.0049388 C168.188602,31.7204339 168.035643,31.4635351 167.801034,31.2993358 L151.671902,20.0107943 C134.080916,23.37621 119.445968,32.0520411 107.767057,46.0382874 Z" id="Path-8" transform="translate(89.440687, 66.310104) scale(-1, -1) rotate(-16.000000) translate(-89.440687, -66.310104) "></path>
                    </g>
                    <g id="Group-23" transform="translate(133.000000, 497.000000)">
                        <g id="Group-22">
                            <polygon id="Rectangle-2" fill="#D0021B" points="0 2 36 2 36 81 0 81 8.4588953 41.5"></polygon>
                            <polygon id="Rectangle-2" fill="#D0021B" transform="translate(521.000000, 41.500000) scale(-1, 1) translate(-521.000000, -41.500000) " points="503 2 539 2 539 81 503 81 511.458895 41.5"></polygon>
                            <path d="M28,6.76155397 C108.5,2.80510419 189,0.826879301 269.5,0.826879301 C350,0.826879301 430.5,2.80510419 511,6.76155397 L511,73.761554 C359.732492,76.7255177 279.232492,78.2074996 269.5,78.2074996 C189,78.2074996 108.5,76.7255177 28,73.761554 L28,6.76155397 Z" id="Rectangle-24" fill="url(#linearGradient-40)"></path>
                        </g>
                        <g id="5000美金-做美国房东">
                            <use fill="black" fill-opacity="1" filter="url(#filter-42)" xlink:href="#path-41"></use>
                            <use fill="#FFFFFF" fill-rule="evenodd" xlink:href="#path-41"></use>
                        </g>
                    </g>
                </g>
                <g id="互联网公司上市热,-WeHome助力-美-Copy-2">
                    <use fill="black" fill-opacity="1" filter="url(#filter-44)" xlink:href="#path-43"></use>
                    <use fill="#FFFFFF" fill-rule="evenodd" xlink:href="#path-43"></use>
                </g>
            </g>
        </g>
    </g>
</svg>