<?xml version="1.0" standalone="no"?><!DOCTYPE svg PUBLIC "-//W3C//DTD SVG 1.1//EN" "http://www.w3.org/Graphics/SVG/1.1/DTD/svg11.dtd"><svg t="1533888189534" class="icon" style="" viewBox="0 0 1024 1024" version="1.1" xmlns="http://www.w3.org/2000/svg" p-id="3655" xmlns:xlink="http://www.w3.org/1999/xlink" width="128" height="128"><defs><style type="text/css"></style></defs><path d="M512 512m-512 0a512 512 0 1 0 1024 0 512 512 0 1 0-1024 0Z" fill="#ffffff" p-id="3656" data-spm-anchor-id="a313x.7781069.0.i2" class=""></path><path d="M748.8 288h-460.8c-10.24 0-19.2-8.96-19.2-19.2s8.96-19.2 19.2-19.2h460.8c10.24 0 19.2 8.96 19.2 19.2s-8.96 19.2-19.2 19.2zM537.6 389.12v412.16c0 10.24-7.68 17.92-17.92 17.92h-2.56c-10.24 0-17.92-7.68-17.92-17.92V389.12c0-10.24 7.68-17.92 17.92-17.92h2.56c10.24 0 17.92 7.68 17.92 17.92z" fill="#cdcdcd" p-id="3657" data-spm-anchor-id="a313x.7781069.0.i0" class="selected"></path><path d="M524.8 883.2m-25.6 0a25.6 25.6 0 1 0 51.2 0 25.6 25.6 0 1 0-51.2 0Z" fill="#FFFFFF" p-id="3658"></path><path d="M518.4 320L299.52 538.88c-6.4 6.4-6.4 17.92 0 25.6s17.92 6.4 25.6 0L518.4 371.2l193.28 193.28c6.4 6.4 17.92 6.4 25.6 0s6.4-17.92 0-25.6L518.4 320z" fill="#cdcdcd" p-id="3659" data-spm-anchor-id="a313x.7781069.0.i1" class="selected"></path></svg>